<svg width="71" height="105" viewBox="0 0 71 105" fill="none" xmlns="http://www.w3.org/2000/svg">
<path d="M0.0925803 6.10938L0.462894 6.84989L1.75876 7.68298L2.31417 45.635L2.49933 66.4623L7.22016 94.9725L7.59042 94.88L11.7559 95.713L12.8667 87.4747L14.718 92.103L17.8653 94.9725L23.882 91.455L23.2341 90.8996L23.4192 90.9922L19.2537 81.4579L59.2422 74.9783L61.9266 74.5155V74.4229L59.4273 69.702L59.2422 62.9447L57.2057 59.2421L58.224 52.022L59.8901 50.1707L53.0403 37.952L40.6364 0.185143L40.5438 -1.36065e-05L37.7669 0.462821L22.9563 2.86954L15.5511 3.79521L-2.73248e-05 5.92422L0.0925803 6.10935V6.10938Z" transform="translate(4.67139 4.76917)" stroke="white" stroke-width="8" stroke-linejoin="round"/>
</svg>
