<svg width="203" height="112" viewBox="0 0 203 112" fill="none" xmlns="http://www.w3.org/2000/svg">
<path d="M3.88778 95.2503V95.343M1.38849 93.2139V93.1213M70.8129 99.7861V99.8787M73.127 98.12L73.0344 97.9349M77.9404 92.6586H77.8478M84.1423 89.6965L84.2349 89.6039M86.9193 88.5857L87.0119 88.4931M95.9908 87.1047L95.8981 87.0121M117.836 65.0739V64.7962M73.8675 50.4485V50.3559M73.8675 50.0782L73.7749 49.8931M75.5337 47.6715H75.4411M0.462837 94.695L0 94.8801L0.370277 94.9727L0.462837 94.695ZM2.22159 93.6767V93.9544L2.40672 93.8618L2.22159 93.6767ZM3.14724 94.1396V93.9544L3.05464 94.047L3.14724 94.1396ZM2.9621 93.9544V93.8618H2.77699L2.9621 93.9544ZM2.9621 92.8437L3.05471 92.2882L2.68446 92.4734L2.9621 92.8437ZM13.5146 97.3794L13.422 97.2868L13.6071 97.657L13.5146 97.3794ZM6.66474 94.1396L5.64653 93.2139V95.4355L6.66474 94.1396ZM8.9789 96.176L8.88629 95.5281L7.31268 95.4354L8.9789 96.176ZM14.5328 97.4719L14.4402 97.6571H14.6254L14.5328 97.4719ZM14.9031 97.5645H14.718L15.0882 97.6572L14.9031 97.5645ZM16.0139 97.9348H15.9213H15.8287H16.0139ZM13.9774 96.6389L13.2369 96.5463L13.5146 96.824L13.9774 96.6389ZM16.2916 96.824L16.1065 96.7314V96.824H16.2916ZM21.9381 97.9348L18.328 98.2125L17.4949 98.5828L21.9381 97.9348ZM33.1386 102.193V101.823H32.9534L33.1386 102.193ZM37.952 102.285L38.1371 102.1L37.952 101.915V102.285ZM41.5621 103.304L41.7472 103.211H41.6546L41.5621 103.304ZM38.6 101.637L38.5074 101.267H38.3222L38.6 101.637ZM44.8018 103.026L44.7093 103.119H44.8018V103.026ZM39.8959 101.637L40.081 101.082H39.9884L39.8959 101.637ZM55.5395 100.249L55.6321 100.064L55.447 99.9712L55.5395 100.249ZM53.2253 99.4159L49.9855 102.285L52.2997 102.1L54.9841 99.9713L53.2253 99.4159ZM59.057 100.434L58.409 100.249L58.8719 100.619L59.057 100.434ZM60.3529 100.527L59.3347 100.249L59.1496 100.342L60.3529 100.527ZM56.8354 99.2308H55.8172L57.5759 99.6936L56.8354 99.2308ZM61.0934 100.156L61.0008 99.9714L60.6306 100.064L61.0934 100.156ZM58.3165 99.0457L57.9462 98.8605V99.8787L58.3165 99.0457ZM70.1649 101.36L70.0723 101.267H69.8871L70.1649 101.36ZM70.35 101.267V101.175L70.1649 101.082L70.35 101.267ZM68.7764 100.712L68.9615 101.082V100.989L68.7764 100.712ZM69.6095 100.712L68.7764 100.434L69.7946 101.175L69.6095 100.712ZM81.8282 101.175L81.6431 100.804H81.5504L81.8282 101.175ZM181.429 94.9728L181.244 94.7876L181.336 94.9728H181.429ZM69.2392 97.8423V97.7497L69.1466 97.8423H69.2392ZM184.113 93.3066L184.391 93.6768H184.576L184.113 93.3066ZM82.939 100.249L82.8464 100.342V100.619L82.939 100.249ZM71.4608 98.5828L71.6459 97.8423H71.5533L71.4608 98.5828ZM189.482 91.1775L188.649 91.6404L189.39 92.0107L189.482 91.1775ZM66.1846 96.0835L63.8704 96.5464L61.834 99.2308L66.1846 96.0835ZM82.7538 99.601L82.1985 100.064L82.7538 99.9712V99.601ZM189.482 90.7147L189.297 90.3445L189.204 90.5296L189.482 90.7147ZM73.8675 97.1944L73.2196 97.1017L73.8675 97.7497V97.1944ZM183.373 91.918L183.188 92.1032L183.373 92.7512V91.918ZM75.3486 97.1017L75.0709 97.1944L75.4411 97.4721L75.3486 97.1017ZM82.1985 99.0456H81.9207L81.7356 98.8605L82.1985 99.0456ZM74.608 97.1017L74.1452 96.824L74.3304 97.1017H74.608ZM80.81 98.12L79.9769 98.3977L79.4215 99.8787L80.81 98.12ZM181.336 91.6404V92.2884L181.707 91.8255L181.336 91.6404ZM69.8872 95.1579L70.6277 94.9728H70.5351L69.8872 95.1579ZM68.9615 94.6025L68.7764 94.4173V94.5099L68.9615 94.6025ZM181.336 90.9924L181.151 90.8998L181.059 91.1775L181.336 90.9924ZM79.7917 96.5464L79.6066 96.4538L79.4215 96.7315L79.7917 96.5464ZM180.411 91.1775L180.503 90.7147L180.318 90.6221L180.411 91.1775ZM179.67 90.7147L179.393 91.085L179.855 91.1776L179.67 90.7147ZM83.6795 95.2505L83.4944 95.0653H83.4018L83.6795 95.2505ZM179.393 89.0485L180.133 89.3263L180.411 88.9559L179.393 89.0485ZM180.503 88.4006L180.226 88.5857L180.688 88.8634L180.503 88.4006ZM178.374 88.9559L178.189 88.5857L178.004 88.7708L178.374 88.9559ZM187.631 85.531L186.428 88.9559L187.631 88.2154V85.531ZM179.485 86.827L178.652 87.66L178.837 88.5857L179.485 86.827ZM93.3063 94.2322V93.8619L93.2137 94.0471L93.3063 94.2322ZM178.467 85.9013L181.151 89.9742L187.168 93.7694L185.78 90.5296L180.041 85.6236L178.467 85.9013ZM89.6037 92.7512L89.5111 92.4735L89.326 92.5661L89.6037 92.7512ZM181.614 84.3277L181.244 85.7162L181.892 85.2533L181.614 84.3277ZM183.558 84.3277L183.465 85.2533L184.299 85.531L183.558 84.3277ZM92.5658 91.5478L92.103 91.4552L91.6402 91.6403L92.5658 91.5478ZM102.1 92.2884L101.73 92.9363L101.915 92.3809L102.1 92.2884ZM103.489 92.381L102.655 92.4735L103.118 93.0289L103.489 92.381ZM84.42 89.6039H84.5126V89.5114L84.42 89.6039ZM180.133 82.4764L180.596 84.2351L181.522 83.6797L180.133 82.4764ZM176.153 83.2169L176.616 87.4749L177.541 86.5492L176.153 83.2169ZM176.616 81.8284L178.745 84.7905L178.467 82.8466L176.616 81.8284ZM170.043 82.5689L169.488 84.3277L170.229 83.1243L170.043 82.5689ZM104.785 87.2898L104.599 87.0121L104.785 87.3824V87.2898ZM170.229 81.1805L173.931 87.2898L173.376 83.1243L170.229 81.1805ZM109.968 84.4203L109.69 84.6979L110.153 84.8831L109.968 84.4203ZM108.765 84.6054L108.857 84.3277H108.487L108.765 84.6054ZM107.839 84.6054L105.432 86.179L102.47 90.0668L103.951 91.6404L110.801 86.5492L107.839 84.6054ZM166.248 78.5886L165.6 78.2183V78.7737L166.248 78.5886ZM107.284 83.4946L107.376 83.8649L108.024 84.2351L107.284 83.4946ZM168.007 76.8299L166.156 77.7555L167.914 78.3109L168.007 76.8299ZM166.804 76.8299L166.618 76.6447L166.526 76.8299H166.804ZM172.45 75.3488L171.71 75.0711L171.524 75.6265L172.45 75.3488ZM168.47 75.9968L167.822 75.9041V76.0893L168.47 75.9968ZM170.506 75.2562L174.301 80.8102L173.283 75.719L170.506 75.2562ZM109.413 81.273L107.191 82.9392L108.209 84.05L111.172 81.8284L109.413 81.273ZM84.2349 77.7555L84.1423 77.6629V77.7555H84.2349ZM83.2167 77.2927L83.1241 76.8299V77.015L83.2167 77.2927ZM111.634 78.4961L111.449 78.5886V78.6812L111.634 78.4961ZM110.709 78.3109H110.616L110.431 78.5886L110.709 78.3109ZM112.93 77.5704L112.653 77.3852V77.4778L112.93 77.5704ZM113.671 77.4778L113.393 77.2926V77.3852L113.671 77.4778ZM112.467 77.2001H112.097V77.2927L112.467 77.2001ZM130.888 75.3487L130.981 75.0711L130.796 75.2562L130.888 75.3487ZM136.535 72.3866L137.645 70.9982L137.275 71.2759L136.535 72.3866ZM125.242 72.2015L125.612 71.9238L125.704 71.5536L125.242 72.2015ZM125.242 71.1833L124.871 71.461L125.519 71.2759L125.242 71.1833ZM110.061 71.1833L109.968 70.813H109.876L110.061 71.1833ZM124.871 71.0907L124.501 71.461L124.316 71.8312L124.871 71.0907ZM135.054 69.9799H135.146H135.239H135.054ZM135.516 69.9799L135.331 69.8873V69.9799H135.516ZM134.406 69.8873L134.498 69.9799V69.8873H134.406ZM126.815 70.4427L127.185 70.0724L126.723 70.4427H126.815ZM127.926 69.6096L125.704 73.2197L128.574 69.8873L127.926 69.6096ZM125.056 70.0724L124.779 69.7022L124.686 69.8873L125.056 70.0724ZM132.091 69.2394L131.906 69.1468L131.999 69.2394H132.091ZM134.498 69.4245V68.7765L134.313 69.0542L134.498 69.4245ZM66.5548 62.2969L62.1117 62.1118L65.1663 65.3516L66.5548 62.2969ZM129.777 68.8691L129.962 69.517L130.425 68.7765L129.777 68.8691ZM126.075 68.7765L125.797 70.8129L126.26 69.517L126.075 68.7765ZM125.149 67.4806L125.242 67.7583L125.427 67.6657L125.149 67.4806ZM124.686 67.8508L124.501 67.2954L124.223 67.4806L124.686 67.8508ZM129.037 66.7401V66.3698L128.759 66.5549L129.037 66.7401ZM124.871 66.1847V67.1103L125.149 66.4624L124.871 66.1847ZM69.5169 53.5957L69.7021 53.0403L69.6095 53.1329L69.5169 53.5957ZM69.7946 52.67L69.702 52.5774L69.6094 52.67H69.7946ZM76.0891 47.8566L75.7188 47.6715V47.7641L76.0891 47.8566ZM75.5337 47.4864V47.3012L75.3486 47.4864H75.5337ZM82.6613 45.7276L81.6431 45.8202L82.1985 46.0979L82.6613 45.7276ZM73.3121 37.8595V37.6744V37.7669V37.8595ZM68.6838 28.0475L68.4987 27.9549L68.5913 28.0475H68.6838ZM71.3682 28.9731L71.6459 28.8805H71.5533L71.3682 28.9731ZM73.2196 28.4178H73.4973L74.3304 28.0475L73.2196 28.4178ZM76.5519 27.3995L76.7371 27.2144L76.4594 27.3995H76.5519ZM77.0148 27.3069L77.5701 27.0292L77.1073 27.1218L77.0148 27.3069ZM78.4032 26.7515L77.9404 26.8441V26.9367L78.4032 26.7515ZM137.83 9.99708L137.46 9.7194L136.812 9.4417L137.83 9.99708ZM89.326 7.96064L90.1591 6.84985L89.6963 7.2201L89.326 7.96064ZM90.4368 6.66472L90.8071 6.10934L90.6219 6.29446L90.4368 6.66472ZM90.9922 5.92421L91.6402 5.3688L91.2699 5.55392L90.9922 5.92421ZM120.15 6.10934L120.613 6.57217H120.891L120.15 6.10934ZM105.247 0L101.452 3.14723L99.138 2.49927L93.7692 5.55392L92.7509 4.90596L86.6416 11.7558L80.4397 13.1443L80.9951 16.4767L83.7721 20.2719L88.9557 25.2705L88.1227 27.2143L92.0104 28.8805L89.974 29.2508L87.4747 27.3069L88.7706 30.1764L87.1044 31.1947L81.8282 26.3812L77.6627 27.1218L70.5351 29.8062L73.7749 33.4162L73.3121 35.6378L75.4411 38.2296L82.4761 41.0066L87.5673 38.4148L88.4003 40.3587L87.0119 46.1903H82.7538L77.7553 48.4119L77.4776 46.8383L74.8857 47.8565L73.6824 50.5409L69.4244 53.7807V58.5016L71.0905 59.2421L69.7946 63.2224L75.3486 68.0359L78.8661 66.5548L78.1255 72.479L79.1438 73.7749L83.4018 74.7006L84.9754 76.4593L88.678 76.737L90.4368 78.5884L94.232 77.4775L92.4733 79.8843L91.0848 84.7903L79.7917 92.103L78.3107 93.584L76.1817 92.7509L72.7567 93.584L67.8508 96.8238L75.5337 94.6022L76.6445 96.2684L86.549 93.0286L86.8267 94.3246L90.7145 90.4368L98.8603 84.7903L99.5083 85.1605L106.636 79.514L104.785 77.2924L107.191 73.3121L113.486 65.8143L118.299 64.8886L119.78 65.9068L113.949 67.573L112.375 73.7749L112.56 77.1073L114.596 76.9222L124.408 70.998L125.149 68.7764L124.316 65.3514L127.278 66.092L129.407 64.7035L135.516 68.4061L135.054 69.4244L148.938 71.1831L152.178 70.1649L153.104 71.5533L165.137 77.2924L167.174 76.0891L167.359 69.1466L168.933 72.2939L176.708 77.9404L177.356 80.2545L184.113 84.0497L185.872 88.9557L187.538 85.1605L190.963 91.8253L193.277 88.03L191.426 83.3092L184.299 82.5687L173.376 72.1087L167.452 67.7582L162.916 72.2013H160.231L154.03 68.1284L147.92 67.8507L139.219 12.9592L137.738 10.3674L134.22 8.23835L128.944 9.25657L124.871 8.42348L119.688 6.38701L114.226 6.75727L112.838 4.16545L108.487 3.51749L107.747 1.94386L105.803 4.16545L105.247 0Z" transform="translate(4.86035 4.11038)" stroke="white" stroke-width="8" stroke-linejoin="round"/>
</svg>
