<svg width="111" height="128" viewBox="0 0 111 128" fill="none" xmlns="http://www.w3.org/2000/svg">
<path d="M99.6009 10.4599L68.4062 6.57219L51.6518 4.16547L27.7698 0.370272L25.3631 -1.28335e-05V0.185144L21.2902 18.1429L19.1612 18.0503L15.9214 15.1808L11.8485 18.6057L11.7559 33.3237L10.2748 36.4709V36.7486V36.8412L10.0897 39.1553L13.3295 47.8565L16.1991 51.7443L11.0154 54.799L8.97892 58.5942L5.64653 66.7399L3.98035 67.1102L3.88777 73.8675L6.7573 75.9965L5.27625 80.0694L1.94389 80.2546L1.10826e-06 83.8646L6.66475 88.0301L19.2537 95.0651L58.1313 115.707L91.0848 119.78H91.455L94.0469 92.4732L94.6948 85.7159L101.637 14.07L102.008 10.7376L99.6008 10.4599H99.6009Z" transform="translate(4.07324 4.09488)" stroke="white" stroke-width="8" stroke-linejoin="round"/>
</svg>
