<svg width="86" height="82" viewBox="0 0 86 82" fill="none" xmlns="http://www.w3.org/2000/svg">
<path d="M77.1073 8.60862L67.1102 10.0897L71.1831 3.61005L69.4244 -1.13714e-05L34.1568 3.42493L4.35061 5.83165L-2.39162e-05 6.10935L0.555389 8.70117L4.16546 27.3995L4.25806 31.5649L5.27628 56.7428L5.36889 60.9083L5.64659 61.0009L7.03507 62.4819L12.589 62.2968L13.1444 70.4426L13.3295 72.7568L16.1991 72.479L24.9929 71.8311L59.8901 68.5913H60.0753L59.9827 66.5548L60.9084 65.9069L59.2422 62.7596L62.7596 47.9491L61.3712 46.2829L66.6474 40.4513L66.2772 35.4527L70.1649 28.9731V28.8805L69.9798 28.6954L73.3122 25.6407L72.3865 21.9381L74.9784 17.8652L74.423 14.07L77.1999 8.70117V8.60859H77.1073V8.60862Z" transform="translate(4.09033 4.25601)" stroke="white" stroke-width="8" stroke-linejoin="round"/>
</svg>
