<svg width="137" height="219" viewBox="0 0 137 219" fill="none" xmlns="http://www.w3.org/2000/svg">
<path d="M53.1328 191.704L53.503 193.74V194.11L53.1328 191.704ZM39.5256 183.743L40.1736 185.132L40.5438 185.039L39.5256 183.743V183.743ZM55.7246 183.465L56.0023 185.872L57.6685 187.075L55.7246 183.465ZM44.5242 170.321L43.5059 170.043L44.339 170.414L44.5242 170.321V170.321ZM34.2494 167.544L31.7501 169.025L32.398 169.673L34.2494 167.544V167.544ZM29.4359 165.785L29.2508 166.526L30.0839 166.711L29.4359 165.785V165.785ZM37.5817 167.637L41.6546 169.951L42.3951 169.303L37.5817 167.637ZM6.01677 86.0862L5.92418 86.1788L6.01677 86.0862ZM15.9213 86.549L15.8287 86.2713V86.6416L15.9213 86.549V86.549ZM69.3318 16.2916L65.7217 15.3659L26.1035 4.44316L11.3856 1.5553e-06V0.370257L10.5525 9.53428L6.66473 20.3645L0.185125 28.4177L-3.0128e-06 32.4906L3.14723 38.1371L4.72086 45.5424L2.49927 51.5591L2.86954 57.5759L1.75876 60.0752L5.55393 68.3136L7.96066 71.4608L7.77553 80.4397L13.5146 85.9011L16.847 80.3471L20.457 83.2167L21.8455 81.9207L16.847 82.8464L16.7544 87.5672L17.7726 93.4915L14.9956 90.8071L13.422 87.197L12.9592 92.1955L14.2551 102.1L19.4388 108.487L16.0138 112.93L16.5692 118.577L20.2719 124.316L26.7515 142.089L28.7879 143.199L28.14 155.511L29.1582 156.992L43.0431 161.99L47.3011 166.526L48.7821 169.488L52.855 171.802L57.2982 172.635L59.1495 177.726L62.8521 179.485L68.4061 186.057L73.5898 194.666L73.2195 202.627L76.0891 206.422L113.948 210.124L117.281 209.939L118.762 205.866L115.892 203.737L115.985 196.98L117.651 196.61L120.984 188.464L123.02 184.669L128.204 181.614L125.334 177.726L122.094 169.025L122.279 166.711V166.618L119.873 163.379L112.467 153.474L98.1197 133.295L78.1255 104.599L66.8325 88.9557L55.9097 73.2195L68.4987 19.809L69.3318 16.2916L69.3318 16.2916Z" transform="translate(4.06885 4.22507)" stroke="white" stroke-width="8" stroke-linejoin="round"/>
</svg>
