<svg width="119" height="93" viewBox="0 0 119 93" fill="none" xmlns="http://www.w3.org/2000/svg">
<path d="M109.598 25.0854L109.968 6.94252L105.525 6.75738L82.939 5.92429L80.7174 5.83168L78.8661 5.73909L51.374 3.98033L33.046 2.49928L10.1822 0.277702L7.96067 -4.24214e-06L7.68296 2.40672L2.68442 50.6335L0.925663 67.4805L0.185122 74.7932L-5.5227e-06 77.1999L2.86955 77.4776L49.5227 81.5505L70.0723 82.8464L90.5294 83.7721L93.4915 83.8647L95.3428 83.9573L99.2305 84.0499L101.082 84.1425L106.914 84.3276H108.395V82.4763L109.413 33.509L109.505 28.0476V26.2888L109.598 25.0855L109.598 25.0854Z" transform="translate(4.08105 4.63255)" stroke="white" stroke-width="8" stroke-linejoin="round"/>
</svg>
