<svg width="151" height="129" viewBox="0 0 151 129" fill="none" xmlns="http://www.w3.org/2000/svg">
<path d="M110.894 119.41H110.709L110.801 119.503L110.894 119.41H110.894ZM110.061 119.317V119.41H110.153L110.061 119.317ZM110.246 119.225V119.132V119.225ZM97.6568 120.613V120.706V120.613ZM97.4717 120.706V120.613V120.706ZM96.6387 120.706H96.5461V120.798L96.6387 120.706ZM122.927 114.874H122.835L122.927 115.059V114.874ZM125.427 114.226V114.041L125.241 114.319L125.427 114.226V114.226ZM124.501 114.041L124.131 113.671L124.038 113.763L124.501 114.041L124.501 114.041ZM124.223 114.782L123.113 113.393L123.76 114.597L124.223 114.782V114.782ZM133.017 109.32V109.691L133.202 109.505L133.017 109.32ZM134.313 108.395L134.591 107.932L134.22 108.302L134.313 108.395V108.395ZM134.591 107.469H134.498V107.562L134.591 107.469ZM132.924 107.191L132.832 107.099L132.924 107.191ZM133.758 105.803L133.665 105.71V105.895L133.758 105.803V105.803ZM131.258 105.71L131.166 105.618L131.258 105.71ZM134.406 103.581L134.22 103.674L134.498 103.766L134.406 103.581V103.581ZM134.776 103.581L134.591 103.396L134.683 103.674L134.776 103.581L134.776 103.581ZM134.128 103.396L134.035 103.303V103.489L134.128 103.396V103.396ZM137.553 102.748V102.655L137.368 103.026L137.553 102.748V102.748ZM133.665 103.118H133.48L133.665 103.211V103.118ZM135.609 102.008H135.331L135.239 102.1L135.609 102.008H135.609ZM136.349 101.545H136.257H136.349ZM128.574 101.915V101.73L128.481 101.915H128.574ZM129.407 101.637H129.129L129.407 102.193V101.637ZM127.185 101.73V101.174L126.723 101.267L127.185 101.73V101.73ZM125.889 100.804L126.352 101.267V101.082L125.889 100.804ZM139.497 101.36L137.83 102.1L138.386 102.193L139.497 101.36V101.36ZM126.537 100.527H125.982V100.712L126.537 100.527ZM141.163 95.8982L141.255 95.4354L141.348 94.232L141.163 95.8982H141.163ZM141.255 90.7145L140.885 89.7889L140.7 90.1591L141.255 90.7145ZM119.873 93.0287L119.688 93.3064L120.15 93.399L119.873 93.0287V93.0287ZM118.114 92.1956L117.281 92.4733L117.929 92.5659L118.114 92.1956V92.1956ZM116.263 92.3807V92.103L116.17 92.1956L116.263 92.3807V92.3807ZM114.319 92.2881L113.763 92.6584L114.504 93.0286L114.319 92.2881V92.2881ZM116.911 92.3807L116.818 92.103L116.355 92.0104L116.911 92.3807V92.3807ZM104.785 83.3092L104.229 83.5869L105.34 83.9572L104.785 83.3092V83.3092ZM102.563 80.3471L101.822 79.2364L102.1 80.0695L102.563 80.3471V80.3471ZM105.432 82.1985L104.137 79.2364L103.211 78.9587L105.432 82.1985ZM101.73 78.4958L101.452 77.7553L101.267 77.2925L101.73 78.4958ZM94.0469 68.221L92.3807 67.0177L93.0287 67.6656L94.0469 68.221ZM135.701 62.0191L128.944 50.7261H128.574L135.701 62.0191ZM88.9557 43.9688L88.678 43.8762L88.9557 44.0613V43.9687V43.9688ZM88.4004 43.3208L88.3078 43.4134L88.4004 43.506V43.3209V43.3208ZM87.7524 42.3952V42.3026L87.6598 42.3952H87.7524ZM88.1227 42.0249L88.4004 42.21V42.0249H88.1227ZM88.678 41.6546L88.3078 41.7472H88.4004L88.6781 41.6546H88.678ZM88.0301 41.562L87.7524 41.2843L87.845 41.3769L88.0301 41.5621V41.562ZM87.3822 40.5438H87.197L87.4747 40.6364L87.3821 40.5438H87.3822ZM88.0301 39.433H87.6598L87.5672 39.5256L88.0301 39.433H88.0301ZM88.4004 39.6182L87.9375 39.1553L88.1227 39.2479L88.4004 39.6182V39.6182ZM84.8829 35.6378L84.6977 35.5452V35.6378H84.8829ZM80.9025 35.6378L80.6248 35.2676L80.7174 35.7304L80.9025 35.6378V35.6378ZM47.2086 32.5832L49.9855 30.4541L46.9309 32.4906L47.2086 32.5832V32.5832ZM52.7625 28.14L53.0402 27.8623L51.9294 28.3251L52.7625 28.14V28.14ZM17.5875 21.9381L7.49783 25.1779L13.0518 23.6043L17.5875 21.9381V21.9381ZM42.6728 6.20189L39.9884 6.66472L-8.23282e-06 13.1443L4.16547 22.6786L4.44318 22.7712L3.42496 26.5664L6.38706 25.2705L9.62682 22.4009L15.1808 22.2158L21.5678 19.9017L25.9184 20.5496L24.9002 22.1233L32.8608 24.8077L39.7107 28.14L41.2844 31.8427L46.3754 30.7319L58.409 20.9199L62.8522 21.105L80.9951 34.8048L84.6977 34.0642L88.5855 39.2479L89.326 47.4863L88.1227 52.67L88.678 55.2618L91.9178 61.7414L90.4368 56.6503L94.6023 56.5577L94.9726 60.2603L92.751 65.9994L100.434 76.5519L103.303 76.6445L100.897 73.4047L103.859 73.775L105.618 72.6642L104.877 78.5884L108.857 81.7356L111.542 88.9558L115.152 91.1774L119.78 92.3807L126.167 100.527L129.5 102.285L125.056 102.563L127.093 104.877L134.406 102.47L138.016 100.434L141.348 88.7706L139.682 70.6278L139.312 68.7764L130.425 53.9659L122.835 43.2283L118.577 34.4345L122.187 37.4892L122.927 36.9338L124.501 44.6168L128.574 50.4484L124.594 42.6729L124.779 38.9703L112.838 24.4374L109.968 19.9017L106.173 12.2187L103.581 5.73911L101.545 3.42497L101.082 0.462867L100.989 0.370259L94.6022 3.40861e-06L92.1029 1.94389L90.7145 9.07144L89.4185 5.73908L45.7275 11.2005L42.5803 6.29447L42.6728 6.20186V6.20189Z" transform="translate(4.92529 4.08267)" stroke="white" stroke-width="8" stroke-linejoin="round"/>
</svg>
