<svg width="94" height="96" viewBox="0 0 94 96" fill="none" xmlns="http://www.w3.org/2000/svg">
<path d="M81.1802 62.5745L81.0876 59.7975L80.4396 62.2042L81.1801 62.5745H81.1802ZM82.1984 58.3164L81.8282 56.1874L81.5505 57.4834L82.1984 58.3164V58.3164ZM38.8776 -1.17346e-06L37.6743 0.277705L34.1568 1.01822L21.1975 3.70261L19.9942 3.98032L18.6983 4.16545L11.4782 5.55395L9.53429 5.92421L1.66619 7.40526L1.35972e-05 7.59039L0.0926212 7.77552L12.4964 45.5424L19.3463 57.7611L17.6801 59.6124L16.6619 66.8325L18.6983 70.5351L18.8835 77.2924L21.3828 82.0133V82.1059L21.2902 82.1985L24.4374 87.1045L68.1284 81.6431L69.4243 84.9755L70.8129 77.8479L73.3121 75.904L79.6992 76.2743L79.1438 66.2772L80.3471 64.1482L79.6992 60.1678L80.9951 56.3726L82.9389 54.2436L81.5505 52.9477L84.7903 48.9674H84.6977L79.1438 43.7837L71.5533 32.9535L67.3879 31.0096L49.5227 16.014L45.1721 10.46L36.7486 6.94251L36.2858 5.09118L38.8776 5.70337e-05V-1.17346e-06Z" transform="translate(4.21533 4.17877)" stroke="white" stroke-width="8" stroke-linejoin="round"/>
</svg>
