<svg width="71" height="64" viewBox="0 0 71 64" fill="none" xmlns="http://www.w3.org/2000/svg">
<path d="M47.6714 30.269L44.8018 28.14L42.3026 28.788L42.858 33.9717L39.433 38.2297L42.3951 44.987L43.2282 51.9294L46.6531 54.151L48.7822 50.7261L52.5774 47.9491L57.2057 46.7458L62.2968 42.3951L57.2982 38.1371L57.2056 35.5453L47.6714 30.269ZM30.8244 22.7712L29.4359 21.5679L28.14 23.3266L30.8244 22.7712ZM23.882 18.7909L24.2522 15.3659L22.4935 15.0882L23.882 18.7909ZM29.7136 13.1443L28.14 13.8849L29.2508 17.4024L31.6575 17.5875L32.398 20.6422L34.9899 21.753L40.7289 19.0685L35.3601 14.6254L29.7136 13.1443ZM17.8652 9.34915L17.0321 11.8484L21.0124 11.7558L24.7151 12.6815L22.7712 9.6268L17.8652 9.34915ZM6.20187 2.03647L4.07291 0L0 3.14726L2.59183 7.96068L4.44315 6.01678L9.71939 7.12758L9.25656 4.90599L6.20187 2.03647Z" transform="translate(4.12061 4.87738)" stroke="white" stroke-width="8" stroke-linejoin="round"/>
</svg>
