<svg width="99" height="157" viewBox="0 0 99 157" fill="none" xmlns="http://www.w3.org/2000/svg">
<path d="M40.4512 2.59184L32.2128 0.925658L29.5284 0.277696L28.3251 5.63445e-08L17.5875 48.3194L18.0503 52.2997L17.68 56.4651L17.8652 57.3908V57.4834L17.9578 59.2421L21.105 62.6671L16.5693 74.0527L6.94244 86.6416L6.66473 88.9558L9.164 94.88L0.37027 131.351L1.45378e-05 133.295L2.59183 133.85L28.788 139.034L39.2479 140.978L41.9323 141.441L44.5242 141.903L57.8536 144.032L81.7356 147.642L84.42 148.013L84.7903 144.958L85.6234 138.941L88.7706 114.874L90.4368 102.933L90.8071 99.8785L90.2517 99.6008L87.3821 94.4172L84.9754 97.5644L75.256 96.5462L67.573 96.6388L66.6474 97.3793L63.0373 89.974L62.1117 89.2335L56.928 76.552L56.1874 72.294L47.0234 71.646L48.7822 66.5549L50.0781 66.1846L53.3179 51.0038L50.5409 51.189L49.893 49.2451L43.0431 37.7669L40.6364 35.7305L38.8777 30.917L39.7107 30.1765L38.3222 24.9003L36.5635 21.4753L40.5438 2.5919H40.4512V2.59184Z" transform="translate(4.05518 4.84872)" stroke="white" stroke-width="8" stroke-linejoin="round"/>
</svg>
