<?xml version="1.0" encoding="UTF-8" standalone="no"?>
<svg
   xmlns:dc="http://purl.org/dc/elements/1.1/"
   xmlns:cc="http://creativecommons.org/ns#"
   xmlns:rdf="http://www.w3.org/1999/02/22-rdf-syntax-ns#"
   xmlns:svg="http://www.w3.org/2000/svg"
   xmlns="http://www.w3.org/2000/svg"
   xmlns:sodipodi="http://sodipodi.sourceforge.net/DTD/sodipodi-0.dtd"
   xmlns:inkscape="http://www.inkscape.org/namespaces/inkscape"
   width="72"
   height="117"
   viewBox="0 0 72 117"
   fill="none"
   version="1.1"
   id="svg4"
   sodipodi:docname="Illinois.svg"
   inkscape:version="0.92.2 2405546, 2018-03-11">
  <metadata
     id="metadata10">
    <rdf:RDF>
      <cc:Work
         rdf:about="">
        <dc:format>image/svg+xml</dc:format>
        <dc:type
           rdf:resource="http://purl.org/dc/dcmitype/StillImage" />
      </cc:Work>
    </rdf:RDF>
  </metadata>
  <defs
     id="defs8" />
  <sodipodi:namedview
     pagecolor="#ffffff"
     bordercolor="#666666"
     borderopacity="1"
     objecttolerance="10"
     gridtolerance="10"
     guidetolerance="10"
     inkscape:pageopacity="0"
     inkscape:pageshadow="2"
     inkscape:window-width="1920"
     inkscape:window-height="1053"
     id="namedview6"
     showgrid="false"
     inkscape:zoom="6.8549679"
     inkscape:cx="36.437639"
     inkscape:cy="58.5"
     inkscape:window-x="0"
     inkscape:window-y="0"
     inkscape:window-maximized="1"
     inkscape:current-layer="svg4" />
  <path
     d="M7.96069 4.99856L7.77559 5.46138L11.2931 7.68297L12.4039 9.90453L16.1065 13.422L16.0139 16.3841L13.9774 22.2158L9.34916 25.5482L5.18369 26.3813L4.35057 31.1947L5.7391 31.8426L4.35057 41.2843L0.925657 43.4134L1.57362 47.0234L0.7405 47.3937L-1.15856e-05 51.4666L2.96209 59.705L13.5146 68.5913L14.4403 72.8493L16.4767 74.9783L23.1415 74.608L21.9381 80.81L21.4753 87.4747L25.4556 90.7145L31.7501 93.4915L35.0824 96.0833L36.9338 101.36L35.9156 103.303L42.4877 108.672L42.7654 108.765L42.21 108.209L44.0613 103.859L51.1889 105.803L52.9477 103.766L51.5591 99.6934L57.3908 96.2685L55.8172 94.0469L57.2057 90.8997V90.622L56.8354 90.5294L56.928 82.291L58.9644 80.81L62.4819 72.5716L61.7414 68.9615L59.4273 64.6109L60.7232 59.705L54.2436 14.07L53.3179 13.0518L50.9112 7.59039L48.9673 5.55394L48.1342 0.18513V1.79278e-06L35.6378 1.75875L28.14 2.68441L7.96069 4.99856V4.99856Z"
     transform="translate(4.55957 4.01303)"
     stroke="white"
     stroke-width="8"
     stroke-linejoin="round"
     id="path2"
     style="fill:#ffffff;fill-opacity:1" />
</svg>
