<svg width="58" height="93" viewBox="0 0 58 93" fill="none" xmlns="http://www.w3.org/2000/svg">
<path d="M38.5073 6.29429e-05L24.3448 2.49935L21.105 3.14731L9.62681 4.99862L7.22012 6.9425L3.61005 8.60868L2.22158 8.51609L0.5554 7.68299L-1.31874e-05 7.1276L6.47961 52.7625L5.18368 57.6685L7.49783 62.0191L8.23834 65.6292L4.72088 73.8676L2.68438 75.3486L2.59184 83.587L2.96209 83.6796L3.33235 83.587L4.72082 80.9951H8.14573L12.3112 79.6066L17.4949 81.5505L18.0503 79.4215L21.0124 77.1999L25.4556 77.8479L27.8623 73.127L34.4345 73.6824L34.3419 70.998L40.1735 63.3151L39.2479 59.7975L43.3207 59.7049L48.3193 55.7246L47.1159 51.1889L47.301 51.0038L47.1159 49.4302L41.562 16.6619L39.0627 2.6844L38.785 1.20335L38.5073 4.73573e-06L38.5073 6.29429e-05Z" transform="translate(4.80322 4.9554)" stroke="white" stroke-width="8" stroke-linejoin="round"/>
</svg>
