<svg width="103" height="71" viewBox="0 0 103 71" fill="none" xmlns="http://www.w3.org/2000/svg">
<path d="M85.6234 17.6801L80.5323 14.9957L77.7553 11.2005L76.8296 5.73909L77.5702 3.23981L74.8858 -2.25378e-06L70.35 0.462832L24.8076 4.25803L6.57215 5.27626L1.94387 5.55395L-1.844e-05 5.64656L1.57361 15.9214L0.277688 20.8274L2.31412 23.882V24.53L2.96209 24.6226L5.92419 33.3238L8.79375 37.8595L8.9789 43.0432L12.1261 47.3938L11.5708 49.2451L14.4402 60.9084V61.1861L33.4162 60.6307L53.6882 58.8719L73.5898 56.3727L78.1256 60.353L78.3107 60.5381L79.1438 60.1679L78.4958 56.5578L81.9207 54.4288L83.3092 44.9871L81.9207 44.3391L82.7539 39.5257L86.9193 38.6926L91.5476 35.3602L93.5841 29.5286L93.6767 26.5665L89.974 23.049L88.8632 20.8274L85.3457 18.6058L85.5309 18.143L85.6235 17.6801L85.6234 17.6801Z" transform="translate(4.98975 4.86867)" stroke="white" stroke-width="8" stroke-linejoin="round"/>
</svg>
