<svg width="122" height="71" viewBox="0 0 122 71" fill="none" xmlns="http://www.w3.org/2000/svg">
<path d="M1.20333 61.834L0.925683 61.0934L0.37027 60.9083L1.45285e-05 62.1116L0.0926221 62.2043L1.11084 62.1116L1.20345 61.834H1.20333ZM64.5183 1.29592L64.3332 1.48106L65.5366 6.01676L60.538 9.99711L56.4652 10.0897L57.3908 13.6072L51.5592 21.2901L51.6518 23.9746L45.0796 23.4192L42.6728 28.14L38.2297 27.4921L35.2676 29.7137L34.7122 31.8427L29.5285 29.8988L25.363 31.2873H21.9381L20.5496 33.8791L20.1794 33.9717V34.2494L18.7909 37.3967L20.3645 39.6182L14.5329 43.0432L15.9214 47.1161L14.1626 49.1525L7.03505 47.2086L5.18371 51.5592L5.73912 52.1146L5.92422 52.4849L5.09116 60.0753L4.72085 60.2604L2.31416 61.7415L2.22155 62.0192L4.90595 61.6489L23.6042 59.1496L22.6786 55.447L25.8258 55.3544L63.5001 50.3558L89.974 45.9127L90.3442 45.635L90.9922 44.8945L97.9346 41.1918L103.303 34.1568L104.044 31.7501L107.561 28.9731L112.005 23.3266L112.653 22.401L112.375 22.3084H110.061L107.099 20.6422L101.822 14.2551L99.971 7.77552V7.59039L99.786 7.40527L95.8982 5.18367L94.1394 2.22157L90.6219 5.64651L88.4003 6.20192L85.6233 5.09112L83.2166 6.94243L78.2181 4.72087L76.9222 5.27625L72.2013 1.20335L69.7946 5.28987e-06L65.2589 0.555389L64.5183 1.29592V1.29592Z" transform="translate(4.58594 4.66331)" stroke="white" stroke-width="8" stroke-linejoin="round"/>
</svg>
