<svg width="100" height="85" viewBox="0 0 100 85" fill="none" xmlns="http://www.w3.org/2000/svg">
<path d="M62.3894 74.7006L61.186 74.9783L60.6306 75.5337L62.3894 74.7006V74.7006ZM66.2771 74.7006L65.6292 74.4229L65.4441 74.7006H66.2771ZM68.4987 73.9601H67.8508L67.4805 74.4229L68.4987 73.9601ZM67.3879 73.3121L67.2028 73.0345L67.1102 73.3121H67.3879V73.3121ZM74.7932 68.4062L74.5155 68.5913H74.9783L74.7932 68.4062ZM87.7524 62.9448L88.3078 62.2043L87.6598 63.0373L87.7524 62.9447V62.9448ZM89.6037 60.5381L89.4186 60.6307V60.7233L89.6037 60.5381V60.5381ZM42.0249 68.6839L43.4133 66.9251L39.6182 65.9069L37.952 67.2954L42.0249 68.6839V68.6839ZM80.4397 60.6306L80.0694 60.2604L79.9768 60.4455L80.4397 60.6306V60.6306ZM81.4579 58.9644L80.5322 58.6867L80.8099 59.6124L81.4579 58.9644V58.9644ZM89.0483 57.3908V57.1131V57.2057V57.3909V57.3908ZM90.8996 56.1875L90.807 56.0949L90.8996 56.28V56.1874V56.1875ZM90.1591 56.0023L89.974 55.9097L89.8814 56.1874L90.1591 56.0023L90.1591 56.0023ZM83.6795 55.7246L84.5126 55.447V55.1693L83.6795 55.7246V55.7246ZM84.1424 55.2618L84.6052 54.799L84.5126 54.7064L84.1423 55.2618L84.1424 55.2618ZM80.9025 51.8369L80.7174 52.022H80.81L80.9026 51.8369H80.9025ZM46.7457 1.44633e-05H46.5606L11.6633 3.23983L2.86955 3.88779L-3.11059e-06 4.16549L0.0926045 6.38709L1.94394 24.2523L4.9986 28.5103L5.0912 31.0096L8.05331 36.1933L10.46 43.7837L9.62694 48.0417L8.97898 58.5942L7.5905 62.0191H7.7756L8.05331 64.4258L6.47968 66.6474L17.9578 65.3515L26.9368 67.8508L33.3238 68.6839L36.5636 66.3697L34.8048 64.0556L40.729 62.2043L40.5439 64.2407L43.5986 63.5002L46.0979 67.3879L48.2268 66.6474L53.7808 70.4426L50.3559 71.646L58.224 73.9601H61.1861L62.9448 71.8311L66.74 69.7946L69.4244 73.6824L71.2758 70.1649L70.7204 64.611L75.7189 66.5548L76.2743 68.221L82.1985 68.9616L85.1606 71.3683L84.7904 73.3121L88.9559 69.4244L87.3822 67.3879L80.4398 65.6292L77.848 64.1481L77.7553 61.3712L80.6249 61.7414L82.8464 57.2057L79.9769 53.2254L78.4033 57.0206L74.7932 56.3726L77.2925 52.2997L75.6263 51.8369L71.5534 54.7064L65.7218 55.0767L64.0556 53.7808L66.74 49.0599L69.8872 48.9673L75.256 50.7261L79.1438 51.0963L77.0148 48.4119L72.9419 40.4513L74.0527 36.0081L42.1175 39.5256L43.3209 38.3222L42.0249 34.9899L43.9688 32.1203L45.0796 24.9002L52.1146 12.8666L48.6897 8.7012L48.8748 5.64652L46.7458 0.647947V1.44633e-05H46.7457Z" transform="translate(4.41992 4.84723)" stroke="white" stroke-width="8" stroke-linejoin="round"/>
</svg>
