<svg width="64" height="102" viewBox="0 0 64 102" fill="none" xmlns="http://www.w3.org/2000/svg">
<path d="M21.8456 92.103H21.7529L21.938 92.1956L21.8454 92.103H21.8456ZM28.6954 72.3865L27.9549 71.2757V71.8311L28.6954 72.3865ZM27.3995 71.3683V70.4426L27.3069 69.8872L27.3995 71.3683ZM30.7319 67.4805L30.5467 67.388L30.6393 67.6657L30.7319 67.4805L30.7319 67.4805ZM39.9884 62.8522L39.8033 61.4637L39.433 62.1117L39.9884 62.8522ZM37.6743 63.4076L37.7669 62.3894L36.6561 62.5745L37.6743 63.4076V63.4076ZM41.0992 60.353H40.7289V60.5381L41.0992 60.353ZM36.4709 61.7414L35.6379 61.5563L35.5453 62.3894L36.4709 61.7414V61.7414ZM41.1918 58.8719L42.0249 59.5199L41.7472 58.7793L41.1918 58.8719V58.8719ZM38.6925 58.9645L37.8594 60.5381L38.9702 59.9827L38.6925 58.9645ZM34.7122 59.057L34.3419 59.6124L34.6196 60.4455L34.7122 59.057V59.057ZM40.1736 56.0024L40.081 55.2618L39.8033 55.7247L40.1735 56.0024H40.1736ZM39.7107 56.3726L38.8776 55.6321V56.2801L39.7107 56.3726V56.3726ZM34.527 58.5016L34.3419 57.4834L33.9717 58.3165L34.527 58.5016ZM43.3208 55.2618L41.9323 57.2983L41.8397 55.8172L43.3208 55.2618V55.2618ZM50.0781 49.0599L49.4302 48.1343L49.0599 48.3194L50.0781 49.0599ZM52.5774 44.8945L52.022 44.6168L51.9294 44.8945H52.5774V44.8945ZM53.7807 37.6743H52.9476L53.8733 37.952L53.7807 37.6743H53.7807ZM55.1692 38.6L54.8915 36.9338L54.151 36.8412L55.1692 38.6V38.6ZM53.6882 37.1189L53.503 35.3602L52.8551 36.5635L53.6882 37.1189ZM1.86263e-07 51.6518L13.422 83.1241L13.6071 83.7721L19.4388 90.8997V90.8071L20.3645 90.5294L20.5496 85.2531L22.0307 83.4018L22.9563 78.4958L22.1233 77.6627L23.6968 72.8493L29.0657 70.35L32.5831 66.092L33.8791 58.6867L39.5256 58.3165L38.7851 54.5213L45.8201 51.8369L46.2829 47.6714L47.9491 48.0417L52.5774 44.2465L54.6138 39.3405L49.893 34.6196L44.8944 33.6014L43.0431 29.8062V27.5846L39.9884 28.5103L36.5635 27.3069V23.5117L27.3069 3.5175L20.5496 -7.05122e-07L13.0518 6.29447L11.0154 5.92421L9.25657 2.68441L6.84988 3.61007L3.42497 20.6422L4.62828 26.1961L5.6465 37.4892L2.9621 46.1903L4.81344 47.5788L2.59185 51.8369L0.185157 51.4666L1.86263e-07 51.6517V51.6518Z" transform="translate(4.81836 4.81946)" stroke="white" stroke-width="8" stroke-linejoin="round"/>
</svg>
