<svg width="79" height="42" viewBox="0 0 79 42" fill="none" xmlns="http://www.w3.org/2000/svg">
<path d="M69.5169 29.1583L70.1649 24.1597L69.6095 27.8624L69.2392 29.436L69.1467 29.6211L69.4243 29.5285L69.5169 29.1582V29.1583ZM69.9798 20.5497L69.7946 20.6423L69.9798 21.1977V22.3084V20.5497V20.5497ZM-5.1036e-06 14.8106L2.12904 24.53L6.38707 18.5132L8.51605 18.0504L12.589 15.1808L15.3659 14.5329V12.6816L18.6057 10.1823L24.1597 10.8303L26.8441 15.4585L27.1218 15.5511L31.3798 16.6619L34.4345 18.8835L37.3966 20.1794L37.6743 20.4571L38.0445 19.7166L39.6182 19.624L40.9141 20.3645L39.7107 22.5861V22.6787L37.952 28.0475L43.6911 31.7501L49.4302 32.0279L53.2254 33.7866L51.6518 29.3434L46.7458 27.6772L45.5424 23.8821L48.597 27.955L51.0963 28.3252L48.8747 26.1036L47.116 19.5315L47.5788 15.7363L45.6349 11.5708L47.6714 9.90462L49.1525 4.53579L48.597 12.4965L50.1707 15.1809L51.6518 12.0336L52.4848 17.2173L50.9112 21.0125L55.4469 22.6787L51.5591 23.9746L53.5956 27.7698L56.928 28.8806L58.7793 25.6408L58.5942 30.1765L61.7414 30.0839L63.7779 32.3981H63.8705L64.5184 31.565L66.3697 30.7319L67.5731 30.2691L67.4805 30.0839L69.8872 22.9564V22.6787L69.4244 20.8273V20.7347L60.6306 23.3266L52.9477 1.38849L52.5774 1.83003e-06L51.0038 0.462836L44.4316 2.49929L8.23835 12.589L1.66617 14.3477L-5.1036e-06 14.8105V14.8106Z" transform="translate(4.5459 4.08298)" stroke="white" stroke-width="8" stroke-linejoin="round"/>
</svg>
