<svg width="60" height="40" viewBox="0 0 60 40" fill="none" xmlns="http://www.w3.org/2000/svg">
<path d="M42.3951 30.0839L42.1175 29.8988V30.1765L42.3951 30.0839V30.0839ZM39.6182 27.5846L40.2661 27.3069V26.9367L39.6182 27.5846ZM51.0963 20.3645L51.0037 19.0686L50.8186 18.328L51.0963 20.3645H51.0963ZM10.645 10.8302L9.99707 11.1079L4.72083 12.6815L2.86955 13.3295L0.740504 13.9774L-7.09662e-06 14.2551V14.5328L0.277699 19.3463L0.555406 23.7894L0.833112 27.8623L1.29592 28.14L2.9621 27.6772L10.4599 25.4556L10.645 25.9184L23.9745 20.8273L24.0671 21.0124L25.2705 20.5496L29.5285 18.8834L33.6014 23.7894L34.1568 23.3266L34.4345 21.9381L34.3419 24.1597H35.2675L35.5452 25.2705L36.3784 26.8441L40.7289 21.5678L44.339 22.7712L45.1721 20.9199L51.0963 17.7726L48.597 12.8667L49.245 16.0139L46.1903 18.328L42.7654 18.6057L35.9156 11.293L32.8608 6.66475L35.9156 3.42494L32.7683 3.2398L31.4724 0.185136L31.3798 5.49476e-07L26.1035 5.73907L14.4403 9.62685L10.645 10.8302V10.8302Z" transform="translate(4.34033 4.88458)" stroke="white" stroke-width="8" stroke-linejoin="round"/>
</svg>
