<svg width="129" height="128" viewBox="0 0 129 128" fill="none" xmlns="http://www.w3.org/2000/svg">
<path d="M61.8339 55.5395L61.3711 54.799L61.2785 55.7246L61.8339 55.5395V55.5395ZM63.315 53.8733L62.2042 52.3923L62.0191 53.0402L63.315 53.8733ZM64.2407 47.2086L63.315 46.3755V46.5606L64.2407 47.2086ZM61.9265 119.688L73.4047 117.836L76.6445 117.188L90.807 114.689L91.0847 115.892L92.0104 115.615L98.1198 114.319L103.951 112.93L109.876 111.449L109.783 111.172L112.838 105.155L112.56 100.156L115.985 91.5476L118.669 93.1212L119.688 91.1773L119.41 83.7721L116.911 79.1438L113.208 69.3318L109.968 65.7217L108.302 65.2589L102.285 69.4244L102.933 70.2574L99.7859 76.1817L96.7312 75.6263L95.8056 69.4244L97.1015 68.9615L99.7859 62.7596L100.064 51.8369L95.8982 42.5803L86.6416 41.0067L85.7159 39.6182L77.1073 37.1189L73.2195 41.9323L73.5898 46.0978L70.6277 49.8004L71.2757 55.5395L68.4061 57.5759V50.3558L65.8143 55.8172L62.7596 60.6306L60.7231 62.2042L61.7413 67.2953L60.4454 72.5716L61.186 79.1438L60.2603 82.3836L66.925 95.1577L67.7582 100.064L66.925 109.135L62.4819 119.317L61.9265 119.688V119.688ZM81.7356 36.2858L79.3289 36.4709L80.8099 37.5817L81.7356 36.2858ZM67.6656 38.6925H66.9251L67.7582 39.0628L67.6655 38.6925H67.6656ZM83.8646 26.9366L82.939 25.4556L82.5687 25.5482L83.8646 26.9367V26.9366ZM1.80861e-05 33.694L2.96212 35.3601L18.1429 39.9884L25.1779 41.8398L32.0278 42.3026L37.0264 46.3755V52.6699L41.4695 57.1131V57.0205L45.0795 46.5606L49.4301 43.5059L52.7625 39.8033L53.3179 43.1356L56.7429 37.8594L64.9812 34.7121L65.6292 33.4162L73.9601 34.4344L77.1999 36.1006L78.7735 32.0277L80.2545 32.9534L86.7342 31.9352L85.1605 29.3433L82.291 27.6771L82.8464 21.6604L77.1999 24.8076L72.0162 24.1596L70.35 20.1793L70.9054 18.8834L63.8704 22.2158L59.3347 22.4935L51.1889 27.492L50.2632 29.3433L45.2647 28.14L42.1174 29.5285L35.823 24.0671L21.8455 19.809L21.5678 18.1429L12.5889 26.7515L7.49786 28.0474L0.277724 33.5088L1.80861e-05 33.6939V33.694ZM32.7683 12.6815L21.9381 18.0503L25.5482 21.5678L26.9367 18.0503L30.6393 13.5146L32.7683 12.6815V12.6815ZM20.6422 4.7497e-08L13.2369 5.09112L12.8667 7.5904L18.6983 3.33237L20.6422 4.7497e-08V4.7497e-08Z" transform="translate(4.50391 4.26642)" stroke="white" stroke-width="8" stroke-linejoin="round"/>
</svg>
