<svg width="108" height="124" viewBox="0 0 108 124" fill="none" xmlns="http://www.w3.org/2000/svg">
<path d="M3.73271e-05 8.60862L1.85137 15.1808L5.73909 38.8776L7.59043 48.3194L8.14584 56.6503L10.2748 61.6488L10.7377 65.9068L11.1079 67.2954L11.0153 67.573L7.31272 73.6824L9.71941 77.7553L14.3477 110.338L14.5329 114.596L19.1611 114.319L37.3966 113.301L82.939 109.505L87.4747 109.043V108.58L86.1788 101.452L80.5323 98.5826L76.0891 93.9543L69.0541 89.6963L66.8325 89.5111L63.4076 86.9193L64.3332 74.1452L61.0935 71.1831L62.2042 65.9994L68.1284 60.6306L67.1102 49.5227L69.2392 47.116L76.4593 39.5256L84.6977 28.9731L87.8449 26.7515L93.3989 24.0671L99.2306 19.7165L95.3428 20.457L93.0286 18.6983L84.1423 19.9016L82.7539 18.2355L74.7932 21.4753L68.4061 18.7909L66.6474 16.6618L61.5563 17.0321L58.1314 15.2734L59.2421 13.9774L54.8915 12.589H51.0038L44.8019 15.2734L43.5985 13.422L33.7865 12.0336L30.4541 3.70263L30.0839 1.20335L25.8259 1.28428e-06L26.1961 7.12757L14.9031 7.96066L0.925648 8.51605L-2.08801e-05 8.60861L3.73271e-05 8.60862Z" transform="translate(4.40088 4.82616)" stroke="white" stroke-width="8" stroke-linejoin="round"/>
</svg>
