<svg width="115" height="96" viewBox="0 0 115 96" fill="none" xmlns="http://www.w3.org/2000/svg">
<path d="M63.7779 3.98033L59.2422 -7.08265e-06L39.3405 2.49928L19.0686 4.25804L0.0925784 4.81343L2.9057e-05 5.36883L2.31411 9.81199L4.44316 11.293L6.94246 15.7362L7.31271 16.1065L8.23832 16.847L10.4599 18.4206L12.8667 18.328L14.1626 20.6422L10.9228 24.6225L14.2551 27.5846L14.6254 29.4359L18.7909 31.8426L21.105 70.998L21.1976 73.4047L21.3827 75.8114L21.4753 78.2181L21.6605 80.7174L21.7531 83.1241L26.1037 82.8464L55.9099 80.4397L91.1774 77.0147L92.9362 80.6248L88.8633 87.1044L98.8604 85.6234H98.953V84.8828L99.1381 80.6248L100.989 78.3106L100.434 75.7188L100.341 75.6262L100.249 75.5336L100.619 74.3303L101.175 74.5154L101.452 75.2559L101.36 75.5336V75.6262V76.3668L101.73 76.4593L102.47 75.5337V75.4411L102.563 75.1634L104.97 73.6823L105.34 73.4972L106.173 65.9068L105.988 65.5365L105.71 65.4439L99.1381 60.0751L100.156 58.1312L98.305 52.855L94.9726 50.2631L88.6781 47.4862L84.6978 44.2464L85.1607 37.5816L86.364 31.3797L79.6993 31.75L77.6628 29.621L76.7372 25.3629L66.1847 16.4766L63.2226 8.23827L63.9631 4.16537L63.7779 3.98024V3.98033Z" transform="translate(4.3374 4.24124)" stroke="white" stroke-width="8" stroke-linejoin="round"/>
</svg>
