<svg width="64" height="104" viewBox="0 0 64 104" fill="none" xmlns="http://www.w3.org/2000/svg">
<path d="M46.8383 93.399L46.3755 93.4916V93.5842L46.8383 93.399V93.399ZM55.4469 92.2882H54.1509L55.3543 92.3808L55.4469 92.2882H55.4469ZM44.7092 93.2138L44.339 93.5841L44.4316 93.6767L44.7093 93.2139L44.7092 93.2138ZM53.4104 92.4733H49.8929L53.2253 92.5659L53.4104 92.4733ZM14.8105 4.25806V4.35067L10.9227 10.8303L11.293 15.8288L6.01677 21.6605L7.40524 23.3267L3.88772 38.1372L5.5539 41.2844L4.62823 41.9324L4.72084 43.9688V44.6168L6.84988 49.6154L6.66473 52.67L10.0897 56.8355L3.05466 68.869L1.94389 76.0892L7.78579e-06 78.9587L1.29593 82.2911L0.0925572 83.4944L32.0278 79.9769L30.917 84.4201L34.9899 92.3808L37.1189 95.0652V94.9726L40.5438 91.0848L47.7639 89.5112L54.4287 90.2517L55.4469 88.9558V88.8632L50.726 60.3529L50.5409 39.5256L49.9855 1.57361L48.6896 0.740545L48.3193 3.98603e-06H48.1342L43.5059 0.647966L35.3602 1.75876L16.847 4.0729L14.8105 4.25803L14.8105 4.25806Z" transform="translate(4.44482 4.87848)" stroke="white" stroke-width="8" stroke-linejoin="round"/>
</svg>
