<svg width="164" height="106" viewBox="0 0 164 106" fill="none" xmlns="http://www.w3.org/2000/svg">
<path d="M153.196 19.1611L122.557 17.1247L100.249 14.9957L78.033 12.4038L64.2407 10.5525L42.21 7.12757L31.1947 5.27625L6.57217 0.555393L3.98032 -1.08032e-06L-4.65657e-07 18.8834L1.75876 22.3084L3.14723 27.5846L2.31414 28.3251L4.0729 33.1386L6.47962 35.175L13.3295 46.6532L13.9774 48.5971L16.7544 48.4119L13.5146 63.5927L12.2187 63.963L10.4599 69.0541L19.624 69.7021L20.3645 73.9601L25.5482 86.6416L26.4738 87.3821L30.0839 94.7874L31.0095 94.0469L38.6925 93.9543L48.4119 94.9725L50.8186 91.8253L53.6882 97.0089L54.2436 97.2866L54.3362 96.7313L55.6321 87.6598L87.2896 91.5476L112.56 93.9543L125.89 95.0651L149.679 96.4535L150.882 96.5462H151.16L151.253 95.2502L151.53 88.8632L151.901 80.4397L151.993 78.3107L152.178 74.608L153.659 45.5424L154.863 22.9563L154.955 19.2537L153.197 19.1611L153.196 19.1611Z" transform="translate(4.61865 4.44055)" stroke="white" stroke-width="8" stroke-linejoin="round"/>
</svg>
