<svg width="138" height="69" viewBox="0 0 138 69" fill="none" xmlns="http://www.w3.org/2000/svg">
<path d="M107.747 9.44178L104.877 6.57224L94.7875 3.61014L91.5477 3.51754L86.6417 4.90602L80.81 1.20339L62.5745 1.38852L36.0082 1.11082L4.62838 0.0926058L1.85138 -1.82072e-06L1.7588 2.4067L1.38854 9.62684L0.555423 26.5664L0.0925892 36.2858L1.07381e-05 38.6925L2.22157 38.7851L24.8076 39.6182L29.2508 39.8033L28.8805 57.9462L28.7879 59.1496L32.3054 59.2422L44.8018 59.4273H75.9039L91.5476 59.0571L125.704 57.7611L128.852 57.576L128.481 57.2057L125.982 52.7626L123.853 51.2815L121.539 46.8384L121.631 46.283V46.0053L118.762 34.342L119.317 32.4907L116.17 28.1401L115.985 22.9564L113.115 18.4207L110.153 9.71947L109.505 9.62688L107.747 9.44174L107.747 9.44178Z" transform="translate(4.79834 4.77168)" stroke="white" stroke-width="8" stroke-linejoin="round"/>
</svg>
