<svg width="106" height="159" viewBox="0 0 106 159" fill="none" xmlns="http://www.w3.org/2000/svg">
<path d="M81.9208 110.616L91.5476 50.7261L96.4536 20.7347L97.009 17.7726L94.3246 17.3098L83.8646 15.3659L57.6685 10.1822L55.0767 9.62685L52.4848 9.07145L39.433 6.20191L16.0139 0.647954L13.422 5.96507e-06L12.5889 3.51749L5.71362e-06 56.928L10.9228 72.6642L22.2158 88.3078L42.21 117.003L56.5577 137.183L63.963 147.087L66.3697 150.327V150.049L67.8507 146.902L67.9434 132.184L72.0163 128.759L75.2561 131.629L77.3851 131.721L81.458 113.763V113.578L81.9208 110.616L81.9208 110.616Z" transform="translate(4.97852 4.51666)" stroke="white" stroke-width="8" stroke-linejoin="round"/>
</svg>
