<svg width="30" height="56" viewBox="0 0 30 56" fill="none" xmlns="http://www.w3.org/2000/svg">
<path d="M19.7165 35.0824L19.2537 33.9716V35.0824H19.7165ZM20.6422 31.6575L20.9199 28.8805L20.3645 31.2872L20.6422 31.6575V31.6575ZM16.847 3.23981L7.12756 0.833087L5.46138 0.370267L3.88775 -3.05471e-06L-1.96507e-05 8.60862L1.66616 10.6451L1.57361 16.847L3.33234 17.1247L6.94241 26.5664L6.75725 26.8441L2.22157 33.5088L2.68438 38.5999L13.6071 42.3026L13.6997 46.5606L16.199 43.0431L16.5693 37.952L19.1611 36.1932L18.1429 32.398L20.0868 27.8623V17.9578L19.4388 14.718L15.0883 14.8106L16.199 10.3674L16.847 3.23984V3.23981Z" transform="translate(4.34473 4.63031)" stroke="white" stroke-width="8" stroke-linejoin="round"/>
</svg>
