<svg width="124" height="96" viewBox="0 0 124 96" fill="none" xmlns="http://www.w3.org/2000/svg">
<path d="M87.1045 84.8828L85.716 86.8267L85.3457 87.3821L87.1045 84.8828ZM99.8786 80.3471L104.507 76.2742V76.0891L99.8786 80.3471ZM87.7524 83.2166V80.0694L87.4747 81.7356L87.7524 83.2166ZM109.228 68.4061L108.117 68.1284L107.932 68.9615L109.228 68.4061ZM111.727 66.7399L111.634 67.6656L111.819 67.1102L111.727 66.7399H111.727ZM109.135 66.8325L102.933 72.5716L93.3989 76.6445L90.8996 78.7735L90.7145 80.81L88.1227 82.939L88.493 85.7159L92.4733 84.1423L98.3049 79.4215L104.785 75.9965L114.597 66.74L107.654 72.0162L105.433 72.9419L109.135 66.8325V66.8325ZM112.005 62.9447L112.375 62.3894L111.264 63.6853L112.005 62.9447ZM7.96071 59.5198L6.47963 59.3347L7.5904 60.8157L7.96071 59.5198ZM38.6925 31.1947L38.8777 30.1764L38.1372 31.1021L38.6925 31.1947V31.1947ZM39.1554 24.5299L38.7851 24.7151L38.3223 25.7333L39.1554 24.5299ZM1.16601e-05 77.1073L0.647974 79.8843L5.55396 81.0876L33.694 73.4047L62.0191 64.8886L67.2028 68.869L68.221 71.1831L74.2378 73.7749L74.4229 74.1452L75.9966 74.5155L77.6628 74.9783L87.3822 77.385L87.197 76.9222L88.0301 80.7174L89.8814 80.2546L90.8996 76.0891V75.9965L89.2335 74.4229L91.6402 71.4608L90.5294 70.0723L87.0119 56.4651L86.8268 55.5394L86.364 55.2618L86.0863 51.1889L85.8086 46.7457L85.5308 41.9323V41.6546L85.3457 41.7472L80.7174 26.5664L75.8114 18.8834L74.4229 9.71942L70.2575 -6.1979e-07L69.7021 0.277698L50.3558 6.7573L46.4681 10.9228L42.1175 19.2537L42.3026 21.105L36.5635 29.8062L40.081 31.0095L41.0993 37.5817L37.0263 42.9505L24.8077 50.3558L22.4935 49.4301L13.4221 50.7261L4.99861 55.8172L5.46142 58.5016L8.42352 61.0934L6.75734 69.2392L0.0926193 77.0147L1.16601e-05 77.1074V77.1073Z" transform="translate(4.80957 4.48514)" stroke="white" stroke-width="8" stroke-linejoin="round"/>
</svg>
