<svg width="143" height="71" viewBox="0 0 143 71" fill="none" xmlns="http://www.w3.org/2000/svg">
<path d="M103.581 58.7793L102.563 59.7975L102.748 59.9827L103.581 58.7793ZM104.322 53.4105L103.859 54.151L104.044 54.8915L104.322 53.4105ZM109.876 44.8019L108.487 45.7275L107.747 46.8383L109.876 44.8019V44.8019ZM121.817 38.9702L121.261 38.5999L120.058 38.5073L121.817 38.9702V38.9702ZM119.317 38.4148H118.484L117.096 39.1553L119.317 38.4148ZM122.187 39.433L124.871 32.7683L123.02 35.5453L122.187 39.433ZM126.167 30.6393L127.371 28.8805H126.723L126.167 30.6393ZM133.943 23.4191L131.906 13.1443L133.665 18.5132L133.943 23.4191ZM122.65 8.88474e-06L122.465 0.0925874L122.187 0.185195H122.279L127.371 8.79383L131.351 12.7742L122.65 6.70919e-05L122.65 8.88474e-06ZM120.983 0.555392L120.243 0.74052L120.428 0.833128H122.002L121.817 0.277744L121.539 0.370323H121.261V0.555451L121.076 0.648058L120.983 0.555451V0.555392ZM35.3601 21.6604L34.8973 23.0489L34.9899 27.0292L33.9716 26.9366L31.5649 31.8426L28.8805 32.1203L23.882 37.0263L21.6604 36.1932L18.7909 40.4512L11.2005 47.3011L7.49785 48.2268L3.61007 51.8368L3.42491 54.2435L5.30849e-06 56.0948L0.0926129 60.1677V61.0934L1.29593 60.8157L14.2552 58.1313L17.7727 57.3908L18.976 57.1131H19.2537L49.9856 47.3936L55.1693 50.0781L65.6292 50.4483L73.3122 48.9673L93.9543 62.019L94.3246 61.7414L103.859 57.8536L103.951 52.7625L107.376 46.5606L111.079 43.0431L118.762 37.9519L119.78 36.1006L121.817 37.0263L122.742 30.9169L121.632 33.046L117.744 34.3419L114.041 34.4345L118.577 31.1021L117.188 29.6211L118.762 26.2887L110.061 24.9002L109.691 24.4374L117.096 23.0489L119.503 24.2523L122.557 23.9745L125.056 22.1232L126.908 18.5132L128.574 18.0503L128.296 12.9592L126.167 10.9228L124.038 12.8666L124.501 17.7726L122.927 11.7558L121.724 11.4782L112.56 15.2734L116.633 11.293L116.818 9.71941L121.076 8.70119L122.28 5.55396L125.149 7.22014L122.094 2.68441L119.965 0.833099L82.939 11.3856L59.3348 17.4024L35.4528 21.8455L35.3602 21.6604H35.3601Z" transform="translate(4.11719 4.06569)" stroke="white" stroke-width="8" stroke-linejoin="round"/>
</svg>
