<svg width="74" height="84" viewBox="0 0 74 84" fill="none" xmlns="http://www.w3.org/2000/svg">
<path d="M64.4258 23.4192L62.1117 13.422L61.6488 11.3856L59.057 -6.305e-06L55.7246 2.12901L48.597 7.5904L43.9687 13.2369L40.3587 13.7923L33.694 17.5875L29.9913 15.3659L18.7909 14.07L12.8667 15.5511L7.03502 16.9395L0.925649 18.2355L-1.92968e-05 18.5132L0.277687 19.9942L2.77699 33.9716L8.33094 66.7399L8.51604 68.3136L9.25661 67.573L13.7923 67.0177L16.199 68.221L20.9199 72.2939L22.2158 71.7385L27.2143 73.9601L29.6211 72.1088L32.398 73.2196L34.6196 72.6642L38.1371 69.2392L39.8959 72.2013L43.7836 74.4229L43.9687 74.608L47.9491 72.6642L49.3376 69.6095L48.2268 66.4623L51.374 61.6488L53.6882 61.2786L53.4105 57.2057L57.2057 52.022L57.8537 52.7625L61.2786 50.1707L64.2407 45.7275L64.7035 25.4556L64.8886 25.363L64.4258 23.4191V23.4192Z" transform="translate(4.58838 4.64565)" stroke="white" stroke-width="8" stroke-linejoin="round"/>
</svg>
