<svg width="145" height="74" viewBox="0 0 145 74" fill="none" xmlns="http://www.w3.org/2000/svg">
<path d="M130.796 7.3127L130.611 4.81343L130.518 2.40671L130.333 -1.27311e-05L126.815 0.277694L90.9923 1.94387L40.7291 2.68441L19.2538 2.40671L15.2735 2.3141H13.7925L7.9608 2.12897L6.10949 2.03636L2.22172 1.94379L0.37041 1.85118L0.277802 4.25787L0.185195 6.66459L0.092587 9.07131L8.5029e-06 11.5706H0.555392L22.9563 12.126L46.6532 12.4037L46.9308 44.0612L48.5971 49.6151L52.2997 53.1326L56.28 53.3178L57.1131 51.6516L62.5745 56.6501L69.7021 57.3907L70.998 58.8717L73.5898 57.6684L80.0694 60.723V62.4818L82.4762 62.3892L84.9754 60.2602L89.6037 63.2223L93.9543 64.7959L96.9164 60.723L106.358 65.1661L109.876 62.2966L112.745 61.1858L115.059 61.7412L123.761 59.2419L128.389 61.1858L132.554 63.8702L136.164 64.5182H136.257L136.164 60.3527L135.146 35.1748L135.053 31.0094L131.443 12.3111L130.888 9.71925L130.795 7.31252L130.796 7.3127Z" transform="translate(4.20215 4.64594)" stroke="white" stroke-width="8" stroke-linejoin="round"/>
</svg>
