<svg width="131" height="112" viewBox="0 0 131 112" fill="none" xmlns="http://www.w3.org/2000/svg">
<path d="M1.2034 76.8296L15.9214 81.2728L55.5395 92.1955L59.1496 93.1212L61.7414 93.7692L85.1606 99.3231L98.2124 102.193L100.804 102.748L101.174 100.804L109.968 64.3332L107.469 58.409L107.747 56.0949L117.373 43.5059L121.909 32.1203L118.762 28.6954L118.669 26.9367V26.8441L116.911 26.4738L90.8996 20.5496L89.5111 21.1975L84.42 20.3644L74.1452 21.4752L67.8507 20.6421L61.186 20.5495L60.6306 18.8834L46.5606 17.5874L41.562 14.903L40.9141 13.1443L41.4695 6.20184L38.1371 2.59178L37.8594 2.68434L37.2115 3.14717L32.5832 0.740455L29.8062 1.57355L27.9549 0.647891L26.011 8.60855L24.7151 10.8301L18.976 24.8076L17.3098 32.4905L16.2916 32.5831L10.9228 45.3572L7.3127 50.8186L6.01678 51.7442L2.6844 58.2239L2.03644 65.0737L6.9057e-06 71.1831L1.20335 76.737V76.8296L1.2034 76.8296ZM35.0825 0.833091L34.8048 1.37555e-06L34.7122 0.647963L35.0824 0.833091H35.0825Z" transform="translate(4.25098 4.39545)" stroke="white" stroke-width="8" stroke-linejoin="round"/>
</svg>
