<svg width="96" height="72" viewBox="0 0 96 72" fill="none" xmlns="http://www.w3.org/2000/svg">
<path d="M83.4018 8.88632L77.385 6.29448L76.3668 3.98034L71.1831 2.5844e-06L42.858 8.51606L14.718 16.199L9.81196 14.9957L9.164 12.2187L7.59043 13.4221L5.09113 15.1808L0.555393 19.8091L-1.97439e-05 20.2719L2.59183 31.6575L3.05469 33.694L5.36883 43.6911L5.83164 45.6349L9.90457 63.2225L23.0489 59.9827L24.9002 59.5198L26.5664 59.057L33.1385 57.2982L69.3318 47.2086L75.904 45.1721L77.4776 44.7093L78.2181 42.858L79.8843 41.5621H82.1059L82.3836 40.729L85.9936 36.6561L86.3639 36.0081L86.6416 35.823L83.0315 26.3813L81.2728 26.1036L81.3654 19.9017L79.6992 17.8652L83.587 9.25659L83.4018 8.88632V8.88632Z" transform="translate(4.64551 4.37373)" stroke="white" stroke-width="8" stroke-linejoin="round"/>
</svg>
