<svg width="21" height="25" viewBox="0 0 21 25" fill="none" xmlns="http://www.w3.org/2000/svg">
<path d="M8.97889 10.2748L8.88629 8.33092L8.60858 9.07145L8.97883 10.2748H8.97889ZM10.8302 8.79374L9.62686 6.47961L9.53425 8.88632L10.8302 8.79371V8.79374ZM10.2748 5.92422L10.9228 7.5904L11.7558 9.07145L12.3113 7.96067L11.4781 6.38704L11.2004 5.27625H10.2748V5.92422V5.92422ZM-2.69709e-05 2.12901L0.370287 3.14723L3.23978 11.2005L3.7952 13.1443L3.8878 15.3659L4.0729 15.0882L8.51609 11.5707L7.68297 5.27625L9.53431 4.90598L5.46143 -6.31431e-06L1.20341 1.66617L3.12363e-05 2.12901H-2.69709e-05Z" transform="translate(4.40723 4.76801)" stroke="white" stroke-width="8" stroke-linejoin="round"/>
</svg>
