<svg width="117" height="76" viewBox="0 0 117 76" fill="none" xmlns="http://www.w3.org/2000/svg">
<path d="M100.712 0.555389L85.0682 1.01822L47.3938 1.29593L6.57229 0.185134L2.96225 5.80675e-06L2.86965 2.12902L2.49939 10.5525L2.22168 16.9396L2.12908 18.2355H1.85137L1.75879 20.6422L0.833123 40.081L0.0926113 54.5213L3.70663e-06 57.0205L2.77698 57.1132L34.1568 58.1314L60.7232 58.4091L78.9587 58.224L84.7903 61.9266L89.6963 60.5381L92.9361 60.6307L103.026 63.5928L105.895 66.4623L107.654 66.6475V65.9995L105.618 62.9448L106.914 58.0389L105.34 47.764L107.284 47.6714L107.099 43.4134L102.47 10.8302L100.064 6.75735L103.766 0.648012L103.859 0.370305L100.712 0.555433L100.712 0.555389Z" transform="translate(4.64941 4.75124)" stroke="white" stroke-width="8" stroke-linejoin="round"/>
</svg>
