<svg width="87" height="68" viewBox="0 0 87 68" fill="none" xmlns="http://www.w3.org/2000/svg">
<path d="M2.59183 9.71941L-1.87753e-05 14.8105L0.462845 16.6618L8.88629 20.1794L13.2369 25.7333L31.1021 40.729L35.2676 42.6728L42.858 53.503L48.4119 58.6867L49.3376 54.4287L47.8565 50.3558L51.8368 53.3179L54.0584 51.5592L50.2632 48.4119L54.8915 48.1342L62.1117 42.0249L61.2786 40.4512L65.7217 37.0263L65.2589 35.3601L68.4987 33.3237L68.6838 28.6028L73.7749 19.1611L77.1999 14.8105L77.5702 14.6254L56.928 1.57361L49.245 3.05466L38.7851 2.68441L33.6014 8.48428e-06L2.86954 9.71941H2.59183V9.71941Z" transform="translate(4.50098 4.45938)" stroke="white" stroke-width="8" stroke-linejoin="round"/>
</svg>
