<svg width="138" height="63" viewBox="0 0 138 63" fill="none" xmlns="http://www.w3.org/2000/svg">
<path d="M98.49 6.84972L72.0161 11.2929L34.3419 16.2914L31.1947 16.3841L32.1203 20.0867L13.422 22.5859L10.7376 22.9562V23.0488L9.99706 23.9745L9.6268 23.8819V23.1414V23.0487L8.60858 23.1414L8.70119 23.234L9.2566 25.8258L7.40527 28.1399L7.22011 32.398V33.1385V33.2311L4.44316 38.5999L4.99858 42.3951L2.40673 46.468L3.3324 50.1706L-2.32084e-05 53.2253L0.185134 53.4104L2.22157 53.2253L20.7348 50.9112L28.8805 49.8004L33.5089 49.1524H33.694L33.6013 48.9673L49.1524 46.8383L56.5577 45.9126L71.3682 43.5059L74.1452 43.0431L75.8114 42.8579L83.6795 41.3769L85.6234 41.0066L92.8435 39.6181L94.1394 39.433V38.5073L94.0468 34.4344L97.4717 32.5831L97.6569 30.1764L101.545 26.5664L105.247 25.6407L112.838 18.7908L115.707 14.5328L117.929 15.3659L122.927 10.4599L125.612 10.1822L128.018 5.27621L129.037 5.36882L128.944 1.38849L129.407 -9.59254e-06L127.926 0.277697L122.65 1.75875L116.355 3.05467L100.526 6.29448L98.8602 6.57216L98.4899 6.84987L98.49 6.84972Z" transform="translate(4.07031 4.7262)" stroke="white" stroke-width="8" stroke-linejoin="round"/>
</svg>
