<svg width="227" height="213" viewBox="0 0 227 213" fill="none" xmlns="http://www.w3.org/2000/svg">
<path d="M160.139 199.942L155.696 183.188V186.335L160.139 199.942V199.942ZM159.121 170.506L155.973 176.43L155.603 178.374L159.121 170.506V170.506ZM161.62 166.156L164.582 162.268L162.453 163.564L161.62 166.156V166.156ZM172.08 156.714L165.137 160.324L167.081 159.954L172.08 156.714ZM173.006 155.418L174.949 153.844L174.209 154.03L173.006 155.418V155.418ZM63.2225 0.0926017L62.5745 -5.94179e-06L59.4273 86.8267L41.0992 85.9936L11.7559 84.3274L1.34668e-05 83.4944L2.31416 88.0301L2.40673 88.1227L12.4039 98.1198L18.1429 104.877L25.7333 110.524L31.1022 120.336L33.1386 130.61L37.4892 133.48L40.9141 137.275L45.8201 139.034L52.9477 143.57L56.1875 144.773L60.6306 140.33L62.0191 135.609L64.3333 131.073L71.5534 128.204L74.3304 129.592L82.3836 130.24L89.6963 134.776L94.6949 135.702L93.3064 138.293L96.1759 140.145L98.8603 143.384L99.4157 146.809L101.174 149.124L105.247 158.936L109.32 162.36L112.467 167.544L116.448 171.617L118.207 172.172L119.688 182.725L124.038 185.132L124.223 188.464L125.334 188.186L132.925 197.443L136.72 198.276L141.533 201.146H148.938L154.307 204.108L160.694 202.719L157.825 200.035L155.233 192.259L154.215 185.502L152.734 183.28L153.382 178.745L151.438 178.559L148.846 174.301L151.808 177.449L155.233 176.245L157.084 171.339L153.382 166.341L158.936 166.989L161.527 163.008L161.157 161.62L163.471 158.565L162.916 161.25L165.508 159.213L164.49 155.603L167.822 157.362L172.08 154.955L167.914 150.605L170.506 151.623L175.32 151.901L181.614 150.512L188.649 145.791L192.907 142.274L193.555 139.682L196.147 136.997L194.759 132.554L195.036 129.777L199.665 127.741L199.294 132.647H202.071L199.017 135.239L211.328 128.759L213.364 128.666L214.66 122.742H215.03L216.419 119.317L217.067 108.765L217.9 104.507L215.493 96.9164L212.531 91.7327L212.439 89.2334L209.384 84.9754L207.533 67.1102L207.44 64.8886L207.255 62.5745L206.699 54.4287L201.145 54.6138L199.757 53.1328L199.479 53.0402H199.387L195.777 52.3922L191.611 49.7078L186.983 47.7639L178.282 50.2632L175.968 49.7078L173.098 50.8186L169.58 53.6881L160.139 49.245L157.177 53.3179L152.826 51.7443L148.198 48.7821L145.699 50.9111L143.292 51.0038V49.245L136.812 46.1903L134.22 47.3937L132.924 45.9126L125.797 45.1721L120.335 40.1736L119.502 41.8398L115.522 41.6546L111.819 38.1371L110.153 32.5832L109.876 0.925663L86.1787 0.647956L63.7778 0.0925726H63.2224L63.2225 0.0926017Z" transform="translate(4.97998 4.12405)" stroke="white" stroke-width="8" stroke-linejoin="round"/>
</svg>
