<svg width="128" height="82" viewBox="0 0 128 82" fill="none" xmlns="http://www.w3.org/2000/svg">
<path d="M116.448 44.8945H116.725L117.003 44.8019L116.818 44.3391L116.448 44.8945V44.8945ZM113.301 34.5272V34.99L113.763 34.7123L113.301 34.5272V34.5272ZM114.967 31.2874L114.874 30.5468L114.967 31.2874ZM114.411 32.3982L114.226 33.6015L113.948 34.0643L114.411 32.3982ZM115.244 29.9914L115.337 29.436L115.152 29.9914H115.245H115.244ZM115.8 27.4922L116.078 26.8442L115.615 28.5104L115.8 27.4922ZM115.892 26.1037L116.263 24.0672L115.8 24.5301L115.892 26.1037V26.1037ZM117.559 16.9396L117.744 16.1066L117.651 16.2917L117.559 16.9396H117.559ZM117.188 14.8106L115.985 15.2735L114.134 16.1066L113.486 16.9396L113.763 17.0323L111.542 30.8245L112.375 33.0461L113.671 27.307L116.078 19.8092L117.188 14.9032V14.8106V14.8106ZM119.04 14.0701L118.762 14.1627L118.669 14.533L118.206 17.4025L118.577 16.3843L119.04 14.0702V14.0701ZM22.3084 49.5228L21.6604 50.4485L17.2172 56.095L13.6997 58.872L12.9592 61.2787L7.59041 68.3137L0.64793 72.0163L2.65238e-05 72.7568L1.66621 72.4791L17.4949 69.2394L23.7894 67.9434L29.0657 66.4624L30.5467 66.1847L30.6393 66.3698L54.5213 61.9266L78.1256 55.9099L115.152 45.3574L114.874 44.8945L114.782 44.6168L115.43 45.2648L116.17 45.0797L116.078 44.9871L115.43 41.8398L115.892 41.9324L117.373 44.7094L117.651 44.6168L117.836 44.5242L117.466 43.7837L113.671 37.952L108.95 38.7851L106.821 40.5439L104.784 38.6926L97.842 36.3784L93.0286 36.1933L102.378 35.3602L107.561 38.8777L109.043 36.5635L104.877 31.2873L107.839 31.4724L106.266 27.2144L102.563 27.3995L93.7691 20.272H92.6583L105.062 26.3813L104.229 22.1233L105.062 20.7348L98.7677 18.3281L93.3063 17.9578L90.6219 15.5511L88.4004 16.9396L87.5672 10.5525L88.4929 10.7377L88.3077 5.55398L88.1226 5.36885L87.9375 5.46144L87.7524 5.36885L87.2895 4.99858L87.0118 4.72089L84.0497 3.42496L80.9951 1.20338L76.737 0.0926024L76.4593 -5.17345e-06V0.0926024L75.9039 3.98036L67.2953 0.27773L67.4805 5.64654L62.7596 14.6254L59.8901 17.7727L58.0387 23.2341L52.3922 21.2902L49.6152 33.8791L47.3937 38.1371L47.0234 43.6911L45.3572 46.3755L39.1553 48.2268L34.0642 52.2072L31.6575 52.5774L29.3434 54.6139L23.5117 52.4849L22.4935 49.6153L22.3083 49.5227L22.3084 49.5228Z" transform="translate(4.93066 4.54141)" stroke="white" stroke-width="8" stroke-linejoin="round"/>
</svg>
