<svg width="110" height="84" viewBox="0 0 110 84" fill="none" xmlns="http://www.w3.org/2000/svg">
<path d="M1.85131 43.3208L1.94392 41.7471L1.75879 41.8397L1.8514 43.3208H1.85131ZM21.5678 34.8973L22.1232 33.9716L21.4753 33.879L21.5679 34.8973H21.5678ZM19.8091 33.2311L20.3645 31.3798L19.8091 31.1946V33.2311V33.2311ZM26.5664 30.5467L26.4738 28.6954L24.9002 31.1021L26.5663 30.5467H26.5664ZM26.7515 26.6589L27.0292 24.8076L26.8441 24.3448L26.7515 26.6589H26.7515ZM27.0292 17.5875L26.9366 16.5692L26.5663 16.4767L27.0292 17.5875H27.0292ZM29.9913 11.4781L29.1582 11.3856L27.492 13.9774L29.9913 11.4781V11.4781ZM27.6772 8.97884L28.14 8.60858L28.2326 8.33088L27.6772 8.97884H27.6772ZM27.2144 9.25654L26.9366 7.40523L26.1036 8.97884L27.2144 9.25654ZM26.7515 6.6647L25.9184 6.29444L26.5664 7.2201L26.7515 6.6647V6.6647ZM29.5285 8.23832V7.03496L29.2508 7.49779L29.5285 8.23832ZM30.3616 7.03496L29.9913 6.75727H29.8987L30.3615 7.03496H30.3616ZM25.0853 4.99851L24.6225 4.62825L24.4374 4.53569L25.0853 4.99852V4.99851ZM28.5103 4.62825L26.011 5.27621L26.659 5.46134L28.5103 4.62825ZM26.4738 4.44312L26.011 3.88773L25.9184 3.98029L26.4738 4.44312H26.4738ZM28.4177 3.33233H28.0474L28.5103 3.51746L28.4177 3.33233H28.4177ZM10.2748 50.8186L13.6072 54.4287L13.0518 61.3711L13.6997 63.1298L18.6983 65.8143L32.7683 67.1102L33.3237 68.7764L39.9884 68.869L46.2829 69.7021L56.5577 68.5913L61.6488 69.4244L63.0373 68.7764L89.0483 74.7006L90.8071 75.0709L90.6219 74.1452L90.9922 69.9798L90.5293 65.9994L101.267 17.6801L99.7859 17.4024L78.1255 12.3113L59.2421 7.49783L37.8594 1.57362L31.4724 -6.3376e-07L32.9534 8.05323L31.5649 10.6451L29.0657 9.34915L31.4724 20.5496L28.8805 24.2522L27.6772 27.6772V31.1947L22.2158 34.9899L19.9017 33.5088L17.6801 34.6196L21.753 29.3434L20.7347 32.9534L23.0489 30.4542L24.9002 30.8244L24.3448 26.1961L25.5482 26.3813L28.0474 20.8273L27.2144 19.9942L23.9745 24.1597L21.8455 24.2522L24.1597 21.6604L26.7515 21.0124L25.8259 16.2916L23.234 15.6436L21.9381 13.422L20.3645 14.2551L11.8484 10.5525L4.35059 4.72086L2.31414 10.3674L2.12902 12.7741L3.70263 17.0321L2.68441 30.8244L1.94387 32.9534L6.10934 33.3237L1.94387 36.2858L4.16547 37.3966L2.40671 43.3208L1.57362 38.6925L1.12223e-06 44.0613L2.12902 46.6532L4.44316 46.468L7.22013 48.1342L8.60862 50.8186H10.2748V50.8186Z" transform="translate(4.11328 4.16869)" stroke="white" stroke-width="8" stroke-linejoin="round"/>
</svg>
