<svg width="76" height="78" viewBox="0 0 76 78" fill="none" xmlns="http://www.w3.org/2000/svg">
<path d="M38.1371 14.3477L24.9928 17.5875L20.9199 -5.22002e-06L20.7348 0.0926024L20.2719 20.3645L17.3098 24.8077L13.8849 27.3995L13.2369 26.659L9.4417 31.8427L9.7194 35.9156L7.40526 36.2858L4.258 41.0993L5.36883 44.2465L3.98035 47.3012L-2.83865e-05 49.245V49.4302L1.85131 55.9098L7.12756 62.2968L10.0897 63.963H12.4038L12.6815 64.0556L12.8667 64.1482L13.8849 67.0178L19.7165 69.1468L22.0307 67.1103L24.4374 66.74L29.5285 62.7597L35.7304 60.9084L37.3966 58.224L37.7669 52.6701L39.9884 48.412L42.7654 35.8231L48.4119 37.767L50.2633 32.3056L53.1327 29.1583L57.8536 20.1795L57.6685 14.8106L66.2771 18.5133L66.8325 14.6255V14.5329L64.1481 9.90463L58.5942 9.25665L55.3543 11.7559V13.6073L52.5774 14.2552L48.5045 17.1248L46.3755 17.5876L42.1175 23.6044L39.9884 13.8849L38.1371 14.3478V14.3477Z" transform="translate(4.55713 4.00868)" stroke="white" stroke-width="8" stroke-linejoin="round"/>
</svg>
