<svg width="88" height="98" viewBox="0 0 88 98" fill="none" xmlns="http://www.w3.org/2000/svg">
<path d="M79.3289 28.0475L77.0148 30.917L75.6263 35.0825L76.2742 37.3966L79.3289 28.0475ZM26.1961 6.29448L27.5846 4.35059L26.5664 5.27625L26.1961 6.29448V6.29448ZM28.3252 3.2398L27.8623 2.68441L26.8441 3.33238L28.3252 3.23977V3.2398ZM8.14579 8.42349L6.0168 10.8302L7.03502 21.9381L1.11081 27.3069L-1.46403e-05 32.4906L3.2398 35.4527L2.31413 48.2268L5.7391 50.8186L7.96069 51.0038L14.9957 55.2618L19.4388 59.8901L25.0854 62.7596L26.3813 69.8872V70.35L29.0657 73.5898L28.3252 76.0891L29.2508 81.5505L32.0278 85.3457L37.1189 88.0301L37.0263 88.4929L57.2056 86.1788L64.7035 85.2531L77.1999 83.4944L76.8296 82.1059V77.7553L74.3303 73.127L73.6823 67.2953L74.8857 60.8157L74.2377 55.8172L76.4593 49.6153L75.6262 48.5971L75.8114 42.858L77.0147 38.5074L75.6262 37.0263L72.9418 37.952L71.4607 41.8398L67.9433 43.8762L69.0541 38.9702L72.2013 34.8047L72.3864 32.9534L72.479 32.8608L68.0359 28.4177V22.1232L63.0373 18.0503L56.1874 17.5875L49.1524 15.7361L33.9717 11.1079L31.0096 9.44168L30.7319 9.71937L26.011 9.07141L24.4374 9.99707L25.0854 3.23977L17.495 7.12753L8.23834 8.60859L8.14579 8.42346V8.42349ZM26.2887 3.5175L26.1036 2.86954L25.4556 3.14724L26.2887 3.5175ZM22.9563 2.86954L23.234 2.31415L23.0489 2.12901L22.9563 2.86954V2.86954ZM29.7136 1.29592L29.4359 3.9348e-07L29.1582 1.57362L29.7136 1.29592V1.29592Z" transform="translate(4.49414 4.51867)" stroke="white" stroke-width="8" stroke-linejoin="round"/>
</svg>
