<svg width="115" height="95" viewBox="0 0 115 95" fill="none" xmlns="http://www.w3.org/2000/svg">
<path d="M103.766 45.1722L104.507 30.7319L105.432 11.2931L105.525 8.88635L104.322 8.79376L80.5323 7.40527L67.2028 6.29447L41.9323 3.88777L10.2748 -4.23748e-06L8.97893 9.07145L8.88633 9.62683L8.51607 12.6815L6.84986 24.6225L3.70263 48.6896L2.86954 54.7064L2.49928 57.7611L2.31415 58.9644L1.25076e-05 77.0148L3.61008 77.4776L27.2144 80.3471L29.0657 80.5323L31.2872 80.8099L54.151 83.0315L72.479 84.5126L99.9711 86.2713L101.822 86.3639L101.915 83.9572L102.378 74.2378L103.211 57.2983L103.581 50.0782L103.674 47.6714L103.766 45.1722H103.766Z" transform="translate(4.97607 4.10036)" stroke="white" stroke-width="8" stroke-linejoin="round"/>
</svg>
