<svg width="126" height="101" viewBox="0 0 126 101" fill="none" xmlns="http://www.w3.org/2000/svg">
<mask id="path-1-outside-1" maskUnits="userSpaceOnUse" x="-2" y="-1" width="127" height="100" fill="black">
<rect fill="white" x="-2" y="-1" width="127" height="100"/>
<path d="M86.7896 18.5126H48.2716C47.2722 18.5126 46.4622 19.3227 46.4622 20.322C46.4622 21.3213 47.2722 22.1314 48.2716 22.1314H86.7893C87.7887 22.1314 88.599 21.3213 88.599 20.322C88.599 19.3224 87.7889 18.5126 86.7896 18.5126Z"/>
<path d="M39.8522 18.5126H33.7511C32.7517 18.5126 31.9416 19.3227 31.9416 20.322C31.9416 21.3213 32.7515 22.1314 33.7511 22.1314H39.8522C40.8515 22.1314 41.6616 21.3213 41.6616 20.322C41.6616 19.3227 40.8515 18.5126 39.8522 18.5126Z"/>
<path d="M52.6766 73.9749H33.7511C32.7517 73.9749 31.9416 74.7849 31.9416 75.7843C31.9416 76.7839 32.7517 77.5937 33.7511 77.5937H52.6766C53.676 77.5937 54.486 76.7836 54.486 75.7843C54.486 74.7847 53.676 73.9749 52.6766 73.9749Z"/>
<path d="M60.2703 55.4876H33.7511C32.7517 55.4876 31.9416 56.2977 31.9416 57.297C31.9416 58.2966 32.7517 59.1064 33.7511 59.1064H60.2703C61.2694 59.1064 62.0798 58.2963 62.0798 57.297C62.0798 56.2974 61.2697 55.4876 60.2703 55.4876Z"/>
<path d="M73.1792 36.9999H33.7511C32.7517 36.9999 31.9416 37.8099 31.9416 38.8093C31.9416 39.8086 32.7517 40.6187 33.7511 40.6187H73.1792C74.1785 40.6189 74.9886 39.8088 74.9886 38.8093C74.9886 37.8097 74.1785 36.9999 73.1792 36.9999Z"/>
<path d="M107.423 0H32.6427C26.0189 0 20.6302 5.38892 20.6302 12.0127V83.2085H1.80926C1.32635 83.2085 0.863213 83.4016 0.523513 83.7447C0.183571 84.088 -0.00496356 84.5528 9.93991e-05 85.0358C0.071463 92.2203 5.23448 97.6379 12.0097 97.6379H87.0174C93.6412 97.6379 99.0299 92.249 99.0299 85.6252V63.6995C99.0299 62.7002 98.2196 61.8903 97.2202 61.8903C96.2209 61.8903 95.4108 62.7004 95.4108 63.6997V85.6255C95.4108 90.254 91.6454 94.0191 87.0174 94.0191H86.7896C82.0571 94.0191 78.4499 90.1416 78.3988 85.0001C78.3889 84.0077 77.5817 83.2085 76.5894 83.2085H24.25V12.0125C24.25 7.38396 28.0154 3.61881 32.6434 3.61881H98.8375C98.7844 3.67306 98.7343 3.72995 98.6822 3.78541C98.619 3.85267 98.5552 3.91921 98.4934 3.98768C98.4281 4.06025 98.3652 4.13475 98.3018 4.20901C98.2408 4.28013 98.1793 4.35053 98.12 4.4231C98.0585 4.49832 97.9997 4.57547 97.9399 4.65214C97.882 4.72639 97.8237 4.79993 97.7675 4.87563C97.7101 4.95326 97.6552 5.03258 97.5995 5.11166C97.5447 5.18929 97.4893 5.26644 97.4362 5.34528C97.383 5.42508 97.3321 5.50657 97.2807 5.58782C97.2294 5.66858 97.1773 5.74863 97.1279 5.8306C97.0782 5.91305 97.0315 5.9972 96.984 6.08085C96.9365 6.16403 96.8878 6.24673 96.8422 6.33135C96.7964 6.41597 96.7539 6.50253 96.7103 6.5886C96.6667 6.67443 96.6218 6.75953 96.5804 6.84632C96.5387 6.9336 96.5003 7.02256 96.4605 7.1108C96.421 7.1988 96.3803 7.28608 96.3429 7.37504C96.305 7.46497 96.2708 7.55659 96.2351 7.64748C96.1999 7.73717 96.1635 7.82613 96.1305 7.91678C96.0965 8.00984 96.0664 8.10459 96.0348 8.19886C96.0044 8.28951 95.9723 8.3792 95.9439 8.47081C95.914 8.56725 95.8882 8.66537 95.8607 8.76302C95.8351 8.85415 95.8077 8.94456 95.784 9.03666C95.7582 9.13792 95.7365 9.24062 95.7132 9.34285C95.6927 9.43277 95.67 9.52222 95.6517 9.61287C95.63 9.71919 95.6129 9.82672 95.5941 9.93401C95.5786 10.0227 95.5608 10.1105 95.5473 10.1997C95.5299 10.3142 95.5174 10.4302 95.5032 10.5457C95.493 10.6291 95.4803 10.7115 95.4718 10.7954C95.4588 10.9247 95.4508 11.0553 95.4419 11.1858C95.4371 11.2574 95.4294 11.3285 95.4258 11.4003C95.4156 11.6031 95.4103 11.8073 95.4103 12.0127V28.0724C95.4103 29.072 96.2204 29.8818 97.2197 29.8818C98.2191 29.8818 99.0292 29.0717 99.0292 28.0724V14.4294H117.642C118.125 14.4294 118.588 14.2363 118.928 13.8932C119.268 13.5499 119.456 13.0851 119.451 12.6022C119.38 5.41761 114.217 0 107.423 0ZM74.9061 86.8276C74.9309 87.0149 74.9598 87.2003 74.9919 87.3845C75.0025 87.4462 75.0155 87.5067 75.0271 87.5682C75.05 87.69 75.0729 87.8117 75.099 87.9318C75.1144 88.0038 75.132 88.0747 75.1484 88.1461C75.1735 88.2544 75.1988 88.3626 75.2265 88.4694C75.2458 88.5444 75.2668 88.6186 75.2872 88.6929C75.3155 88.7946 75.3439 88.8961 75.3743 88.9967C75.397 89.0721 75.4208 89.1471 75.4449 89.2219C75.4763 89.3197 75.5088 89.4171 75.5423 89.5138C75.5681 89.5883 75.5944 89.6626 75.6217 89.7364C75.6569 89.8323 75.6933 89.9273 75.7306 90.0218C75.7591 90.0937 75.7873 90.1655 75.8167 90.2366C75.8565 90.3323 75.8979 90.4268 75.9397 90.5213C75.9695 90.5891 75.9992 90.6571 76.0303 90.7241C76.0761 90.823 76.1243 90.9204 76.1723 91.0175C76.2022 91.0778 76.2309 91.1386 76.2617 91.1983C76.3206 91.3124 76.3821 91.4245 76.444 91.5364C76.4664 91.5771 76.4879 91.6186 76.5108 91.6588C76.5969 91.8102 76.6858 91.9592 76.7777 92.1058C76.7991 92.1401 76.8221 92.1728 76.8438 92.2068C76.9154 92.3189 76.9879 92.4303 77.0629 92.5395C77.0976 92.5899 77.1338 92.6389 77.169 92.6888C77.2336 92.7799 77.2982 92.8708 77.3652 92.9598C77.4055 93.0133 77.4467 93.0654 77.4877 93.1182C77.5523 93.2013 77.6174 93.2843 77.684 93.3653C77.7278 93.4186 77.7724 93.4711 77.817 93.5237C77.8836 93.6023 77.9511 93.6799 78.0196 93.7566C78.0656 93.8082 78.1124 93.859 78.1594 93.9097C78.1929 93.9458 78.2252 93.9835 78.2592 94.0191H12.0094C7.85685 94.0191 4.5705 91.0332 3.79298 86.8276H74.9061ZM99.1184 10.8101C99.1191 10.7978 99.1203 10.7851 99.122 10.7725C99.1302 10.7173 99.1403 10.6626 99.1497 10.6079C99.1627 10.5307 99.176 10.4536 99.1912 10.3769C99.2027 10.3186 99.2158 10.2607 99.2285 10.2028C99.2444 10.131 99.2606 10.0594 99.2782 9.98825C99.2931 9.92846 99.3091 9.86891 99.3252 9.8096C99.3438 9.74186 99.3628 9.67411 99.3828 9.60709C99.4009 9.54633 99.42 9.48606 99.4395 9.42602C99.4602 9.36189 99.4819 9.29824 99.5043 9.2346C99.526 9.17312 99.548 9.11164 99.5711 9.05088C99.5938 8.99085 99.6177 8.93154 99.6418 8.87199C99.6671 8.80931 99.6924 8.74686 99.7194 8.6849C99.7433 8.62969 99.7686 8.5752 99.7937 8.52072C99.8233 8.45635 99.8527 8.39149 99.8838 8.32808C99.907 8.28083 99.9318 8.23454 99.9559 8.18777C99.9916 8.11833 100.027 8.0489 100.064 7.98067C100.079 7.95415 100.095 7.92859 100.109 7.90231C100.277 7.60649 100.46 7.32104 100.661 7.04884C100.663 7.04619 100.664 7.04378 100.666 7.04113C100.731 6.95385 100.798 6.86827 100.865 6.7834C100.876 6.7699 100.887 6.75616 100.897 6.74265C100.964 6.66068 101.032 6.5804 101.101 6.50108C101.114 6.48637 101.127 6.47143 101.14 6.45672C101.21 6.37716 101.282 6.29928 101.356 6.22238C101.368 6.20984 101.38 6.19706 101.392 6.18453C101.468 6.10593 101.546 6.02854 101.625 5.95283C101.634 5.94439 101.643 5.93596 101.652 5.92728C101.735 5.8482 101.82 5.77057 101.907 5.69486C101.91 5.69221 101.913 5.6898 101.916 5.68715C103.024 4.72205 104.387 4.04145 105.892 3.7613C105.893 3.76105 105.894 3.76106 105.895 3.76081C106.018 3.73791 106.142 3.71766 106.267 3.7003C106.275 3.69934 106.282 3.69837 106.29 3.69741C106.409 3.68101 106.529 3.66703 106.65 3.6557C106.668 3.65401 106.687 3.65304 106.706 3.6516C106.816 3.64195 106.927 3.63376 107.039 3.62845C107.104 3.62556 107.169 3.62508 107.234 3.62339C107.304 3.6217 107.373 3.61857 107.444 3.61857C111.596 3.61857 114.883 6.60451 115.66 10.8101H99.1184Z"/>
<path d="M123.438 33.3483C123.438 33.3273 123.437 33.3063 123.436 33.2851C123.429 33.1149 123.399 32.9509 123.347 32.7957C123.345 32.788 123.344 32.78 123.341 32.7725C123.339 32.7663 123.335 32.7605 123.333 32.7542C123.305 32.6749 123.272 32.5977 123.233 32.524C123.229 32.5148 123.223 32.5064 123.218 32.4972C123.183 32.4321 123.143 32.3697 123.1 32.3096C123.091 32.2969 123.082 32.2836 123.073 32.2711C123.025 32.2084 122.974 32.1491 122.918 32.0931C122.906 32.0808 122.894 32.0695 122.881 32.0577C122.829 32.0075 122.774 31.9605 122.716 31.9169C122.709 31.9111 122.701 31.9046 122.693 31.8988C122.628 31.8516 122.559 31.8094 122.488 31.7708C122.475 31.7633 122.461 31.7566 122.447 31.7496C122.374 31.7129 122.3 31.6794 122.222 31.6527C122.222 31.6524 122.221 31.6522 122.221 31.6522C122.143 31.6257 122.063 31.6056 121.981 31.5895C121.963 31.5859 121.945 31.5827 121.927 31.5798C121.845 31.5663 121.762 31.5562 121.677 31.5541C106.537 31.1623 86.7946 34.8069 76.8136 46.2009C72.4455 51.1875 70.4299 57.5138 68.4809 63.6315C68.3213 64.1323 68.162 64.6328 68.0012 65.1326C67.9944 65.1535 67.9879 65.1747 67.9819 65.1962L64.9239 76.0572C64.6531 77.0189 65.2134 78.0185 66.1751 78.2895C66.3391 78.3358 66.5042 78.3575 66.6665 78.3575C67.4565 78.3575 68.1827 77.8358 68.4074 77.0377L71.2436 66.9644C74.7108 65.3394 77.5027 64.5795 81.2738 63.5541C83.2301 63.0218 85.4474 62.4191 88.1305 61.5938C93.9312 59.8097 105.059 52.3455 110.18 46.8034C114.659 41.956 118.428 38.3536 122.783 34.7582C122.788 34.7541 122.792 34.749 122.797 34.7447C122.86 34.6909 122.92 34.6338 122.976 34.5718C122.979 34.568 122.983 34.5646 122.986 34.561C123.041 34.499 123.09 34.4325 123.137 34.363C123.145 34.3502 123.153 34.3375 123.161 34.3245C123.248 34.1863 123.317 34.0361 123.364 33.876C123.368 33.8608 123.373 33.8459 123.377 33.8305C123.398 33.7519 123.415 33.6718 123.426 33.5894C123.426 33.586 123.426 33.5828 123.426 33.5795C123.433 33.5235 123.438 33.4669 123.439 33.4095C123.44 33.3888 123.438 33.3685 123.438 33.3483ZM79.536 48.5854C83.7477 43.7772 90.203 40.1529 98.7227 37.8133C101.012 37.1845 103.432 36.6628 105.926 36.251C99.5894 39.3238 93.531 43.1723 90.1453 45.434C84.6814 49.0842 78.7833 53.5119 74.4277 57.4499C75.7166 54.185 77.2748 51.1667 79.536 48.5854ZM107.523 44.3472C102.538 49.7412 91.7732 56.6871 87.0668 58.1343C84.4403 58.942 82.2536 59.537 80.3242 60.0616C78.5784 60.5364 76.9903 60.9689 75.4199 61.4675C76.1224 60.7946 76.946 60.0402 77.9169 59.1932C81.824 55.7851 86.8807 51.9674 92.1556 48.4436C101.289 42.3422 109.554 38.0595 115.618 36.2028C112.984 38.6282 110.394 41.2397 107.523 44.3472Z"/>
</mask>
<path d="M86.7896 18.5126H48.2716C47.2722 18.5126 46.4622 19.3227 46.4622 20.322C46.4622 21.3213 47.2722 22.1314 48.2716 22.1314H86.7893C87.7887 22.1314 88.599 21.3213 88.599 20.322C88.599 19.3224 87.7889 18.5126 86.7896 18.5126Z" transform="translate(1.53613 1.6308)" fill="black"/>
<path d="M39.8522 18.5126H33.7511C32.7517 18.5126 31.9416 19.3227 31.9416 20.322C31.9416 21.3213 32.7515 22.1314 33.7511 22.1314H39.8522C40.8515 22.1314 41.6616 21.3213 41.6616 20.322C41.6616 19.3227 40.8515 18.5126 39.8522 18.5126Z" transform="translate(1.53613 1.6308)" fill="black"/>
<path d="M52.6766 73.9749H33.7511C32.7517 73.9749 31.9416 74.7849 31.9416 75.7843C31.9416 76.7839 32.7517 77.5937 33.7511 77.5937H52.6766C53.676 77.5937 54.486 76.7836 54.486 75.7843C54.486 74.7847 53.676 73.9749 52.6766 73.9749Z" transform="translate(1.53613 1.6308)" fill="black"/>
<path d="M60.2703 55.4876H33.7511C32.7517 55.4876 31.9416 56.2977 31.9416 57.297C31.9416 58.2966 32.7517 59.1064 33.7511 59.1064H60.2703C61.2694 59.1064 62.0798 58.2963 62.0798 57.297C62.0798 56.2974 61.2697 55.4876 60.2703 55.4876Z" transform="translate(1.53613 1.6308)" fill="black"/>
<path d="M73.1792 36.9999H33.7511C32.7517 36.9999 31.9416 37.8099 31.9416 38.8093C31.9416 39.8086 32.7517 40.6187 33.7511 40.6187H73.1792C74.1785 40.6189 74.9886 39.8088 74.9886 38.8093C74.9886 37.8097 74.1785 36.9999 73.1792 36.9999Z" transform="translate(1.53613 1.6308)" fill="black"/>
<path d="M107.423 0H32.6427C26.0189 0 20.6302 5.38892 20.6302 12.0127V83.2085H1.80926C1.32635 83.2085 0.863213 83.4016 0.523513 83.7447C0.183571 84.088 -0.00496356 84.5528 9.93991e-05 85.0358C0.071463 92.2203 5.23448 97.6379 12.0097 97.6379H87.0174C93.6412 97.6379 99.0299 92.249 99.0299 85.6252V63.6995C99.0299 62.7002 98.2196 61.8903 97.2202 61.8903C96.2209 61.8903 95.4108 62.7004 95.4108 63.6997V85.6255C95.4108 90.254 91.6454 94.0191 87.0174 94.0191H86.7896C82.0571 94.0191 78.4499 90.1416 78.3988 85.0001C78.3889 84.0077 77.5817 83.2085 76.5894 83.2085H24.25V12.0125C24.25 7.38396 28.0154 3.61881 32.6434 3.61881H98.8375C98.7844 3.67306 98.7343 3.72995 98.6822 3.78541C98.619 3.85267 98.5552 3.91921 98.4934 3.98768C98.4281 4.06025 98.3652 4.13475 98.3018 4.20901C98.2408 4.28013 98.1793 4.35053 98.12 4.4231C98.0585 4.49832 97.9997 4.57547 97.9399 4.65214C97.882 4.72639 97.8237 4.79993 97.7675 4.87563C97.7101 4.95326 97.6552 5.03258 97.5995 5.11166C97.5447 5.18929 97.4893 5.26644 97.4362 5.34528C97.383 5.42508 97.3321 5.50657 97.2807 5.58782C97.2294 5.66858 97.1773 5.74863 97.1279 5.8306C97.0782 5.91305 97.0315 5.9972 96.984 6.08085C96.9365 6.16403 96.8878 6.24673 96.8422 6.33135C96.7964 6.41597 96.7539 6.50253 96.7103 6.5886C96.6667 6.67443 96.6218 6.75953 96.5804 6.84632C96.5387 6.9336 96.5003 7.02256 96.4605 7.1108C96.421 7.1988 96.3803 7.28608 96.3429 7.37504C96.305 7.46497 96.2708 7.55659 96.2351 7.64748C96.1999 7.73717 96.1635 7.82613 96.1305 7.91678C96.0965 8.00984 96.0664 8.10459 96.0348 8.19886C96.0044 8.28951 95.9723 8.3792 95.9439 8.47081C95.914 8.56725 95.8882 8.66537 95.8607 8.76302C95.8351 8.85415 95.8077 8.94456 95.784 9.03666C95.7582 9.13792 95.7365 9.24062 95.7132 9.34285C95.6927 9.43277 95.67 9.52222 95.6517 9.61287C95.63 9.71919 95.6129 9.82672 95.5941 9.93401C95.5786 10.0227 95.5608 10.1105 95.5473 10.1997C95.5299 10.3142 95.5174 10.4302 95.5032 10.5457C95.493 10.6291 95.4803 10.7115 95.4718 10.7954C95.4588 10.9247 95.4508 11.0553 95.4419 11.1858C95.4371 11.2574 95.4294 11.3285 95.4258 11.4003C95.4156 11.6031 95.4103 11.8073 95.4103 12.0127V28.0724C95.4103 29.072 96.2204 29.8818 97.2197 29.8818C98.2191 29.8818 99.0292 29.0717 99.0292 28.0724V14.4294H117.642C118.125 14.4294 118.588 14.2363 118.928 13.8932C119.268 13.5499 119.456 13.0851 119.451 12.6022C119.38 5.41761 114.217 0 107.423 0ZM74.9061 86.8276C74.9309 87.0149 74.9598 87.2003 74.9919 87.3845C75.0025 87.4462 75.0155 87.5067 75.0271 87.5682C75.05 87.69 75.0729 87.8117 75.099 87.9318C75.1144 88.0038 75.132 88.0747 75.1484 88.1461C75.1735 88.2544 75.1988 88.3626 75.2265 88.4694C75.2458 88.5444 75.2668 88.6186 75.2872 88.6929C75.3155 88.7946 75.3439 88.8961 75.3743 88.9967C75.397 89.0721 75.4208 89.1471 75.4449 89.2219C75.4763 89.3197 75.5088 89.4171 75.5423 89.5138C75.5681 89.5883 75.5944 89.6626 75.6217 89.7364C75.6569 89.8323 75.6933 89.9273 75.7306 90.0218C75.7591 90.0937 75.7873 90.1655 75.8167 90.2366C75.8565 90.3323 75.8979 90.4268 75.9397 90.5213C75.9695 90.5891 75.9992 90.6571 76.0303 90.7241C76.0761 90.823 76.1243 90.9204 76.1723 91.0175C76.2022 91.0778 76.2309 91.1386 76.2617 91.1983C76.3206 91.3124 76.3821 91.4245 76.444 91.5364C76.4664 91.5771 76.4879 91.6186 76.5108 91.6588C76.5969 91.8102 76.6858 91.9592 76.7777 92.1058C76.7991 92.1401 76.8221 92.1728 76.8438 92.2068C76.9154 92.3189 76.9879 92.4303 77.0629 92.5395C77.0976 92.5899 77.1338 92.6389 77.169 92.6888C77.2336 92.7799 77.2982 92.8708 77.3652 92.9598C77.4055 93.0133 77.4467 93.0654 77.4877 93.1182C77.5523 93.2013 77.6174 93.2843 77.684 93.3653C77.7278 93.4186 77.7724 93.4711 77.817 93.5237C77.8836 93.6023 77.9511 93.6799 78.0196 93.7566C78.0656 93.8082 78.1124 93.859 78.1594 93.9097C78.1929 93.9458 78.2252 93.9835 78.2592 94.0191H12.0094C7.85685 94.0191 4.5705 91.0332 3.79298 86.8276H74.9061ZM99.1184 10.8101C99.1191 10.7978 99.1203 10.7851 99.122 10.7725C99.1302 10.7173 99.1403 10.6626 99.1497 10.6079C99.1627 10.5307 99.176 10.4536 99.1912 10.3769C99.2027 10.3186 99.2158 10.2607 99.2285 10.2028C99.2444 10.131 99.2606 10.0594 99.2782 9.98825C99.2931 9.92846 99.3091 9.86891 99.3252 9.8096C99.3438 9.74186 99.3628 9.67411 99.3828 9.60709C99.4009 9.54633 99.42 9.48606 99.4395 9.42602C99.4602 9.36189 99.4819 9.29824 99.5043 9.2346C99.526 9.17312 99.548 9.11164 99.5711 9.05088C99.5938 8.99085 99.6177 8.93154 99.6418 8.87199C99.6671 8.80931 99.6924 8.74686 99.7194 8.6849C99.7433 8.62969 99.7686 8.5752 99.7937 8.52072C99.8233 8.45635 99.8527 8.39149 99.8838 8.32808C99.907 8.28083 99.9318 8.23454 99.9559 8.18777C99.9916 8.11833 100.027 8.0489 100.064 7.98067C100.079 7.95415 100.095 7.92859 100.109 7.90231C100.277 7.60649 100.46 7.32104 100.661 7.04884C100.663 7.04619 100.664 7.04378 100.666 7.04113C100.731 6.95385 100.798 6.86827 100.865 6.7834C100.876 6.7699 100.887 6.75616 100.897 6.74265C100.964 6.66068 101.032 6.5804 101.101 6.50108C101.114 6.48637 101.127 6.47143 101.14 6.45672C101.21 6.37716 101.282 6.29928 101.356 6.22238C101.368 6.20984 101.38 6.19706 101.392 6.18453C101.468 6.10593 101.546 6.02854 101.625 5.95283C101.634 5.94439 101.643 5.93596 101.652 5.92728C101.735 5.8482 101.82 5.77057 101.907 5.69486C101.91 5.69221 101.913 5.6898 101.916 5.68715C103.024 4.72205 104.387 4.04145 105.892 3.7613C105.893 3.76105 105.894 3.76106 105.895 3.76081C106.018 3.73791 106.142 3.71766 106.267 3.7003C106.275 3.69934 106.282 3.69837 106.29 3.69741C106.409 3.68101 106.529 3.66703 106.65 3.6557C106.668 3.65401 106.687 3.65304 106.706 3.6516C106.816 3.64195 106.927 3.63376 107.039 3.62845C107.104 3.62556 107.169 3.62508 107.234 3.62339C107.304 3.6217 107.373 3.61857 107.444 3.61857C111.596 3.61857 114.883 6.60451 115.66 10.8101H99.1184Z" transform="translate(1.53613 1.6308)" fill="black"/>
<path d="M123.438 33.3483C123.438 33.3273 123.437 33.3063 123.436 33.2851C123.429 33.1149 123.399 32.9509 123.347 32.7957C123.345 32.788 123.344 32.78 123.341 32.7725C123.339 32.7663 123.335 32.7605 123.333 32.7542C123.305 32.6749 123.272 32.5977 123.233 32.524C123.229 32.5148 123.223 32.5064 123.218 32.4972C123.183 32.4321 123.143 32.3697 123.1 32.3096C123.091 32.2969 123.082 32.2836 123.073 32.2711C123.025 32.2084 122.974 32.1491 122.918 32.0931C122.906 32.0808 122.894 32.0695 122.881 32.0577C122.829 32.0075 122.774 31.9605 122.716 31.9169C122.709 31.9111 122.701 31.9046 122.693 31.8988C122.628 31.8516 122.559 31.8094 122.488 31.7708C122.475 31.7633 122.461 31.7566 122.447 31.7496C122.374 31.7129 122.3 31.6794 122.222 31.6527C122.222 31.6524 122.221 31.6522 122.221 31.6522C122.143 31.6257 122.063 31.6056 121.981 31.5895C121.963 31.5859 121.945 31.5827 121.927 31.5798C121.845 31.5663 121.762 31.5562 121.677 31.5541C106.537 31.1623 86.7946 34.8069 76.8136 46.2009C72.4455 51.1875 70.4299 57.5138 68.4809 63.6315C68.3213 64.1323 68.162 64.6328 68.0012 65.1326C67.9944 65.1535 67.9879 65.1747 67.9819 65.1962L64.9239 76.0572C64.6531 77.0189 65.2134 78.0185 66.1751 78.2895C66.3391 78.3358 66.5042 78.3575 66.6665 78.3575C67.4565 78.3575 68.1827 77.8358 68.4074 77.0377L71.2436 66.9644C74.7108 65.3394 77.5027 64.5795 81.2738 63.5541C83.2301 63.0218 85.4474 62.4191 88.1305 61.5938C93.9312 59.8097 105.059 52.3455 110.18 46.8034C114.659 41.956 118.428 38.3536 122.783 34.7582C122.788 34.7541 122.792 34.749 122.797 34.7447C122.86 34.6909 122.92 34.6338 122.976 34.5718C122.979 34.568 122.983 34.5646 122.986 34.561C123.041 34.499 123.09 34.4325 123.137 34.363C123.145 34.3502 123.153 34.3375 123.161 34.3245C123.248 34.1863 123.317 34.0361 123.364 33.876C123.368 33.8608 123.373 33.8459 123.377 33.8305C123.398 33.7519 123.415 33.6718 123.426 33.5894C123.426 33.586 123.426 33.5828 123.426 33.5795C123.433 33.5235 123.438 33.4669 123.439 33.4095C123.44 33.3888 123.438 33.3685 123.438 33.3483ZM79.536 48.5854C83.7477 43.7772 90.203 40.1529 98.7227 37.8133C101.012 37.1845 103.432 36.6628 105.926 36.251C99.5894 39.3238 93.531 43.1723 90.1453 45.434C84.6814 49.0842 78.7833 53.5119 74.4277 57.4499C75.7166 54.185 77.2748 51.1667 79.536 48.5854ZM107.523 44.3472C102.538 49.7412 91.7732 56.6871 87.0668 58.1343C84.4403 58.942 82.2536 59.537 80.3242 60.0616C78.5784 60.5364 76.9903 60.9689 75.4199 61.4675C76.1224 60.7946 76.946 60.0402 77.9169 59.1932C81.824 55.7851 86.8807 51.9674 92.1556 48.4436C101.289 42.3422 109.554 38.0595 115.618 36.2028C112.984 38.6282 110.394 41.2397 107.523 44.3472Z" transform="translate(1.53613 1.6308)" fill="black"/>
<path d="M88.599 20.322H87.599H88.599ZM73.1792 40.6187L73.1794 39.6187H73.1792V40.6187ZM20.6302 83.2085V84.2085H21.6302V83.2085H20.6302ZM0.523513 83.7447L1.2341 84.4483L1.23411 84.4483L0.523513 83.7447ZM9.93991e-05 85.0358L1.00005 85.0258L1.00004 85.0253L9.93991e-05 85.0358ZM78.3988 85.0001L79.3987 84.9901L79.3987 84.9901L78.3988 85.0001ZM24.25 83.2085H23.25V84.2085H24.25V83.2085ZM98.8375 3.61881L99.5525 4.31793L101.214 2.61881L98.8375 2.61881V3.61881ZM98.6822 3.78541L97.9533 3.10083L97.9532 3.10086L98.6822 3.78541ZM98.4934 3.98768L97.7507 3.31814L97.7503 3.31858L98.4934 3.98768ZM98.3018 4.20901L99.0608 4.86001L99.0622 4.85837L98.3018 4.20901ZM98.12 4.4231L98.8943 5.05593L98.8943 5.05592L98.12 4.4231ZM97.9399 4.65214L97.1513 4.03717L97.1511 4.03749L97.9399 4.65214ZM97.7675 4.87563L96.9644 4.27973L96.9633 4.28124L97.7675 4.87563ZM97.5995 5.11166L98.4168 5.68784L98.4171 5.68746L97.5995 5.11166ZM97.4362 5.34528L96.6065 4.78707L96.6046 4.79L97.4362 5.34528ZM97.2807 5.58782L98.1246 6.12437L98.126 6.12209L97.2807 5.58782ZM97.1279 5.8306L96.2715 5.31425L96.2713 5.31463L97.1279 5.8306ZM96.984 6.08085L97.8524 6.57672L97.8536 6.57456L96.984 6.08085ZM96.8422 6.33135L97.7216 6.80739L97.7227 6.80545L96.8422 6.33135ZM96.7103 6.5886L97.6017 7.04181L97.6022 7.0408L96.7103 6.5886ZM96.5804 6.84632L97.4826 7.27752L97.4827 7.27743L96.5804 6.84632ZM96.4605 7.1108L95.5489 6.69982L95.5484 6.70096L96.4605 7.1108ZM96.3429 7.37504L97.2646 7.76299L97.2649 7.76232L96.3429 7.37504ZM96.2351 7.64748L95.3043 7.28206L95.3042 7.28214L96.2351 7.64748ZM96.1305 7.91678L97.0698 8.25989L97.0701 8.25912L96.1305 7.91678ZM96.0348 8.19886L96.9829 8.5166L96.983 8.51654L96.0348 8.19886ZM95.9439 8.47081L94.9889 8.17425L94.9887 8.17471L95.9439 8.47081ZM95.8607 8.76302L94.8981 8.49207L94.8978 8.49301L95.8607 8.76302ZM95.784 9.03666L94.8154 8.78816L94.815 8.78978L95.784 9.03666ZM95.7132 9.34285L94.7383 9.11983L94.7381 9.12066L95.7132 9.34285ZM95.6517 9.61287L96.6315 9.81283L96.6318 9.81099L95.6517 9.61287ZM95.5941 9.93401L94.6091 9.76136L94.6088 9.76267L95.5941 9.93401ZM95.5473 10.1997L96.536 10.3496L96.536 10.3493L95.5473 10.1997ZM95.5032 10.5457L94.5107 10.4234L94.5104 10.4252L95.5032 10.5457ZM95.4718 10.7954L96.4668 10.8957L96.4668 10.8955L95.4718 10.7954ZM95.4419 11.1858L94.4443 11.1175L94.4442 11.1186L95.4419 11.1858ZM95.4258 11.4003L94.427 11.3501L94.427 11.3505L95.4258 11.4003ZM99.0292 14.4294V13.4294H98.0292V14.4294H99.0292ZM118.928 13.8932L118.217 13.1896L118.217 13.1896L118.928 13.8932ZM119.451 12.6022L118.451 12.6121L118.451 12.6127L119.451 12.6022ZM74.9061 86.8276L75.8974 86.6961L75.7823 85.8276H74.9061V86.8276ZM74.9919 87.3845L75.9775 87.2151L75.9771 87.213L74.9919 87.3845ZM75.0271 87.5682L76.0099 87.3833L76.0099 87.3832L75.0271 87.5682ZM75.099 87.9318L76.0768 87.7225L76.0762 87.7198L75.099 87.9318ZM75.1484 88.1461L74.1738 88.37L74.1742 88.3718L75.1484 88.1461ZM75.2265 88.4694L76.195 88.2203L76.1944 88.2181L75.2265 88.4694ZM75.2872 88.6929L74.3233 88.9589L74.3236 88.9601L75.2872 88.6929ZM75.3743 88.9967L76.332 88.7091L76.3315 88.7074L75.3743 88.9967ZM75.4449 89.2219L76.3973 88.9169L76.3966 88.9149L75.4449 89.2219ZM75.5423 89.5138L76.4873 89.1866L76.4872 89.1863L75.5423 89.5138ZM75.6217 89.7364L76.5605 89.392L76.5597 89.3899L75.6217 89.7364ZM75.7306 90.0218L74.8007 90.3895L74.8009 90.39L75.7306 90.0218ZM75.8167 90.2366L74.8926 90.6188L74.8933 90.6204L75.8167 90.2366ZM75.9397 90.5213L76.8545 90.1176L76.8545 90.1176L75.9397 90.5213ZM76.0303 90.7241L76.9376 90.3036L76.9374 90.3032L76.0303 90.7241ZM76.1723 91.0175L75.2757 91.4603L75.2765 91.4619L76.1723 91.0175ZM76.2617 91.1983L77.1505 90.7399L77.1504 90.7397L76.2617 91.1983ZM76.444 91.5364L77.3201 91.0542L77.3188 91.0518L76.444 91.5364ZM76.5108 91.6588L77.3801 91.1646L77.38 91.1644L76.5108 91.6588ZM76.7777 92.1058L75.9303 92.6368L75.9304 92.6369L76.7777 92.1058ZM76.8438 92.2068L76.0008 92.7449L76.001 92.7451L76.8438 92.2068ZM77.0629 92.5395L76.2385 93.1055L76.2394 93.1069L77.0629 92.5395ZM77.169 92.6888L76.3518 93.2652L76.3532 93.2672L77.169 92.6888ZM77.3652 92.9598L78.1644 92.3586L78.1639 92.358L77.3652 92.9598ZM77.4877 93.1182L76.6978 93.7314L76.698 93.7316L77.4877 93.1182ZM77.684 93.3653L76.9112 94L76.912 94.001L77.684 93.3653ZM77.817 93.5237L78.5802 92.8775L78.5795 92.8766L77.817 93.5237ZM78.0196 93.7566L78.7656 93.0907L78.7654 93.0905L78.0196 93.7566ZM78.1594 93.9097L78.8929 93.23L78.8922 93.2292L78.1594 93.9097ZM78.2592 94.0191V95.0191H80.5931L78.9832 93.3294L78.2592 94.0191ZM3.79298 86.8276V85.8276H2.59115L2.80964 87.0094L3.79298 86.8276ZM99.1184 10.8101L98.1201 10.7514L98.0578 11.8101H99.1184V10.8101ZM99.122 10.7725L98.1327 10.6257L98.1309 10.6391L99.122 10.7725ZM99.1497 10.6079L100.135 10.7772L100.136 10.7743L99.1497 10.6079ZM99.1912 10.3769L98.2103 10.1823L98.2102 10.1826L99.1912 10.3769ZM99.2285 10.2028L98.2522 9.98659L98.2521 9.98719L99.2285 10.2028ZM99.2782 9.98825L98.3081 9.74572L98.3075 9.74804L99.2782 9.98825ZM99.3252 9.8096L98.3608 9.54532L98.3604 9.54682L99.3252 9.8096ZM99.3828 9.60709L100.341 9.89317L100.341 9.89234L99.3828 9.60709ZM99.4395 9.42602L100.39 9.73537L100.391 9.73365L99.4395 9.42602ZM99.5043 9.2346L98.5614 8.90178L98.5612 8.90234L99.5043 9.2346ZM99.5711 9.05088L100.506 9.40688L100.507 9.40406L99.5711 9.05088ZM99.6418 8.87199L100.569 9.24726L100.569 9.24645L99.6418 8.87199ZM99.7194 8.6849L100.636 9.08441L100.637 9.08172L99.7194 8.6849ZM99.7937 8.52072L98.8854 8.10231L98.8852 8.10268L99.7937 8.52072ZM99.8838 8.32808L100.782 8.76846L100.782 8.76795L99.8838 8.32808ZM99.9559 8.18777L100.845 8.64595L100.845 8.64484L99.9559 8.18777ZM100.064 7.98067L100.94 8.46342L100.942 8.45952L100.064 7.98067ZM100.109 7.90231L99.2388 7.41053L99.2368 7.41396L100.109 7.90231ZM100.661 7.04884L101.466 7.6421L101.469 7.63702L100.661 7.04884ZM100.666 7.04113L99.8624 6.44609L99.8574 6.45296L100.666 7.04113ZM100.865 6.7834L100.086 6.15701L100.084 6.15952L100.865 6.7834ZM100.897 6.74265L100.12 6.11378L100.118 6.11626L100.897 6.74265ZM101.101 6.50108L101.855 7.15845L101.856 7.15695L101.101 6.50108ZM101.14 6.45672L101.889 7.11956L101.889 7.11939L101.14 6.45672ZM101.356 6.22238L100.635 5.52926L100.633 5.53131L101.356 6.22238ZM101.392 6.18453L102.106 6.88475L102.11 6.88053L101.392 6.18453ZM101.625 5.95283L100.938 5.22635L100.933 5.23048L101.625 5.95283ZM101.652 5.92728L100.964 5.20148L100.954 5.21055L101.652 5.92728ZM101.907 5.69486L102.564 6.44848L102.573 6.44036L102.583 6.43202L101.907 5.69486ZM101.916 5.68715L101.259 4.93307L101.249 4.94141L101.24 4.94999L101.916 5.68715ZM105.892 3.7613L106.075 4.74441L106.143 4.73179L106.209 4.70998L105.892 3.7613ZM105.895 3.76081L105.712 2.77766L105.644 2.79029L105.579 2.81213L105.895 3.76081ZM106.267 3.7003L106.14 2.70848L106.13 2.70979L106.267 3.7003ZM106.29 3.69741L106.418 4.68922L106.426 4.6881L106.29 3.69741ZM106.65 3.6557L106.558 2.65991L106.557 2.66007L106.65 3.6557ZM106.706 3.6516L106.783 4.64862L106.792 4.64782L106.706 3.6516ZM107.039 3.62845L106.994 2.62945L106.992 2.62958L107.039 3.62845ZM107.234 3.62339L107.21 2.62368L107.208 2.62373L107.234 3.62339ZM115.66 10.8101V11.8101H116.862L116.644 10.6283L115.66 10.8101ZM123.438 33.3483L122.438 33.3598L122.438 33.3602L123.438 33.3483ZM123.436 33.2851L124.436 33.251L124.436 33.2426L123.436 33.2851ZM123.347 32.7957L122.393 33.094L122.395 33.1018L122.398 33.1097L123.347 32.7957ZM123.341 32.7725L122.396 33.0997L122.399 33.1069L123.341 32.7725ZM123.333 32.7542L124.278 32.4271L124.275 32.4166L123.333 32.7542ZM123.233 32.524L124.12 32.0606L124.118 32.0582L123.233 32.524ZM123.218 32.4972L124.103 32.0315L124.099 32.024L124.095 32.0165L123.218 32.4972ZM123.1 32.3096L122.287 32.8923L122.288 32.8933L123.1 32.3096ZM123.073 32.2711L123.873 31.6711L123.87 31.6671L123.073 32.2711ZM122.918 32.0931L122.204 32.7932L122.207 32.7956L122.918 32.0931ZM122.881 32.0577L122.188 32.778L122.188 32.7788L122.881 32.0577ZM122.716 31.9169L123.318 31.1185L123.316 31.1169L122.716 31.9169ZM122.693 31.8988L123.282 31.0901L123.281 31.0896L122.693 31.8988ZM122.488 31.7708L122.01 32.6493L122.011 32.6498L122.488 31.7708ZM122.447 31.7496L121.996 32.6422L122 32.644L122.447 31.7496ZM122.222 31.6527L121.775 32.5471L121.834 32.5768L121.897 32.5984L122.222 31.6527ZM122.221 31.6522L121.896 32.5982L122.054 32.6522H122.221V31.6522ZM121.981 31.5895L121.785 32.5701L121.787 32.5705L121.981 31.5895ZM121.927 31.5798L121.764 32.5665L121.771 32.5676L121.927 31.5798ZM121.677 31.5541L121.651 32.5537L121.651 32.5537L121.677 31.5541ZM76.8136 46.2009L77.5658 46.8599L77.5658 46.8599L76.8136 46.2009ZM68.4809 63.6315L69.4337 63.9352L69.4338 63.9351L68.4809 63.6315ZM68.0012 65.1326L68.9531 65.4389L68.9531 65.4388L68.0012 65.1326ZM67.9819 65.1962L68.9445 65.4672L68.9446 65.4666L67.9819 65.1962ZM64.9239 76.0572L63.9613 75.7862L63.9613 75.7862L64.9239 76.0572ZM66.1751 78.2895L66.4469 77.3271L66.4463 77.327L66.1751 78.2895ZM68.4074 77.0377L69.37 77.3088L69.37 77.3088L68.4074 77.0377ZM71.2436 66.9644L70.8193 66.0589L70.405 66.253L70.2811 66.6934L71.2436 66.9644ZM81.2738 63.5541L81.5362 64.5191L81.5364 64.519L81.2738 63.5541ZM88.1305 61.5938L87.8366 60.638L87.8365 60.638L88.1305 61.5938ZM110.18 46.8034L110.915 47.4821L110.915 47.4821L110.18 46.8034ZM122.783 34.7582L122.153 33.9809L122.146 33.9871L122.783 34.7582ZM122.797 34.7447L122.15 33.9819L122.146 33.9854L122.797 34.7447ZM122.976 34.5718L123.721 35.2387L123.728 35.2303L122.976 34.5718ZM122.986 34.561L123.717 35.2433L123.727 35.2333L123.736 35.223L122.986 34.561ZM123.137 34.363L123.97 34.9157L123.971 34.9141L123.137 34.363ZM123.161 34.3245L124.008 34.8573L124.008 34.8564L123.161 34.3245ZM123.364 33.876L122.406 33.5873L122.405 33.5929L123.364 33.876ZM123.377 33.8305L122.411 33.5726L122.41 33.5737L123.377 33.8305ZM123.426 33.5894L122.436 33.4479L122.434 33.4563L122.433 33.4646L123.426 33.5894ZM123.426 33.5795L122.434 33.4597L122.431 33.4839L122.429 33.5082L123.426 33.5795ZM123.439 33.4095L122.44 33.3746L122.44 33.3843L123.439 33.4095ZM79.536 48.5854L80.2882 49.2443L80.2883 49.2443L79.536 48.5854ZM98.7227 37.8133L98.9875 38.7776L98.9875 38.7776L98.7227 37.8133ZM105.926 36.251L106.362 37.1508L105.763 35.2644L105.926 36.251ZM90.1453 45.434L89.5899 44.6025L89.5898 44.6025L90.1453 45.434ZM74.4277 57.4499L73.4976 57.0827L75.0984 58.1916L74.4277 57.4499ZM107.523 44.3472L108.257 45.0258L108.257 45.0258L107.523 44.3472ZM87.0668 58.1343L87.3607 59.0902L87.3607 59.0902L87.0668 58.1343ZM80.3242 60.0616L80.0618 59.0967L80.0618 59.0967L80.3242 60.0616ZM75.4199 61.4675L74.7282 60.7453L75.7224 62.4206L75.4199 61.4675ZM77.9169 59.1932L77.2595 58.4396L77.2595 58.4397L77.9169 59.1932ZM92.1556 48.4436L92.7111 49.2751L92.7111 49.2751L92.1556 48.4436ZM115.618 36.2028L116.295 36.9384L115.325 35.2466L115.618 36.2028ZM86.7896 17.5126H48.2716V19.5126H86.7896V17.5126ZM48.2716 17.5126C46.7199 17.5126 45.4622 18.7704 45.4622 20.322H47.4622C47.4622 19.8749 47.8245 19.5126 48.2716 19.5126V17.5126ZM45.4622 20.322C45.4622 21.8736 46.7199 23.1314 48.2716 23.1314V21.1314C47.8245 21.1314 47.4622 20.769 47.4622 20.322H45.4622ZM48.2716 23.1314H86.7893V21.1314H48.2716V23.1314ZM86.7893 23.1314C88.3408 23.1314 89.599 21.8738 89.599 20.322H87.599C87.599 20.7689 87.2366 21.1314 86.7893 21.1314V23.1314ZM89.599 20.322C89.599 18.77 88.3411 17.5126 86.7896 17.5126V19.5126C87.2367 19.5126 87.599 19.8748 87.599 20.322L89.599 20.322ZM39.8522 17.5126H33.7511V19.5126H39.8522V17.5126ZM33.7511 17.5126C32.1994 17.5126 30.9416 18.7704 30.9416 20.322H32.9416C32.9416 19.8749 33.304 19.5126 33.7511 19.5126V17.5126ZM30.9416 20.322C30.9416 21.8735 32.1991 23.1314 33.7511 23.1314V21.1314C33.3039 21.1314 32.9416 20.7691 32.9416 20.322H30.9416ZM33.7511 23.1314H39.8522V21.1314H33.7511V23.1314ZM39.8522 23.1314C41.4038 23.1314 42.6616 21.8736 42.6616 20.322H40.6616C40.6616 20.769 40.2992 21.1314 39.8522 21.1314V23.1314ZM42.6616 20.322C42.6616 18.7704 41.4038 17.5126 39.8522 17.5126V19.5126C40.2992 19.5126 40.6616 19.8749 40.6616 20.322H42.6616ZM52.6766 72.9749H33.7511V74.9749H52.6766V72.9749ZM33.7511 72.9749C32.1994 72.9749 30.9416 74.2327 30.9416 75.7843H32.9416C32.9416 75.3372 33.304 74.9749 33.7511 74.9749V72.9749ZM30.9416 75.7843C30.9416 77.3362 32.1995 78.5937 33.7511 78.5937V76.5937C33.3039 76.5937 32.9416 76.2315 32.9416 75.7843H30.9416ZM33.7511 78.5937H52.6766V76.5937H33.7511V78.5937ZM52.6766 78.5937C54.2283 78.5937 55.486 77.3359 55.486 75.7843H53.486C53.486 76.2313 53.1237 76.5937 52.6766 76.5937V78.5937ZM55.486 75.7843C55.486 74.2323 54.2282 72.9749 52.6766 72.9749V74.9749C53.1238 74.9749 53.486 75.3371 53.486 75.7843H55.486ZM60.2703 54.4876H33.7511V56.4876H60.2703V54.4876ZM33.7511 54.4876C32.1994 54.4876 30.9416 55.7454 30.9416 57.297H32.9416C32.9416 56.85 33.304 56.4876 33.7511 56.4876V54.4876ZM30.9416 57.297C30.9416 58.849 32.1995 60.1064 33.7511 60.1064V58.1064C33.3039 58.1064 32.9416 57.7442 32.9416 57.297H30.9416ZM33.7511 60.1064H60.2703V58.1064H33.7511V60.1064ZM60.2703 60.1064C61.8216 60.1064 63.0798 58.8487 63.0798 57.297H61.0798C61.0798 57.744 60.7172 58.1064 60.2703 58.1064V60.1064ZM63.0798 57.297C63.0798 55.7451 61.8219 54.4876 60.2703 54.4876V56.4876C60.7175 56.4876 61.0798 56.8498 61.0798 57.297H63.0798ZM73.1792 35.9999H33.7511V37.9999H73.1792V35.9999ZM33.7511 35.9999C32.1994 35.9999 30.9416 37.2576 30.9416 38.8093H32.9416C32.9416 38.3622 33.304 37.9999 33.7511 37.9999V35.9999ZM30.9416 38.8093C30.9416 40.3609 32.1994 41.6187 33.7511 41.6187V39.6187C33.304 39.6187 32.9416 39.2563 32.9416 38.8093H30.9416ZM33.7511 41.6187H73.1792V39.6187H33.7511V41.6187ZM73.179 41.6187C74.7309 41.619 75.9886 40.361 75.9886 38.8093H73.9886C73.9886 39.2567 73.6262 39.6188 73.1794 39.6187L73.179 41.6187ZM75.9886 38.8093C75.9886 37.2573 74.7307 35.9999 73.1792 35.9999V37.9999C73.6263 37.9999 73.9886 38.3621 73.9886 38.8093H75.9886ZM107.423 -1H32.6427V1H107.423V-1ZM32.6427 -1C25.4666 -1 19.6302 4.83666 19.6302 12.0127H21.6302C21.6302 5.94118 26.5712 1 32.6427 1V-1ZM19.6302 12.0127V83.2085H21.6302V12.0127H19.6302ZM20.6302 82.2085H1.80926V84.2085H20.6302V82.2085ZM1.80926 82.2085C1.05954 82.2085 0.340517 82.5083 -0.187081 83.0411L1.23411 84.4483C1.38591 84.295 1.59316 84.2085 1.80926 84.2085V82.2085ZM-0.187078 83.0411C-0.714751 83.574 -1.00771 84.2959 -0.999846 85.0462L1.00004 85.0253C0.997785 84.8098 1.08189 84.602 1.2341 84.4483L-0.187078 83.0411ZM-0.999851 85.0457C-0.92359 92.7234 4.63239 98.6379 12.0097 98.6379V96.6379C5.83656 96.6379 1.06652 91.7173 1.00005 85.0258L-0.999851 85.0457ZM87.0174 98.6379C94.1935 98.6379 100.03 92.8013 100.03 85.6252H98.0299C98.0299 91.6968 93.0889 96.6379 87.0174 96.6379V98.6379ZM100.03 85.6252V63.6995H98.0299V85.6252H100.03ZM100.03 63.6995C100.03 62.1475 98.7715 60.8903 97.2202 60.8903V62.8903C97.6676 62.8903 98.0299 63.2528 98.0299 63.6995H100.03ZM97.2202 60.8903C95.6686 60.8903 94.4108 62.1481 94.4108 63.6997H96.4108C96.4108 63.2527 96.7732 62.8903 97.2202 62.8903V60.8903ZM94.4108 63.6997V85.6255H96.4108V63.6997H94.4108ZM94.4108 85.6255C94.4108 89.7017 91.0931 93.0191 87.0174 93.0191V95.0191C92.1977 95.0191 96.4108 90.8063 96.4108 85.6255H94.4108ZM87.0174 93.0191H86.7896V95.0191H87.0174V93.0191ZM86.7896 93.0191C82.681 93.0191 79.4452 89.6619 79.3987 84.9901L77.3988 85.01C77.4546 90.6214 81.4333 95.0191 86.7896 95.0191V93.0191ZM79.3987 84.9901C79.3834 83.4495 78.1302 82.2085 76.5894 82.2085V84.2085C77.0333 84.2085 77.3944 84.566 77.3988 85.01L79.3987 84.9901ZM76.5894 82.2085H24.25V84.2085H76.5894V82.2085ZM25.25 83.2085V12.0125H23.25V83.2085H25.25ZM25.25 12.0125C25.25 7.93625 28.5677 4.61881 32.6434 4.61881V2.61881C27.4631 2.61881 23.25 6.83168 23.25 12.0125H25.25ZM32.6434 4.61881H98.8375V2.61881H32.6434V4.61881ZM98.1225 2.91969C98.0654 2.97807 97.9713 3.08163 97.9533 3.10083L99.4112 4.46998C99.4973 4.37827 99.5035 4.36804 99.5525 4.31793L98.1225 2.91969ZM97.9532 3.10086C97.9001 3.15741 97.8215 3.23958 97.7507 3.31814L99.2362 4.65723C99.2888 4.59885 99.338 4.54793 99.4112 4.46995L97.9532 3.10086ZM97.7503 3.31858C97.6737 3.40358 97.5996 3.49137 97.5413 3.55964L99.0622 4.85837C99.1308 4.77813 99.1825 4.71692 99.2366 4.65678L97.7503 3.31858ZM97.5427 3.558C97.4895 3.61999 97.4149 3.70556 97.3457 3.79028L98.8943 5.05592C98.9437 4.9955 98.992 4.94027 99.0608 4.86001L97.5427 3.558ZM97.3457 3.79027C97.2746 3.87728 97.2022 3.97191 97.1513 4.03717L98.7284 5.26711C98.7971 5.17902 98.8424 5.11936 98.8943 5.05593L97.3457 3.79027ZM97.1511 4.03749C97.1004 4.10247 97.0299 4.19152 96.9645 4.27973L98.5706 5.47153C98.6175 5.40833 98.6636 5.35031 98.7287 5.26678L97.1511 4.03749ZM96.9633 4.28124C96.897 4.37098 96.8317 4.46518 96.7819 4.53586L98.4171 5.68746C98.4787 5.59998 98.5233 5.53554 98.5717 5.47002L96.9633 4.28124ZM96.7821 4.53547C96.7344 4.60314 96.6677 4.6962 96.6065 4.78707L98.2659 5.90349C98.3109 5.83668 98.355 5.77544 98.4168 5.68784L96.7821 4.53547ZM96.6046 4.79C96.5424 4.88315 96.4825 4.9791 96.4354 5.05354L98.126 6.12209C98.1817 6.03404 98.2235 5.96701 98.2679 5.90056L96.6046 4.79ZM96.4369 5.05127C96.393 5.12033 96.3291 5.21874 96.2715 5.31425L97.9843 6.34695C98.0255 6.27851 98.0658 6.21683 98.1246 6.12437L96.4369 5.05127ZM96.2713 5.31463C96.2128 5.41164 96.1558 5.51407 96.1143 5.58715L97.8536 6.57456C97.9071 6.48032 97.9436 6.41446 97.9845 6.34657L96.2713 5.31463ZM96.1156 5.58499C96.077 5.65259 96.0151 5.75803 95.9617 5.85725L97.7227 6.80545C97.7604 6.73543 97.796 6.67548 97.8524 6.57672L96.1156 5.58499ZM95.9628 5.85531C95.9084 5.95571 95.8539 6.06634 95.8184 6.13639L97.6022 7.0408C97.654 6.93871 97.6843 6.87624 97.7216 6.80739L95.9628 5.85531ZM95.8189 6.13538C95.7841 6.2038 95.7266 6.31366 95.6781 6.41522L97.4827 7.27743C97.5171 7.2054 97.5492 7.14505 97.6017 7.04181L95.8189 6.13538ZM95.6781 6.41513C95.6302 6.51539 95.5793 6.63235 95.5489 6.69982L97.3722 7.52179C97.4213 7.41278 97.4471 7.35181 97.4826 7.27752L95.6781 6.41513ZM95.5484 6.70096C95.5168 6.77131 95.4646 6.88374 95.4209 6.98777L97.2649 7.76232C97.2959 7.68842 97.3252 7.6263 97.3727 7.52065L95.5484 6.70096ZM95.4212 6.9871C95.3772 7.09172 95.3318 7.21194 95.3043 7.28206L97.166 8.0129C97.2098 7.90123 97.2329 7.83822 97.2646 7.76299L95.4212 6.9871ZM95.3042 7.28214C95.2761 7.35389 95.2295 7.46844 95.1909 7.57444L97.0701 8.25912C97.0975 8.18382 97.1238 8.12044 97.166 8.01282L95.3042 7.28214ZM95.1912 7.57367C95.151 7.68356 95.1116 7.80635 95.0866 7.88118L96.983 8.51654C97.0211 8.40283 97.0419 8.33612 97.0698 8.25989L95.1912 7.57367ZM95.0866 7.88112C95.065 7.94554 95.0214 8.06956 94.9889 8.17425L96.8989 8.76737C96.9233 8.68883 96.9438 8.63348 96.9829 8.5166L95.0866 7.88112ZM94.9887 8.17471C94.9537 8.28763 94.9192 8.41697 94.8981 8.49207L96.8233 9.03397C96.8571 8.91378 96.8742 8.84687 96.899 8.76691L94.9887 8.17471ZM94.8978 8.49301C94.8805 8.55478 94.8423 8.68328 94.8154 8.78816L96.7527 9.28515C96.773 9.20584 96.7898 9.15353 96.8236 9.03303L94.8978 8.49301ZM94.815 8.78978C94.7852 8.90664 94.7567 9.03962 94.7383 9.11983L96.688 9.56586C96.7164 9.44162 96.7313 9.36919 96.7531 9.28353L94.815 8.78978ZM94.7381 9.12066C94.7252 9.17751 94.6927 9.30984 94.6715 9.41475L96.6318 9.81099C96.6473 9.7346 96.6601 9.68804 96.6882 9.56503L94.7381 9.12066ZM94.6719 9.41291C94.6465 9.53735 94.6242 9.67478 94.6091 9.76136L96.579 10.1067C96.6015 9.97866 96.6135 9.90103 96.6315 9.81283L94.6719 9.41291ZM94.6088 9.76267C94.6006 9.80993 94.5736 9.95079 94.5585 10.05L96.536 10.3493C96.548 10.2702 96.5566 10.2355 96.5793 10.1053L94.6088 9.76267ZM94.5586 10.0498C94.5384 10.1827 94.5225 10.3277 94.5107 10.4234L96.4957 10.6679C96.5123 10.5327 96.5214 10.4457 96.536 10.3496L94.5586 10.0498ZM94.5104 10.4252C94.5066 10.4571 94.4858 10.606 94.4768 10.6954L96.4668 10.8955C96.4747 10.8171 96.4795 10.801 96.4959 10.6662L94.5104 10.4252ZM94.4769 10.6952C94.4618 10.845 94.4524 10.998 94.4443 11.1175L96.4396 11.254C96.4493 11.1127 96.4558 11.0043 96.4668 10.8957L94.4769 10.6952ZM94.4442 11.1186C94.4425 11.1439 94.4404 11.168 94.4369 11.2097C94.4338 11.2467 94.4297 11.2965 94.427 11.3501L96.4245 11.4506C96.4286 11.3695 96.4298 11.3993 96.4397 11.253L94.4442 11.1186ZM94.427 11.3505C94.4161 11.5693 94.4103 11.7901 94.4103 12.0127H96.4103C96.4103 11.8245 96.4152 11.6369 96.4245 11.4502L94.427 11.3505ZM94.4103 28.0724C94.4103 29.6244 95.6682 30.8818 97.2197 30.8818V28.8818C96.7726 28.8818 96.4103 28.5196 96.4103 28.0724H94.4103ZM97.2197 30.8818C98.7714 30.8818 100.029 29.624 100.029 28.0724H98.0292C98.0292 28.5195 97.6668 28.8818 97.2197 28.8818V30.8818ZM100.029 28.0724V14.4294H98.0292V28.0724H100.029ZM99.0292 15.4294H117.642V13.4294H99.0292V15.4294ZM117.642 15.4294C118.392 15.4294 119.111 15.1297 119.639 14.5968L118.217 13.1896C118.066 13.3429 117.858 13.4294 117.642 13.4294V15.4294ZM119.639 14.5968C120.166 14.0639 120.459 13.342 120.451 12.5917L118.451 12.6127C118.454 12.8281 118.37 13.0359 118.217 13.1896L119.639 14.5968ZM120.451 12.5923C120.375 4.91348 114.818 -1 107.423 -1V1C113.616 1 118.385 5.92174 118.451 12.6121L120.451 12.5923ZM73.9148 86.959C73.9416 87.1614 73.9727 87.3603 74.0067 87.556L75.9771 87.213C75.947 87.0403 75.9202 86.8684 75.8974 86.6961L73.9148 86.959ZM74.0064 87.5539C74.0176 87.6195 74.0404 87.7319 74.0444 87.7532L76.0099 87.3832C75.9907 87.2815 75.9874 87.2729 75.9775 87.2151L74.0064 87.5539ZM74.0444 87.7531C74.0668 87.8725 74.0922 88.0079 74.1217 88.1437L76.0762 87.7198C76.0536 87.6155 76.0332 87.5074 76.0099 87.3833L74.0444 87.7531ZM74.1211 88.1411C74.1382 88.2207 74.1631 88.3234 74.1738 88.37L76.123 87.9222C76.1009 87.826 76.0906 87.787 76.0768 87.7225L74.1211 88.1411ZM74.1742 88.3718C74.1992 88.4798 74.2272 88.5997 74.2586 88.7207L76.1944 88.2181C76.1704 88.1255 76.1477 88.0289 76.1226 87.9205L74.1742 88.3718ZM74.258 88.7185C74.2802 88.8047 74.3049 88.8925 74.3233 88.9589L76.2512 88.4269C76.2286 88.3448 76.2114 88.2841 76.195 88.2203L74.258 88.7185ZM74.3236 88.9601C74.352 89.0626 74.3831 89.1736 74.417 89.2859L76.3315 88.7074C76.3047 88.6187 76.2789 88.5267 76.2509 88.4257L74.3236 88.9601ZM74.4165 89.2843C74.4422 89.3697 74.4685 89.4523 74.4932 89.5289L76.3966 88.9149C76.3731 88.8419 76.3517 88.7746 76.332 88.7091L74.4165 89.2843ZM74.4926 89.5268C74.5264 89.6326 74.5615 89.7376 74.5975 89.8413L76.4872 89.1863C76.4561 89.0967 76.4261 89.0068 76.3973 88.9169L74.4926 89.5268ZM74.5974 89.841C74.6246 89.9197 74.6533 90.0007 74.6836 90.0828L76.5597 89.3899C76.5356 89.3245 76.5116 89.257 76.4873 89.1866L74.5974 89.841ZM74.6828 90.0807C74.7213 90.1856 74.7607 90.2885 74.8007 90.3895L76.6606 89.6541C76.6258 89.5661 76.5924 89.479 76.5605 89.392L74.6828 90.0807ZM74.8009 90.39C74.8277 90.4578 74.8595 90.5388 74.8926 90.6188L76.7408 89.8545C76.715 89.7922 76.6904 89.7295 76.6604 89.6536L74.8009 90.39ZM74.8933 90.6204C74.9376 90.7271 74.983 90.8303 75.0248 90.9251L76.8545 90.1176C76.8129 90.0234 76.7753 89.9376 76.7401 89.8528L74.8933 90.6204ZM75.0248 90.9251C75.0521 90.987 75.087 91.067 75.1232 91.145L76.9374 90.3032C76.9114 90.2472 76.887 90.1911 76.8545 90.1176L75.0248 90.9251ZM75.123 91.1446C75.175 91.2568 75.2291 91.3659 75.2757 91.4603L77.069 90.5748C77.0196 90.4748 76.9772 90.3891 76.9376 90.3036L75.123 91.1446ZM75.2765 91.4619C75.2937 91.4966 75.3386 91.5901 75.3731 91.657L77.1504 90.7397C77.1232 90.687 77.1107 90.659 77.0682 90.5732L75.2765 91.4619ZM75.373 91.6568C75.439 91.7847 75.5065 91.9076 75.5692 92.0209L77.3188 91.0518C77.2576 90.9413 77.2021 90.84 77.1505 90.7399L75.373 91.6568ZM75.5679 92.0185C75.5698 92.022 75.6181 92.112 75.6416 92.1533L77.38 91.1644C77.3577 91.1252 77.363 91.1322 77.3201 91.0542L75.5679 92.0185ZM75.6414 92.153C75.7345 92.3168 75.8308 92.478 75.9303 92.6368L77.6251 91.5748C77.5408 91.4404 77.4592 91.3037 77.3801 91.1646L75.6414 92.153ZM75.9304 92.6369C75.949 92.6667 75.9669 92.6935 75.9779 92.7101C75.9911 92.7299 75.9962 92.7376 76.0008 92.7449L77.6867 91.6688C77.6696 91.6421 77.6524 91.6164 77.6434 91.6027C77.6321 91.5859 77.6278 91.5792 77.625 91.5747L75.9304 92.6369ZM76.001 92.7451C76.0755 92.8618 76.1547 92.9835 76.2385 93.1055L77.8873 91.9736C77.8211 91.8772 77.7552 91.7761 77.6865 91.6686L76.001 92.7451ZM76.2394 93.1069C76.2736 93.1565 76.3382 93.2459 76.3518 93.2652L77.9862 92.1124C77.9293 92.0318 77.9216 92.0233 77.8864 91.9722L76.2394 93.1069ZM76.3532 93.2672C76.4171 93.3573 76.4896 93.4594 76.5665 93.5615L78.1639 92.358C78.1068 92.2822 78.0501 92.2025 77.9848 92.1104L76.3532 93.2672ZM76.5661 93.5609C76.6124 93.6225 76.6646 93.6886 76.6978 93.7314L78.2776 92.505C78.2289 92.4422 78.1986 92.4041 78.1644 92.3586L76.5661 93.5609ZM76.698 93.7316C76.7641 93.8167 76.8359 93.9083 76.9112 94L78.4567 92.7305C78.399 92.6603 78.3406 92.586 78.2774 92.5047L76.698 93.7316ZM76.912 94.001C76.9614 94.0609 77.0108 94.1191 77.0546 94.1707L78.5795 92.8766C78.5341 92.8232 78.4943 92.7762 78.4559 92.7296L76.912 94.001ZM77.0538 94.1698C77.1261 94.2552 77.1994 94.3394 77.2737 94.4227L78.7654 93.0905C78.7028 93.0204 78.6411 92.9494 78.5802 92.8775L77.0538 94.1698ZM77.2735 94.4225C77.3258 94.4811 77.3776 94.5374 77.4266 94.5901L78.8922 93.2292C78.8471 93.1807 78.8054 93.1352 78.7656 93.0907L77.2735 94.4225ZM77.4259 94.5894C77.4359 94.6002 77.4453 94.6107 77.4652 94.6328C77.4823 94.6518 77.5073 94.6796 77.5352 94.7089L78.9832 93.3294C78.9396 93.2836 78.9765 93.3202 78.8929 93.23L77.4259 94.5894ZM78.2592 93.0191H12.0094V95.0191H78.2592V93.0191ZM12.0094 93.0191C8.3907 93.0191 5.47593 90.43 4.77631 86.6458L2.80964 87.0094C3.66508 91.6364 7.32299 95.0191 12.0094 95.0191V93.0191ZM3.79298 87.8276H74.9061V85.8276H3.79298V87.8276ZM100.117 10.8689C100.116 10.8804 100.115 10.8925 100.113 10.9059L98.1309 10.6391C98.1257 10.6776 98.1222 10.7153 98.1201 10.7514L100.117 10.8689ZM100.111 10.9194C100.117 10.8792 100.123 10.8487 100.135 10.7772L98.1641 10.4385C98.1576 10.4765 98.1432 10.5555 98.1328 10.6257L100.111 10.9194ZM100.136 10.7743C100.149 10.6976 100.16 10.6327 100.172 10.5712L98.2102 10.1826C98.192 10.2744 98.1767 10.3638 98.1636 10.4415L100.136 10.7743ZM100.172 10.5715C100.181 10.5265 100.191 10.4822 100.205 10.4185L98.2521 9.98719C98.2406 10.0392 98.2245 10.1106 98.2103 10.1823L100.172 10.5715ZM100.205 10.4191C100.22 10.3488 100.234 10.2871 100.249 10.2285L98.3075 9.74804C98.2868 9.83164 98.2685 9.91312 98.2522 9.98659L100.205 10.4191ZM100.248 10.2308C100.261 10.1809 100.275 10.1291 100.29 10.0724L98.3604 9.54682C98.3435 9.60874 98.3255 9.676 98.3081 9.74572L100.248 10.2308ZM100.29 10.0739C100.307 10.0101 100.324 9.95025 100.341 9.89317L98.4246 9.321C98.4017 9.39797 98.3804 9.47363 98.3608 9.54532L100.29 10.0739ZM100.341 9.89234C100.356 9.84207 100.373 9.79024 100.39 9.73537L98.4885 9.11668C98.4673 9.18187 98.4456 9.25059 98.4244 9.32183L100.341 9.89234ZM100.391 9.73365C100.409 9.67951 100.427 9.62426 100.448 9.56686L98.5612 8.90234C98.5365 8.97223 98.5119 9.04428 98.488 9.11839L100.391 9.73365ZM100.447 9.56742C100.469 9.50697 100.487 9.45534 100.506 9.40688L98.6366 8.69489C98.6088 8.76793 98.5834 8.83926 98.5614 8.90178L100.447 9.56742ZM100.507 9.40406C100.525 9.35627 100.545 9.30676 100.569 9.24726L98.7148 8.49672C98.6907 8.55632 98.6628 8.62544 98.6356 8.6977L100.507 9.40406ZM100.569 9.24645C100.595 9.18296 100.615 9.1323 100.636 9.08441L98.8027 8.28539C98.7695 8.36142 98.7395 8.43565 98.7145 8.49753L100.569 9.24645ZM100.637 9.08172C100.655 9.03989 100.675 8.99848 100.702 8.93876L98.8852 8.10268C98.8626 8.15193 98.8312 8.21949 98.8015 8.28808L100.637 9.08172ZM100.702 8.93913C100.735 8.86707 100.757 8.81778 100.782 8.76846L98.986 7.88771C98.948 7.9652 98.9115 8.04562 98.8854 8.10231L100.702 8.93913ZM100.782 8.76795C100.799 8.73242 100.81 8.71264 100.845 8.64594L99.067 7.72959C99.0532 7.75645 99.0147 7.82924 98.9858 7.88822L100.782 8.76795ZM100.845 8.64484C100.885 8.5681 100.911 8.51549 100.94 8.46342L99.1886 7.49792C99.1421 7.58231 99.0984 7.66857 99.0665 7.7307L100.845 8.64484ZM100.942 8.45952C100.941 8.46142 100.942 8.46044 100.949 8.44751C100.955 8.43846 100.969 8.41492 100.982 8.39067L99.2368 7.41396C99.2369 7.41389 99.2367 7.41423 99.2362 7.4151C99.2357 7.41597 99.235 7.41723 99.2339 7.41904C99.2314 7.4234 99.2291 7.4272 99.2244 7.43529C99.2167 7.44834 99.202 7.47339 99.1865 7.50182L100.942 8.45952ZM100.98 8.39409C101.129 8.13133 101.29 7.87997 101.466 7.64209L99.8556 6.4556C99.6297 6.76211 99.4245 7.08166 99.2388 7.41054L100.98 8.39409ZM101.469 7.63702C101.473 7.63174 101.477 7.62711 101.477 7.62628C101.478 7.62458 101.477 7.62667 101.475 7.6293L99.8574 6.45296C99.8536 6.45823 99.8503 6.46286 99.8497 6.46369C99.8485 6.46539 99.85 6.4633 99.8519 6.46067L101.469 7.63702ZM101.47 7.63614C101.525 7.56204 101.583 7.4867 101.647 7.40728L100.084 6.15952C100.012 6.24983 99.9368 6.34566 99.8625 6.44611L101.47 7.63614ZM101.645 7.40979C101.656 7.39611 101.666 7.38327 101.67 7.37745C101.676 7.36965 101.677 7.36886 101.677 7.36905L100.118 6.11626C100.107 6.12995 100.097 6.14279 100.092 6.14861C100.086 6.15641 100.086 6.1572 100.086 6.15701L101.645 7.40979ZM101.675 7.37152C101.731 7.30269 101.79 7.23255 101.855 7.15845L100.348 5.84371C100.274 5.92824 100.197 6.01868 100.12 6.11379L101.675 7.37152ZM101.856 7.15695C101.876 7.13381 101.879 7.12996 101.889 7.11956L100.391 5.79388C100.374 5.8129 100.352 5.83894 100.346 5.84521L101.856 7.15695ZM101.889 7.11939C101.949 7.05098 102.013 6.98264 102.079 6.91344L100.633 5.53131C100.552 5.61593 100.471 5.70334 100.391 5.79405L101.889 7.11939ZM102.077 6.91548C102.082 6.91008 102.087 6.90514 102.09 6.90119C102.093 6.89817 102.098 6.89283 102.1 6.89129C102.105 6.88568 102.106 6.88454 102.106 6.88473L100.678 5.48432C100.666 5.49705 100.655 5.50857 100.648 5.51561C100.64 5.52441 100.638 5.52646 100.635 5.52927L102.077 6.91548ZM102.11 6.88053C102.178 6.81011 102.247 6.74156 102.317 6.67519L100.933 5.23048C100.845 5.31551 100.758 5.40175 100.674 5.48852L102.11 6.88053ZM102.312 6.6793C102.32 6.67148 102.334 6.65834 102.349 6.644L100.954 5.21055C100.951 5.21357 100.947 5.21731 100.938 5.22636L102.312 6.6793ZM102.34 6.65301C102.415 6.58206 102.489 6.51387 102.564 6.44848L101.25 4.94125C101.151 5.02726 101.056 5.11434 100.964 5.20155L102.34 6.65301ZM102.583 6.43202C102.573 6.44089 102.565 6.44773 102.561 6.45157C102.558 6.45354 102.556 6.45506 102.556 6.45585C102.555 6.45655 102.554 6.4571 102.555 6.45664C102.555 6.45646 102.556 6.45528 102.558 6.45395C102.559 6.45253 102.562 6.45037 102.565 6.44776C102.571 6.44264 102.58 6.43451 102.591 6.4243L101.24 4.94999C101.25 4.94112 101.258 4.93428 101.262 4.93044C101.264 4.92847 101.266 4.92695 101.267 4.92616C101.268 4.92546 101.269 4.92491 101.268 4.92538C101.268 4.92555 101.266 4.92673 101.265 4.92806C101.263 4.92949 101.261 4.93164 101.258 4.93425C101.252 4.93937 101.242 4.94751 101.231 4.95771L102.583 6.43202ZM102.573 6.44123C103.55 5.58996 104.751 4.99093 106.075 4.74441L105.709 2.77819C104.024 3.09196 102.498 3.85415 101.259 4.93307L102.573 6.44123ZM106.209 4.70998C106.177 4.72037 106.15 4.72777 106.128 4.73302C106.107 4.73828 106.088 4.74197 106.075 4.74446C106.061 4.74695 106.051 4.74866 106.044 4.7496C106.041 4.7501 106.039 4.75048 106.037 4.7507C106.036 4.7509 106.035 4.75107 106.035 4.75103C106.035 4.75103 106.035 4.75102 106.035 4.751C106.035 4.75099 106.035 4.75096 106.035 4.75093C106.036 4.75087 106.037 4.75077 106.037 4.75065C106.039 4.75041 106.042 4.75002 106.045 4.74951C106.051 4.74853 106.062 4.74679 106.076 4.74427C106.09 4.74174 106.108 4.73801 106.13 4.7327C106.152 4.7274 106.18 4.71994 106.211 4.7095L105.579 2.81213C105.61 2.80174 105.637 2.79434 105.659 2.78909C105.68 2.78383 105.699 2.78014 105.712 2.77765C105.726 2.77516 105.736 2.77345 105.743 2.77251C105.746 2.77201 105.748 2.77163 105.75 2.77141C105.751 2.77121 105.753 2.77104 105.752 2.77108C105.752 2.77108 105.752 2.77109 105.752 2.77111C105.752 2.77112 105.752 2.77115 105.752 2.77118C105.751 2.77124 105.751 2.77134 105.75 2.77146C105.748 2.7717 105.745 2.77209 105.742 2.7726C105.736 2.77358 105.725 2.77532 105.711 2.77784C105.697 2.78037 105.679 2.7841 105.657 2.78941C105.635 2.79471 105.607 2.80217 105.576 2.81261L106.209 4.70998ZM106.078 4.74397C106.186 4.72381 106.295 4.70603 106.405 4.69081L106.13 2.70979C105.989 2.72929 105.85 2.75201 105.712 2.77766L106.078 4.74397ZM106.395 4.69208C106.399 4.69159 106.403 4.6911 106.407 4.69062C106.41 4.69014 106.414 4.68966 106.418 4.68918L106.162 2.70563C106.158 2.70612 106.154 2.7066 106.151 2.70709C106.147 2.70757 106.143 2.70805 106.14 2.70852L106.395 4.69208ZM106.426 4.6881C106.532 4.67358 106.638 4.66127 106.744 4.65132L106.557 2.66007C106.421 2.67279 106.287 2.68844 106.154 2.70671L106.426 4.6881ZM106.742 4.65148C106.739 4.65178 106.738 4.65177 106.746 4.65123C106.748 4.6511 106.75 4.65098 106.752 4.6508C106.755 4.65064 106.757 4.65045 106.761 4.65024C106.767 4.64982 106.774 4.64926 106.783 4.64858L106.628 2.65462C106.625 2.65486 106.623 2.65494 106.61 2.65589C106.599 2.65661 106.58 2.65793 106.558 2.65991L106.742 4.65148ZM106.792 4.64782C106.895 4.63891 106.992 4.63182 107.086 4.62733L106.992 2.62958C106.863 2.63569 106.738 2.645 106.619 2.65537L106.792 4.64782ZM107.084 4.62745C107.137 4.62505 107.168 4.62542 107.26 4.62306L107.208 2.62373C107.169 2.62473 107.07 2.62607 106.994 2.62945L107.084 4.62745ZM107.258 4.6231C107.356 4.62072 107.388 4.61857 107.444 4.61857V2.61857C107.358 2.61857 107.251 2.62269 107.21 2.62368L107.258 4.6231ZM107.444 4.61857C111.063 4.61857 113.977 7.20773 114.677 10.9919L116.644 10.6283C115.788 6.00129 112.13 2.61857 107.444 2.61857V4.61857ZM115.66 9.81014H99.1184V11.8101H115.66V9.81014ZM124.438 33.3368C124.438 33.308 124.437 33.2795 124.436 33.251L122.437 33.3192C122.438 33.3331 122.438 33.3466 122.438 33.3598L124.438 33.3368ZM124.436 33.2426C124.424 32.9795 124.377 32.7242 124.297 32.4817L122.398 33.1097C122.42 33.1777 122.434 33.2503 122.437 33.3276L124.436 33.2426ZM124.302 32.4974C124.31 32.5234 124.315 32.5442 124.318 32.5549C124.319 32.5604 124.32 32.5645 124.32 32.5659C124.32 32.5666 124.321 32.5671 124.32 32.5669C124.32 32.5665 124.32 32.5668 124.32 32.5662C124.32 32.5658 124.32 32.5653 124.32 32.5647C124.319 32.5614 124.316 32.5452 124.31 32.5254C124.305 32.5047 124.296 32.4742 124.284 32.4381L122.399 33.1069C122.387 33.0746 122.38 33.0479 122.375 33.031C122.373 33.0224 122.372 33.0155 122.37 33.011C122.369 33.0067 122.369 33.0035 122.369 33.0033C122.369 33.0032 122.369 33.0032 122.369 33.0033C122.369 33.0034 122.369 33.0035 122.369 33.0036C122.369 33.0037 122.369 33.0039 122.369 33.0041C122.369 33.0048 122.369 33.0063 122.37 33.008C122.37 33.0113 122.372 33.0174 122.374 33.0248C122.377 33.0394 122.383 33.0641 122.393 33.094L124.302 32.4974ZM124.286 32.4454C124.28 32.4266 124.273 32.41 124.268 32.396C124.262 32.3821 124.257 32.3702 124.253 32.3608C124.249 32.3516 124.245 32.344 124.243 32.3392C124.241 32.3347 124.239 32.3307 124.239 32.3305C124.238 32.3292 124.239 32.3317 124.241 32.3347C124.242 32.338 124.245 32.344 124.249 32.3518C124.252 32.3596 124.257 32.37 124.262 32.3824C124.267 32.3948 124.272 32.4098 124.278 32.4271L122.388 33.0813C122.395 33.1001 122.401 33.1167 122.407 33.1307C122.412 33.1447 122.418 33.1566 122.422 33.1659C122.426 33.1752 122.429 33.1827 122.432 33.1876C122.434 33.1921 122.436 33.196 122.436 33.1962C122.436 33.1975 122.435 33.1951 122.434 33.1921C122.432 33.1887 122.429 33.1827 122.426 33.175C122.423 33.1672 122.418 33.1568 122.413 33.1444C122.408 33.1319 122.402 33.1169 122.396 33.0996L124.286 32.4454ZM124.275 32.4166C124.233 32.3018 124.183 32.1816 124.12 32.0606L122.347 32.9873C122.361 33.0139 122.376 33.048 122.392 33.0918L124.275 32.4166ZM124.118 32.0582C124.11 32.0422 124.102 32.0289 124.097 32.0199C124.093 32.0115 124.088 32.0041 124.087 32.0028C124.086 31.9997 124.087 32.0027 124.09 32.0067C124.092 32.0112 124.097 32.02 124.103 32.0315L122.333 32.963C122.342 32.979 122.349 32.9923 122.354 33.0013C122.359 33.0096 122.364 33.017 122.364 33.0184C122.366 33.0215 122.364 33.0184 122.362 33.0145C122.36 33.01 122.355 33.0012 122.349 32.9897L124.118 32.0582ZM124.095 32.0165C124.039 31.9147 123.978 31.8179 123.912 31.7259L122.288 32.8933C122.308 32.9214 122.326 32.9495 122.341 32.9779L124.095 32.0165ZM123.913 31.7269C123.914 31.7293 123.915 31.7304 123.914 31.7291C123.914 31.7285 123.913 31.7277 123.912 31.7261C123.911 31.7249 123.91 31.7226 123.908 31.7205C123.903 31.7124 123.889 31.6931 123.873 31.6711L122.273 32.8711C122.269 32.8658 122.266 32.8619 122.265 32.8602C122.264 32.8586 122.263 32.858 122.265 32.8601C122.265 32.8611 122.266 32.8621 122.267 32.8641C122.269 32.8658 122.27 32.8682 122.272 32.8708C122.276 32.876 122.281 32.8836 122.287 32.8923L123.913 31.7269ZM123.87 31.6671C123.795 31.5686 123.715 31.4765 123.63 31.3906L122.207 32.7956C122.232 32.8216 122.255 32.8481 122.276 32.875L123.87 31.6671ZM123.632 31.3931C123.611 31.3714 123.592 31.3538 123.584 31.3455C123.581 31.3433 123.579 31.3412 123.577 31.3397C123.576 31.3381 123.575 31.3372 123.574 31.3363C123.572 31.3346 123.573 31.3351 123.574 31.3366L122.188 32.7788C122.196 32.7862 122.203 32.7925 122.207 32.7967C122.209 32.7987 122.212 32.8007 122.213 32.802C122.215 32.8035 122.215 32.8043 122.216 32.805C122.218 32.8063 122.217 32.8056 122.215 32.8039C122.213 32.802 122.209 32.7983 122.204 32.7932L123.632 31.3931ZM123.575 31.3374C123.494 31.2599 123.409 31.1867 123.318 31.1185L122.114 32.7153C122.139 32.7343 122.164 32.7552 122.188 32.778L123.575 31.3374ZM123.316 31.1169C123.326 31.1242 123.333 31.13 123.336 31.1325C123.339 31.1343 123.341 31.1364 123.337 31.1331C123.335 31.1312 123.328 31.1253 123.319 31.1185C123.31 31.1114 123.297 31.1014 123.282 31.0901L122.105 32.7075C122.094 32.6991 122.085 32.6921 122.079 32.688C122.075 32.6842 122.071 32.6815 122.073 32.6826C122.073 32.683 122.073 32.683 122.074 32.6836C122.075 32.6841 122.075 32.6848 122.076 32.6856C122.078 32.6872 122.081 32.6896 122.085 32.6924C122.092 32.6979 122.103 32.7067 122.116 32.7169L123.316 31.1169ZM123.281 31.0896C123.174 31.0116 123.066 30.9466 122.965 30.8918L122.011 32.6498C122.053 32.6721 122.083 32.6915 122.106 32.7081L123.281 31.0896ZM122.966 30.8923C122.933 30.8744 122.899 30.8576 122.894 30.8551L122 32.644C122.002 32.6451 122.004 32.6462 122.006 32.647C122.008 32.648 122.009 32.6487 122.01 32.6494C122.013 32.6508 122.015 32.6516 122.016 32.6521C122.018 32.6531 122.015 32.6519 122.01 32.6493L122.966 30.8923ZM122.898 30.8569C122.8 30.8077 122.682 30.7533 122.547 30.7069L121.897 32.5984C121.918 32.6055 121.948 32.6182 121.996 32.6422L122.898 30.8569ZM122.669 30.7582C122.669 30.7582 122.666 30.7567 122.663 30.7549C122.659 30.7529 122.652 30.7499 122.644 30.7462C122.629 30.7392 122.603 30.7275 122.57 30.7151C122.508 30.692 122.383 30.6522 122.221 30.6522V32.6522C122.058 32.6522 121.934 32.6125 121.872 32.5895C121.839 32.5772 121.814 32.5656 121.799 32.5587C121.791 32.5551 121.785 32.5521 121.781 32.5503C121.779 32.5493 121.778 32.5485 121.777 32.548C121.776 32.5475 121.775 32.5471 121.775 32.5471L122.669 30.7582ZM122.545 30.7062C122.414 30.6612 122.288 30.6307 122.175 30.6085L121.787 32.5705C121.838 32.5806 121.873 32.5901 121.896 32.5982L122.545 30.7062ZM122.177 30.6089C122.143 30.6019 122.111 30.5965 122.083 30.5921L121.771 32.5676C121.78 32.569 121.784 32.5698 121.785 32.5701L122.177 30.6089ZM122.09 30.5932C121.981 30.5753 121.849 30.5581 121.702 30.5544L121.651 32.5537C121.675 32.5543 121.709 32.5574 121.764 32.5665L122.09 30.5932ZM121.703 30.5544C114.05 30.3564 105.227 31.1771 97.0382 33.4956C88.86 35.8111 81.2263 39.6459 76.0614 45.542L77.5658 46.8599C82.382 41.3619 89.6098 37.6774 97.583 35.42C105.545 33.1656 114.163 32.36 121.651 32.5537L121.703 30.5544ZM76.0614 45.542C71.5332 50.7113 69.4658 57.2458 67.5281 63.328L69.4338 63.9351C71.3941 57.7817 73.3578 51.6637 77.5658 46.8599L76.0614 45.542ZM67.5282 63.3278C67.3684 63.8291 67.2095 64.3281 67.0492 64.8263L68.9531 65.4388C69.1144 64.9374 69.2743 64.4354 69.4337 63.9352L67.5282 63.3278ZM67.0493 64.8262C67.0398 64.8557 67.0294 64.8893 67.0191 64.9258L68.9446 65.4666C68.9464 65.4602 68.9491 65.4514 68.9531 65.4389L67.0493 64.8262ZM67.0193 64.9252L63.9613 75.7862L65.8864 76.3282L68.9445 65.4672L67.0193 64.9252ZM63.9613 75.7862C63.5409 77.2795 64.4108 78.8313 65.9039 79.252L66.4463 77.327C66.016 77.2057 65.7653 76.7583 65.8864 76.3282L63.9613 75.7862ZM65.9034 79.2519C66.1581 79.3238 66.4148 79.3575 66.6665 79.3575V77.3575C66.5936 77.3575 66.52 77.3478 66.4469 77.3271L65.9034 79.2519ZM66.6665 79.3575C67.8927 79.3575 69.0207 78.5491 69.37 77.3088L67.4448 76.7667C67.3447 77.1224 67.0203 77.3575 66.6665 77.3575V79.3575ZM69.37 77.3088L72.2062 67.2354L70.2811 66.6934L67.4448 76.7667L69.37 77.3088ZM71.668 67.8699C75.0474 66.286 77.7619 65.5453 81.5362 64.5191L81.0115 62.5892C77.2434 63.6137 74.3742 64.3928 70.8193 66.0589L71.668 67.8699ZM81.5364 64.519C83.4927 63.9867 85.7241 63.3802 88.4245 62.5496L87.8365 60.638C85.1707 61.4579 82.9675 62.0569 81.0113 62.5892L81.5364 64.519ZM88.4245 62.5496C91.4687 61.6133 95.7994 59.234 99.9673 56.4383C104.148 53.634 108.281 50.3328 110.915 47.4821L109.446 46.1248C106.959 48.8161 102.967 52.0181 98.8532 54.7774C94.7267 57.5453 90.5931 59.7902 87.8366 60.638L88.4245 62.5496ZM110.915 47.4821C115.368 42.6623 119.105 39.0918 123.419 35.5293L122.146 33.9871C117.752 37.6154 113.951 41.2497 109.446 46.1248L110.915 47.4821ZM123.412 35.5354C123.443 35.5104 123.467 35.488 123.483 35.4726C123.491 35.4648 123.497 35.4583 123.502 35.4537C123.506 35.4492 123.51 35.4456 123.511 35.4445C123.513 35.4424 123.511 35.4443 123.51 35.4455C123.508 35.4474 123.504 35.4513 123.499 35.4564C123.489 35.4664 123.471 35.4837 123.447 35.5039L122.146 33.9854C122.12 34.0079 122.099 34.0274 122.087 34.0397C122.081 34.0459 122.076 34.051 122.073 34.054C122.072 34.0556 122.07 34.0568 122.07 34.0575C122.069 34.0579 122.069 34.0582 122.069 34.0583C122.069 34.0585 122.069 34.0585 122.069 34.0585C122.069 34.0585 122.069 34.0578 122.07 34.0569C122.071 34.056 122.072 34.0546 122.074 34.0528C122.078 34.0494 122.083 34.0439 122.09 34.0373C122.103 34.0242 122.125 34.0039 122.153 33.9809L123.412 35.5354ZM123.443 35.5074C123.535 35.43 123.629 35.3412 123.721 35.2387L122.231 33.9049C122.211 33.9264 122.185 33.9518 122.15 33.982L123.443 35.5074ZM123.728 35.2303C123.719 35.2414 123.71 35.2503 123.705 35.2563C123.699 35.2622 123.695 35.2664 123.694 35.2672C123.694 35.2675 123.693 35.268 123.694 35.267C123.695 35.2664 123.696 35.2649 123.698 35.263C123.702 35.2594 123.709 35.2523 123.717 35.2433L122.255 33.8786C122.262 33.8715 122.267 33.8662 122.269 33.8643C122.27 33.8633 122.27 33.8626 122.27 33.8629C122.27 33.863 122.27 33.863 122.27 33.8632C122.27 33.8633 122.27 33.8635 122.269 33.8637C122.269 33.8641 122.268 33.8647 122.268 33.8654C122.265 33.868 122.259 33.874 122.252 33.8817C122.245 33.8895 122.235 33.9003 122.223 33.9133L123.728 35.2303ZM123.736 35.223C123.827 35.12 123.904 35.0155 123.97 34.9157L122.303 33.8103C122.277 33.8495 122.255 33.878 122.237 33.899L123.736 35.223ZM123.971 34.9141C123.984 34.894 123.996 34.875 124.008 34.8573L122.315 33.7916C122.31 33.7999 122.306 33.8064 122.302 33.812L123.971 34.9141ZM124.008 34.8564C124.143 34.6421 124.249 34.4083 124.323 34.1591L122.405 33.5929C122.384 33.6639 122.354 33.7305 122.315 33.7925L124.008 34.8564ZM124.321 34.1648C124.328 34.1434 124.335 34.1171 124.343 34.0872L122.41 33.5737C122.41 33.5747 122.409 33.5782 122.406 33.5873L124.321 34.1648ZM124.343 34.0883C124.372 33.9797 124.4 33.8537 124.418 33.7141L122.433 33.4646C122.43 33.49 122.424 33.524 122.411 33.5726L124.343 34.0883ZM124.416 33.7308C124.422 33.6873 124.424 33.6527 124.425 33.6401C124.425 33.636 124.425 33.6278 124.425 33.6325C124.425 33.6339 124.424 33.6412 124.424 33.6507L122.429 33.5082C122.428 33.5195 122.428 33.5284 122.427 33.5314C122.427 33.532 122.427 33.535 122.427 33.5334C122.427 33.5331 122.427 33.5312 122.428 33.5287C122.428 33.5194 122.43 33.488 122.436 33.4479L124.416 33.7308ZM124.419 33.6993C124.429 33.6202 124.437 33.5311 124.439 33.4347L122.44 33.3843C122.439 33.4027 122.438 33.4269 122.434 33.4597L124.419 33.6993ZM124.439 33.4444C124.44 33.3944 124.439 33.3529 124.438 33.3374C124.438 33.3332 124.438 33.3291 124.438 33.3271C124.438 33.3245 124.438 33.3238 124.438 33.3235C124.438 33.3227 124.438 33.3281 124.438 33.3364L122.438 33.3602C122.438 33.3785 122.439 33.394 122.439 33.4035C122.439 33.4082 122.44 33.4125 122.44 33.415C122.44 33.4181 122.44 33.4191 122.44 33.42C122.44 33.4216 122.44 33.4172 122.44 33.4101C122.439 33.4027 122.439 33.3904 122.44 33.3746L124.439 33.4444ZM80.2883 49.2443C84.3303 44.6298 90.5869 41.0845 98.9875 38.7776L98.4579 36.849C89.8191 39.2213 83.1651 42.9246 78.7838 47.9265L80.2883 49.2443ZM98.9875 38.7776C101.24 38.1589 103.626 37.6444 106.089 37.2377L105.763 35.2644C103.238 35.6813 100.784 36.2101 98.4579 36.849L98.9875 38.7776ZM105.489 35.3513C99.0933 38.453 92.9913 42.3302 89.5899 44.6025L90.7008 46.2656C94.0707 44.0144 100.086 40.1945 106.362 37.1508L105.489 35.3513ZM89.5898 44.6025C84.0995 48.2704 78.1595 52.7278 73.7571 56.7081L75.0984 58.1916C79.4072 54.296 85.2634 49.898 90.7008 46.2656L89.5898 44.6025ZM75.3579 57.8171C76.6246 54.6083 78.1317 51.7062 80.2882 49.2443L78.7838 47.9264C76.4179 50.6273 74.8086 53.7617 73.4976 57.0827L75.3579 57.8171ZM106.788 43.6685C104.373 46.2819 100.51 49.316 96.6373 51.8877C92.7483 54.4703 88.9806 56.4996 86.7729 57.1785L87.3607 59.0902C89.8594 58.3218 93.8274 56.1545 97.7437 53.5538C101.676 50.9422 105.688 47.8064 108.257 45.0258L106.788 43.6685ZM86.7729 57.1785C84.1636 57.9809 81.9909 58.5722 80.0618 59.0967L80.5865 61.0266C82.5164 60.5019 84.7171 59.9031 87.3607 59.0902L86.7729 57.1785ZM80.0618 59.0967C78.3195 59.5704 76.7111 60.0083 75.1173 60.5143L75.7224 62.4206C77.2696 61.9294 78.8373 61.5023 80.5866 61.0266L80.0618 59.0967ZM76.1116 62.1896C76.8018 61.5285 77.6139 60.7846 78.5742 59.9468L77.2595 58.4397C76.2781 59.2958 75.443 60.0606 74.7282 60.7453L76.1116 62.1896ZM78.5742 59.9468C82.4429 56.5722 87.4642 52.7802 92.7111 49.2751L91.6001 47.6121C86.2971 51.1546 81.2051 54.998 77.2595 58.4396L78.5742 59.9468ZM92.7111 49.2751C101.81 43.1966 109.982 38.9743 115.91 37.159L115.325 35.2466C109.126 37.1446 100.767 41.4879 91.6001 47.6121L92.7111 49.2751ZM114.94 35.4672C112.283 37.9144 109.674 40.5456 106.788 43.6685L108.257 45.0258C111.114 41.9339 113.685 39.3421 116.295 36.9384L114.94 35.4672ZM12.0097 98.6379H87.0174V96.6379H12.0097V98.6379ZM94.4103 12.0127V28.0724H96.4103V12.0127H94.4103Z" transform="translate(1.53613 1.6308)" fill="black" mask="url(#path-1-outside-1)"/>
</svg>
