<svg width="62" height="63" viewBox="0 0 62 63" fill="none" xmlns="http://www.w3.org/2000/svg">
<path d="M27.8256 55.6511C43.1932 55.6511 55.6511 43.1932 55.6511 27.8256C55.6511 12.4579 43.1932 0 27.8256 0C12.4579 0 0 12.4579 0 27.8256C0 43.1932 12.4579 55.6511 27.8256 55.6511Z" transform="translate(3.08948 3.37689)" stroke="white" stroke-width="6" stroke-linecap="round" stroke-linejoin="round"/>
<path d="M11.1302 22.2605C17.2773 22.2605 22.2605 17.2773 22.2605 11.1302C22.2605 4.98317 17.2773 0 11.1302 0C4.98317 0 0 4.98317 0 11.1302C0 17.2773 4.98317 22.2605 11.1302 22.2605Z" transform="translate(19.7848 20.0722)" stroke="white" stroke-width="6" stroke-linecap="round" stroke-linejoin="round"/>
<path d="M-4.77658e-07 -4.77658e-07L11.798 11.798" transform="translate(11.2424 11.5298)" stroke="white" stroke-width="6" stroke-linecap="round" stroke-linejoin="round"/>
<path d="M-2.12292e-07 -2.12292e-07L11.798 11.798" transform="translate(38.7897 39.0771)" stroke="white" stroke-width="6" stroke-linecap="round" stroke-linejoin="round"/>
<path d="M-2.12292e-07 11.798L11.798 -4.77658e-07" transform="translate(38.7897 11.5298)" stroke="white" stroke-width="6" stroke-linecap="round" stroke-linejoin="round"/>
<path d="M-2.12292e-07 9.82242L9.82243 -3.71511e-07" transform="translate(38.7897 13.5054)" stroke="white" stroke-width="6" stroke-linecap="round" stroke-linejoin="round"/>
<path d="M-4.77658e-07 11.798L11.798 -2.12292e-07" transform="translate(11.2424 39.0771)" stroke="white" stroke-width="6" stroke-linecap="round" stroke-linejoin="round"/>
</svg>
