<svg width="76" height="44" viewBox="0 0 76 44" fill="none" xmlns="http://www.w3.org/2000/svg">
<mask id="path-1-outside-1" maskUnits="userSpaceOnUse" x="-2" y="-1" width="76" height="43" fill="black">
<rect fill="white" x="-2" y="-1" width="76" height="43"/>
<path d="M72.2124 15.7788C72.1049 15.3254 71.8732 14.87 71.5159 14.5123C70.0367 13.0334 55.0372 0 47.9696 0C44.1227 0 41.485 1.94304 39.3657 3.50422C38.0926 4.44231 36.9931 5.25204 36.1552 5.25305C35.3132 5.25204 34.214 4.44231 32.9402 3.50355C30.821 1.94236 28.1836 0 24.3367 0C17.2684 0 2.26978 13.0334 0.791088 14.5123C0.404194 14.8995 0.1522 15.3815 0.057787 15.8959L0.00201247 16.5348C-0.0265468 17.2416 0.24947 17.9283 0.791088 18.4703C1.5086 19.1878 2.42115 20.3186 3.47868 21.6298C6.16829 24.9635 9.85109 29.5286 15.0673 33.309C21.6845 38.1047 28.7407 40.5363 36.0402 40.5363C43.3356 40.5363 50.4865 37.9976 57.294 32.99C62.6175 29.0747 66.4436 24.3353 68.9753 21.1992C69.9085 20.043 71.9253 17.5898 72.0798 17.2846C72.2225 17.0045 72.3453 16.3404 72.2124 15.7788ZM55.3036 30.2834C49.0851 34.8576 42.6042 37.1764 36.0406 37.1764C29.4642 37.1764 23.0712 34.9597 17.0391 30.5885C12.1859 27.0705 5.06859 19.156 5.47296 18.7517C5.60886 18.6158 8.65798 20.1259 10.2182 20.8551C16.4577 23.7724 25.8871 28.1804 36.0406 28.1804C46.4701 28.1804 56.0314 23.6642 62.3584 20.6754C63.8845 19.9545 66.602 18.5449 66.6391 18.7441C66.7048 19.0932 60.2765 26.626 55.3036 30.2834ZM13.9209 18.8703C13.9209 18.5454 31.5237 17.0391 35.3315 17.0181C35.8709 17.0154 36.411 17.0139 36.9515 17.0139C41.0539 17.0139 58.4569 18.3775 58.4569 18.7937C58.4569 19.3716 44.4807 24.8212 36.0406 24.8212C27.7641 24.8208 13.9209 19.5953 13.9209 18.8703ZM65.6822 15.6543C63.7958 15.6543 61.317 15.5317 58.4463 15.4309C55.9996 15.3449 53.0894 15.0116 50.0082 14.6581C45.7003 14.1645 41.2459 13.6537 36.9511 13.6537C36.4045 13.6537 35.8585 13.6553 35.3128 13.6579C31.3187 13.6799 26.9141 14.1934 22.6544 14.6902C19.4766 15.0606 16.475 15.4107 14.0157 15.504C12.4001 15.565 11.252 15.6244 10.3294 15.672C9.06487 15.7377 8.15148 15.8035 6.79323 15.8035C5.33923 15.8035 4.58812 15.6301 5.05935 15.2273C7.14821 13.4413 9.16197 11.751 12.6452 9.28024C17.9491 5.51748 22.2105 3.35974 24.3367 3.35974C27.0797 3.35974 29.0461 4.80803 30.948 6.20912C32.6244 7.44422 34.2074 8.61061 36.1552 8.61296C38.0992 8.61061 39.6824 7.44422 41.3588 6.20912C43.26 4.80803 45.2264 3.35974 47.9698 3.35974C50.0963 3.35974 54.3575 5.51748 59.6618 9.28024C63.0371 11.6745 65.5441 13.4415 67.386 15.2832C67.7657 15.6632 67.0779 15.6543 65.6822 15.6543Z"/>
</mask>
<path d="M72.2124 15.7788C72.1049 15.3254 71.8732 14.87 71.5159 14.5123C70.0367 13.0334 55.0372 0 47.9696 0C44.1227 0 41.485 1.94304 39.3657 3.50422C38.0926 4.44231 36.9931 5.25204 36.1552 5.25305C35.3132 5.25204 34.214 4.44231 32.9402 3.50355C30.821 1.94236 28.1836 0 24.3367 0C17.2684 0 2.26978 13.0334 0.791088 14.5123C0.404194 14.8995 0.1522 15.3815 0.057787 15.8959L0.00201247 16.5348C-0.0265468 17.2416 0.24947 17.9283 0.791088 18.4703C1.5086 19.1878 2.42115 20.3186 3.47868 21.6298C6.16829 24.9635 9.85109 29.5286 15.0673 33.309C21.6845 38.1047 28.7407 40.5363 36.0402 40.5363C43.3356 40.5363 50.4865 37.9976 57.294 32.99C62.6175 29.0747 66.4436 24.3353 68.9753 21.1992C69.9085 20.043 71.9253 17.5898 72.0798 17.2846C72.2225 17.0045 72.3453 16.3404 72.2124 15.7788ZM55.3036 30.2834C49.0851 34.8576 42.6042 37.1764 36.0406 37.1764C29.4642 37.1764 23.0712 34.9597 17.0391 30.5885C12.1859 27.0705 5.06859 19.156 5.47296 18.7517C5.60886 18.6158 8.65798 20.1259 10.2182 20.8551C16.4577 23.7724 25.8871 28.1804 36.0406 28.1804C46.4701 28.1804 56.0314 23.6642 62.3584 20.6754C63.8845 19.9545 66.602 18.5449 66.6391 18.7441C66.7048 19.0932 60.2765 26.626 55.3036 30.2834ZM13.9209 18.8703C13.9209 18.5454 31.5237 17.0391 35.3315 17.0181C35.8709 17.0154 36.411 17.0139 36.9515 17.0139C41.0539 17.0139 58.4569 18.3775 58.4569 18.7937C58.4569 19.3716 44.4807 24.8212 36.0406 24.8212C27.7641 24.8208 13.9209 19.5953 13.9209 18.8703ZM65.6822 15.6543C63.7958 15.6543 61.317 15.5317 58.4463 15.4309C55.9996 15.3449 53.0894 15.0116 50.0082 14.6581C45.7003 14.1645 41.2459 13.6537 36.9511 13.6537C36.4045 13.6537 35.8585 13.6553 35.3128 13.6579C31.3187 13.6799 26.9141 14.1934 22.6544 14.6902C19.4766 15.0606 16.475 15.4107 14.0157 15.504C12.4001 15.565 11.252 15.6244 10.3294 15.672C9.06487 15.7377 8.15148 15.8035 6.79323 15.8035C5.33923 15.8035 4.58812 15.6301 5.05935 15.2273C7.14821 13.4413 9.16197 11.751 12.6452 9.28024C17.9491 5.51748 22.2105 3.35974 24.3367 3.35974C27.0797 3.35974 29.0461 4.80803 30.948 6.20912C32.6244 7.44422 34.2074 8.61061 36.1552 8.61296C38.0992 8.61061 39.6824 7.44422 41.3588 6.20912C43.26 4.80803 45.2264 3.35974 47.9698 3.35974C50.0963 3.35974 54.3575 5.51748 59.6618 9.28024C63.0371 11.6745 65.5441 13.4415 67.386 15.2832C67.7657 15.6632 67.0779 15.6543 65.6822 15.6543Z" transform="translate(1.86536 1.67432)" fill="white"/>
<path d="M72.2124 15.7788L73.1855 15.5486L73.1854 15.5481L72.2124 15.7788ZM71.5159 14.5123L72.2233 13.8055L72.2229 13.8051L71.5159 14.5123ZM39.3657 3.50422L38.7726 2.69909L38.7725 2.69917L39.3657 3.50422ZM36.1552 5.25305L36.154 6.25305L36.1564 6.25305L36.1552 5.25305ZM32.9402 3.50355L33.5335 2.69856L33.5333 2.69842L32.9402 3.50355ZM0.791088 14.5123L0.0839407 13.8052L0.0836738 13.8055L0.791088 14.5123ZM0.057787 15.8959L-0.925783 15.7154L-0.934314 15.7619L-0.938424 15.8089L0.057787 15.8959ZM0.00201247 16.5348L-0.994199 16.4478L-0.996229 16.4711L-0.997172 16.4944L0.00201247 16.5348ZM0.791088 18.4703L0.0837613 19.1772L0.0839812 19.1774L0.791088 18.4703ZM3.47868 21.6298L2.7003 22.2576L2.7004 22.2577L3.47868 21.6298ZM15.0673 33.309L15.6542 32.4993L15.6542 32.4993L15.0673 33.309ZM57.294 32.99L56.7015 32.1844L56.7015 32.1844L57.294 32.99ZM68.9753 21.1992L69.7534 21.8273L69.7534 21.8273L68.9753 21.1992ZM72.0798 17.2846L71.1887 16.8307L71.1877 16.8328L72.0798 17.2846ZM55.3036 30.2834L54.7111 29.4778L54.7111 29.4778L55.3036 30.2834ZM17.0391 30.5885L16.4522 31.3981L16.4523 31.3982L17.0391 30.5885ZM5.47296 18.7517L4.76585 18.0446L4.76585 18.0446L5.47296 18.7517ZM10.2182 20.8551L10.6417 19.9493L10.6416 19.9492L10.2182 20.8551ZM62.3584 20.6754L61.9313 19.7712L61.9313 19.7712L62.3584 20.6754ZM66.6391 18.7441L65.656 18.9273L65.6564 18.929L66.6391 18.7441ZM35.3315 17.0181L35.3265 16.0181L35.326 16.0181L35.3315 17.0181ZM36.0406 24.8212L36.0405 25.8212H36.0406V24.8212ZM58.4463 15.4309L58.4112 16.4303L58.4112 16.4303L58.4463 15.4309ZM50.0082 14.6581L50.1222 13.6646L50.1221 13.6646L50.0082 14.6581ZM35.3128 13.6579L35.3082 12.6579L35.3073 12.6579L35.3128 13.6579ZM22.6544 14.6902L22.7701 15.6835L22.7702 15.6835L22.6544 14.6902ZM14.0157 15.504L14.0534 16.5033L14.0536 16.5033L14.0157 15.504ZM10.3294 15.672L10.2779 14.6733L10.2775 14.6733L10.3294 15.672ZM5.05935 15.2273L5.70916 15.9874L5.7092 15.9873L5.05935 15.2273ZM12.6452 9.28024L13.2237 10.0959L13.2238 10.0958L12.6452 9.28024ZM30.948 6.20912L31.5411 5.40402L31.5411 5.404L30.948 6.20912ZM36.1552 8.61296L36.154 9.61296L36.1564 9.61296L36.1552 8.61296ZM41.3588 6.20912L41.952 7.01421L41.9521 7.01413L41.3588 6.20912ZM59.6618 9.28024L59.0832 10.0959L59.0832 10.0959L59.6618 9.28024ZM67.386 15.2832L68.0935 14.5764L68.0931 14.5761L67.386 15.2832ZM73.1854 15.5481C73.0399 14.9345 72.7254 14.3081 72.2233 13.8055L70.8084 15.2191C71.021 15.4319 71.1698 15.7163 71.2394 16.0095L73.1854 15.5481ZM72.2229 13.8051C71.435 13.0174 67.2704 9.35431 62.4198 5.88797C59.9903 4.15178 57.3626 2.44599 54.8793 1.17011C52.4304 -0.0880945 49.9881 -1 47.9696 -1V1C49.4849 1 51.5679 1.71727 53.9653 2.94905C56.3284 4.16316 58.8683 5.80815 61.257 7.51518C66.0428 10.9353 70.1176 14.5283 70.8088 15.2195L72.2229 13.8051ZM47.9696 -1C43.7602 -1 40.8823 1.14497 38.7726 2.69909L39.9588 4.30934C42.0877 2.7411 44.4851 1 47.9696 1V-1ZM38.7725 2.69917C38.1239 3.17709 37.574 3.58095 37.0868 3.87014C36.5749 4.174 36.2882 4.25289 36.154 4.25305L36.1564 6.25305C36.86 6.25221 37.5421 5.92572 38.1077 5.58994C38.6981 5.23949 39.3344 4.76943 39.9589 4.30926L38.7725 2.69917ZM36.1564 4.25305C36.0194 4.25289 35.7314 4.17339 35.2198 3.8699C34.7324 3.58074 34.1825 3.17686 33.5335 2.69856L32.3469 4.30854C32.9717 4.769 33.6083 5.23937 34.1994 5.59001C34.7663 5.92634 35.4489 6.25221 36.154 6.25305L36.1564 4.25305ZM33.5333 2.69842C31.4235 1.14421 28.546 -1 24.3367 -1V1C27.8212 1 30.2184 2.74052 32.3471 4.30867L33.5333 2.69842ZM24.3367 -1C22.318 -1 19.8756 -0.0881035 17.4267 1.17011C14.9434 2.44599 12.3158 4.15179 9.88636 5.88798C5.03599 9.35431 0.871672 13.0174 0.0839407 13.8052L1.49823 15.2194C2.1892 14.5283 6.26355 10.9353 11.0492 7.51516C13.4378 5.80814 15.9776 4.16315 18.3407 2.94905C20.7382 1.71728 22.8212 1 24.3367 1V-1ZM0.0836738 13.8055C-0.44384 14.3335 -0.794111 14.998 -0.925783 15.7154L1.04136 16.0764C1.09851 15.765 1.25223 15.4656 1.4985 15.2191L0.0836738 13.8055ZM-0.938424 15.8089L-0.994199 16.4478L0.998223 16.6218L1.054 15.9829L-0.938424 15.8089ZM-0.997172 16.4944C-1.03778 17.4994 -0.641101 18.4518 0.0837614 19.1772L1.49841 17.7634C1.14004 17.4048 0.984687 16.9837 1.0012 16.5752L-0.997172 16.4944ZM0.0839812 19.1774C0.754497 19.8479 1.62767 20.9276 2.7003 22.2576L4.25706 21.002C3.21463 19.7095 2.2627 18.5277 1.49819 17.7632L0.0839812 19.1774ZM2.7004 22.2577C5.38742 25.5882 9.14409 30.2512 14.4805 34.1187L15.6542 32.4993C10.5581 28.806 6.94916 24.3388 4.25696 21.0018L2.7004 22.2577ZM14.4805 34.1187C21.247 39.0227 28.505 41.5363 36.0402 41.5363V39.5363C28.9764 39.5363 22.122 37.1868 15.6542 32.4993L14.4805 34.1187ZM36.0402 41.5363C43.5813 41.5363 50.9355 38.9087 57.8866 33.7955L56.7015 32.1844C50.0375 37.0864 43.0899 39.5363 36.0402 39.5363V41.5363ZM57.8865 33.7955C63.3257 29.7951 67.2233 24.9615 69.7534 21.8273L68.1972 20.5711C65.6639 23.7092 61.9092 28.3542 56.7015 32.1844L57.8865 33.7955ZM69.7534 21.8273C70.2099 21.2618 70.9622 20.341 71.5988 19.5495C71.9198 19.1503 72.2202 18.7732 72.4513 18.4748C72.5665 18.3261 72.6685 18.1918 72.7487 18.0816C72.8106 17.9967 72.9098 17.8592 72.972 17.7363L71.1877 16.8328C71.2113 16.7863 71.2136 16.7922 71.1319 16.9043C71.0686 16.9913 70.9804 17.1078 70.8702 17.25C70.6506 17.5336 70.3594 17.8993 70.0403 18.2961C69.3966 19.0965 68.6739 19.9805 68.1971 20.5711L69.7534 21.8273ZM72.9709 17.7384C73.1144 17.4567 73.2025 17.0942 73.2426 16.7541C73.2841 16.4009 73.2857 15.9721 73.1855 15.5486L71.2392 16.0091C71.2719 16.1471 71.2785 16.3312 71.2563 16.5204C71.2325 16.7228 71.1879 16.8323 71.1887 16.8307L72.9709 17.7384ZM54.7111 29.4778C48.6331 33.9486 42.3553 36.1764 36.0406 36.1764V38.1764C42.8531 38.1764 49.5371 35.7665 55.8962 31.0889L54.7111 29.4778ZM36.0406 36.1764C29.7024 36.1764 23.5109 34.0434 17.6259 29.7787L16.4523 31.3982C22.6314 35.876 29.226 38.1764 36.0406 38.1764V36.1764ZM17.626 29.7788C15.2742 28.074 12.3314 25.2684 10.0109 22.8153C8.85454 21.5928 7.87048 20.4767 7.20655 19.6506C6.8712 19.2333 6.63533 18.912 6.50037 18.6982C6.42864 18.5846 6.41211 18.5429 6.4165 18.5543C6.41709 18.5558 6.44704 18.6292 6.45467 18.7462C6.46148 18.8507 6.46008 19.1788 6.18006 19.4588L4.76585 18.0446C4.46056 18.3498 4.44858 18.7179 4.4589 18.8762C4.47004 19.0471 4.5176 19.1883 4.54929 19.2709C4.61587 19.4444 4.71554 19.6176 4.8092 19.7659C5.00502 20.0761 5.29677 20.4669 5.64763 20.9035C6.35613 21.785 7.37891 22.9432 8.55797 24.1896C10.9083 26.6743 13.9508 29.5849 16.4522 31.3981L17.626 29.7788ZM6.18006 19.4588C5.94689 19.6919 5.68134 19.7289 5.60624 19.7374C5.50588 19.7487 5.43115 19.7401 5.40745 19.7372C5.3557 19.7307 5.33418 19.7219 5.36558 19.7313C5.4181 19.7469 5.51891 19.7831 5.67581 19.8468C5.98155 19.9711 6.40592 20.1614 6.89084 20.3862C7.88676 20.8479 8.9704 21.3758 9.79471 21.7611L10.6416 19.9492C9.90574 19.6053 8.68474 19.0134 7.73207 18.5717C7.2427 18.3448 6.78179 18.1375 6.42885 17.994C6.2564 17.9239 6.08452 17.8587 5.93818 17.815C5.87015 17.7946 5.76766 17.7666 5.65555 17.7526C5.60168 17.7459 5.50192 17.7364 5.38195 17.75C5.28725 17.7607 5.00751 17.8029 4.76585 18.0446L6.18006 19.4588ZM9.79462 21.761C16.0107 24.6673 25.6331 29.1804 36.0406 29.1804V27.1804C26.1411 27.1804 16.9047 22.8775 10.6417 19.9493L9.79462 21.761ZM36.0406 29.1804C46.7257 29.1804 56.4805 24.558 62.7856 21.5796L61.9313 19.7712C55.5822 22.7704 46.2144 27.1804 36.0406 27.1804V29.1804ZM62.7855 21.5796C63.519 21.2331 64.6728 20.6563 65.488 20.2671C65.924 20.059 66.2917 19.8901 66.5458 19.7868C66.6078 19.7616 66.6579 19.7424 66.6971 19.7284C66.7165 19.7215 66.7315 19.7165 66.7425 19.713C66.7538 19.7094 66.7584 19.7082 66.7573 19.7085C66.7571 19.7086 66.7442 19.712 66.7217 19.7156C66.7029 19.7187 66.652 19.7262 66.5818 19.7248C66.5264 19.7237 66.3641 19.7166 66.1789 19.6236C65.949 19.5081 65.7204 19.2727 65.656 18.9273L67.6222 18.5609C67.5555 18.203 67.3194 17.9584 67.0769 17.8365C66.8792 17.7372 66.6993 17.7268 66.6216 17.7252C66.4579 17.722 66.3178 17.7564 66.257 17.7721C66.1083 17.8105 65.9419 17.8734 65.7926 17.9341C65.479 18.0616 65.065 18.2528 64.6263 18.4623C63.6919 18.9083 62.7239 19.3968 61.9313 19.7712L62.7855 21.5796ZM65.6564 18.929C65.6198 18.7346 65.653 18.5832 65.6644 18.5351C65.6796 18.4711 65.6979 18.4261 65.7053 18.4085C65.7203 18.373 65.7296 18.36 65.7175 18.3804C65.6961 18.4165 65.6488 18.4883 65.566 18.6022C65.4041 18.8248 65.1536 19.1441 64.824 19.5432C64.1675 20.3379 63.2281 21.4116 62.1291 22.5916C59.9214 24.9618 57.1215 27.705 54.7111 29.4778L55.8961 31.089C58.4586 29.2043 61.3593 26.3525 63.5926 23.9547C64.714 22.7507 65.6802 21.6471 66.3659 20.8169C66.7074 20.4035 66.9872 20.0485 67.1838 19.7781C67.2801 19.6455 67.3691 19.5161 67.4371 19.4017C67.4696 19.3468 67.5119 19.2713 67.5477 19.1865C67.5655 19.1444 67.5911 19.0781 67.6105 18.9963C67.6262 18.9303 67.6605 18.7645 67.6219 18.5592L65.6564 18.929ZM14.9209 18.8703C14.9209 19.1633 14.795 19.374 14.7066 19.4851C14.6204 19.5934 14.5317 19.6574 14.4879 19.6865C14.4004 19.7448 14.3282 19.7707 14.3189 19.7742C14.2872 19.7859 14.2837 19.7841 14.3367 19.7723C14.4304 19.7515 14.5926 19.7228 14.8311 19.6875C15.3008 19.618 15.9882 19.5341 16.8397 19.4408C18.5387 19.2548 20.8496 19.0361 23.2841 18.8265C28.1723 18.4057 33.4815 18.0283 35.337 18.0181L35.326 16.0181C33.3737 16.0289 27.9776 16.4151 23.1125 16.8339C20.6704 17.0441 18.3425 17.2643 16.622 17.4527C15.7637 17.5467 15.0462 17.6339 14.5384 17.709C14.2882 17.7461 14.0684 17.7831 13.9024 17.82C13.8256 17.8371 13.7227 17.8622 13.6242 17.8987C13.5815 17.9145 13.484 17.9523 13.3795 18.0218C13.3272 18.0566 13.2321 18.1261 13.1417 18.2397C13.049 18.3562 12.9209 18.5722 12.9209 18.8703H14.9209ZM35.3365 18.0181C35.8744 18.0154 36.4129 18.0139 36.9515 18.0139V16.0139C36.4092 16.0139 35.8674 16.0154 35.3265 16.0181L35.3365 18.0181ZM36.9515 18.0139C38.9554 18.0139 44.2912 18.351 49.1621 18.7445C51.5895 18.9406 53.8823 19.1492 55.5643 19.334C56.4079 19.4267 57.0844 19.5121 57.5437 19.5853C57.7781 19.6226 57.9302 19.6528 58.0127 19.6739C58.061 19.6863 58.0444 19.6853 57.9986 19.6648C57.9805 19.6567 57.8987 19.6202 57.8056 19.5429C57.7394 19.488 57.4569 19.2394 57.4569 18.7937H59.4569C59.4569 18.3349 59.1659 18.0728 59.0829 18.004C58.9731 17.9128 58.8662 17.8619 58.8152 17.8391C58.7032 17.789 58.5884 17.7568 58.5082 17.7363C58.3338 17.6917 58.108 17.6499 57.8585 17.6102C57.3501 17.5292 56.6349 17.4397 55.7828 17.346C54.0736 17.1582 51.7593 16.9478 49.3231 16.751C44.4669 16.3587 39.0499 16.0139 36.9515 16.0139V18.0139ZM57.4569 18.7937C57.4569 18.5568 57.5429 18.3878 57.5869 18.3138C57.6348 18.2331 57.6826 18.1821 57.7022 18.162C57.7411 18.1223 57.7617 18.1117 57.7321 18.1321C57.6798 18.1679 57.5696 18.2334 57.3838 18.3287C57.0207 18.5147 56.4707 18.763 55.7614 19.0542C54.3483 19.6344 52.3643 20.3605 50.113 21.0704C45.5822 22.4993 40.0999 23.8212 36.0406 23.8212V25.8212C40.4214 25.8212 46.1472 24.4182 50.7145 22.9778C53.0124 22.2532 55.0498 21.5084 56.5211 20.9043C57.2539 20.6034 57.8618 20.331 58.296 20.1085C58.5088 19.9994 58.7071 19.8886 58.8637 19.7811C58.9385 19.7298 59.0386 19.6558 59.1309 19.5616C59.1772 19.5143 59.2452 19.4382 59.3066 19.3348C59.3641 19.238 59.4569 19.0486 59.4569 18.7937H57.4569ZM36.0406 23.8212C32.0595 23.821 26.6485 22.5531 22.1739 21.1625C19.9498 20.4713 17.9902 19.7603 16.5963 19.1822C15.896 18.8918 15.3578 18.6428 15.0056 18.4534C14.825 18.3563 14.7242 18.2912 14.6811 18.2586C14.6571 18.2405 14.6824 18.2558 14.7233 18.304C14.7364 18.3194 14.9209 18.5251 14.9209 18.8703H12.9209C12.9209 19.2607 13.1326 19.5206 13.1986 19.5983C13.2923 19.7088 13.3964 19.7946 13.4757 19.8546C13.6395 19.9782 13.8442 20.0997 14.0583 20.2148C14.4955 20.45 15.1034 20.7283 15.8302 21.0297C17.2906 21.6353 19.3091 22.3666 21.5803 23.0724C26.0964 24.4759 31.7452 25.821 36.0405 25.8212L36.0406 23.8212ZM65.6822 14.6543C63.8192 14.6543 61.3769 14.5332 58.4814 14.4315L58.4112 16.4303C61.2572 16.5302 63.7724 16.6543 65.6822 16.6543V14.6543ZM58.4815 14.4315C56.0826 14.3472 53.2155 14.0195 50.1222 13.6646L49.8943 15.6516C52.9634 16.0037 55.9167 16.3426 58.4112 16.4303L58.4815 14.4315ZM50.1221 13.6646C45.8252 13.1723 41.313 12.6537 36.9511 12.6537V14.6537C41.1788 14.6537 45.5755 15.1568 49.8944 15.6516L50.1221 13.6646ZM36.9511 12.6537C36.4025 12.6537 35.8548 12.6554 35.3082 12.6579L35.3174 14.6579C35.8621 14.6553 36.4065 14.6537 36.9511 14.6537V12.6537ZM35.3073 12.6579C31.2474 12.6803 26.7852 13.2017 22.5385 13.6969L22.7702 15.6835C27.0429 15.1852 31.39 14.6795 35.3183 14.6579L35.3073 12.6579ZM22.5386 13.6969C19.3479 14.0689 16.3896 14.4133 13.9778 14.5047L14.0536 16.5033C16.5604 16.4082 19.6053 16.0524 22.7701 15.6835L22.5386 13.6969ZM13.978 14.5047C12.3551 14.5659 11.2013 14.6257 10.2779 14.6733L10.3808 16.6706C11.3027 16.6231 12.445 16.564 14.0534 16.5033L13.978 14.5047ZM10.2775 14.6733C8.99711 14.7398 8.11834 14.8035 6.79323 14.8035V16.8035C8.18461 16.8035 9.13263 16.7355 10.3812 16.6706L10.2775 14.6733ZM6.79323 14.8035C6.06224 14.8035 5.64664 14.7554 5.49313 14.7091C5.46393 14.7003 5.49696 14.7062 5.55695 14.7446C5.61202 14.7799 5.77557 14.898 5.86531 15.1415C5.96729 15.4182 5.90682 15.6685 5.83275 15.8161C5.79945 15.8825 5.76494 15.927 5.74489 15.9504C5.72433 15.9744 5.71021 15.9865 5.70916 15.9874L4.40954 14.4672C4.29943 14.5613 4.15035 14.7095 4.04509 14.9193C3.92759 15.1535 3.85984 15.4834 3.9887 15.8331C4.1053 16.1495 4.32986 16.3337 4.47805 16.4287C4.63116 16.5267 4.78942 16.5858 4.91553 16.6239C5.38326 16.7649 6.07022 16.8035 6.79323 16.8035V14.8035ZM5.7092 15.9873C7.78626 14.2115 9.77469 12.5424 13.2237 10.0959L12.0666 8.4646C8.54924 10.9595 6.51015 12.6712 4.4095 14.4672L5.7092 15.9873ZM13.2238 10.0958C15.8503 8.23255 18.1981 6.7816 20.1344 5.80109C22.1159 4.79768 23.5289 4.35974 24.3367 4.35974V2.35974C23.0183 2.35974 21.2375 3.00067 19.2308 4.01682C17.1789 5.05587 14.7441 6.56516 12.0666 8.46464L13.2238 10.0958ZM24.3367 4.35974C26.7068 4.35974 28.4222 5.59049 30.3549 7.01423L31.5411 5.404C29.67 4.02558 27.4526 2.35974 24.3367 2.35974V4.35974ZM30.3548 7.01421C31.9688 8.20328 33.8201 9.61014 36.154 9.61296L36.1564 7.61296C34.5947 7.61108 33.28 6.68516 31.5411 5.40402L30.3548 7.01421ZM36.1564 9.61296C38.4866 9.61014 40.3384 8.20303 41.952 7.01421L40.7657 5.40402C39.0264 6.68541 37.7118 7.61108 36.1539 7.61296L36.1564 9.61296ZM41.9521 7.01413C43.8839 5.5905 45.5994 4.35974 47.9698 4.35974V2.35974C44.8534 2.35974 42.6362 4.02557 40.7656 5.4041L41.9521 7.01413ZM47.9698 4.35974C48.7777 4.35974 50.1908 4.79769 52.1723 5.8011C54.1087 6.7816 56.4565 8.23256 59.0832 10.0959L60.2404 8.46462C57.5627 6.56516 55.1278 5.05587 53.0758 4.01681C51.0691 3.00066 49.2883 2.35974 47.9698 2.35974V4.35974ZM59.0832 10.0959C62.4863 12.5099 64.9107 14.2222 66.679 15.9904L68.0931 14.5761C66.1776 12.6607 63.5879 10.8392 60.2403 8.4646L59.0832 10.0959ZM66.6786 15.99C66.6774 15.9889 66.6629 15.9743 66.6424 15.9468C66.623 15.9207 66.5864 15.867 66.5538 15.7875C66.478 15.6026 66.4343 15.2816 66.6284 14.9713C66.7803 14.7284 66.9871 14.6482 67.0188 14.6358C67.0706 14.6157 67.0915 14.6163 67.0502 14.6226C66.8469 14.6533 66.4306 14.6543 65.6822 14.6543V16.6543C66.3295 16.6543 66.955 16.6598 67.3496 16.6C67.4577 16.5836 67.6004 16.5557 67.7448 16.4994C67.8691 16.451 68.1393 16.3273 68.3241 16.0317C68.5511 15.6688 68.5097 15.2862 68.4044 15.0291C68.3158 14.8129 68.1774 14.6604 68.0935 14.5764L66.6786 15.99Z" transform="translate(1.86536 1.67432)" fill="white" mask="url(#path-1-outside-1)"/>
</svg>
