<svg width="76" height="44" viewBox="0 0 76 44" fill="none" xmlns="http://www.w3.org/2000/svg">
<path d="M71.8694 14.1587L71.8696 14.1589C72.2993 14.589 72.5724 15.1299 72.6989 15.6634L72.6989 15.6637C72.7823 16.0159 72.7827 16.3834 72.746 16.6957C72.71 17.0014 72.6328 17.3006 72.5254 17.5115M71.8694 14.1587L72.0798 17.2846M71.8694 14.1587C71.1056 13.3951 66.9635 9.74955 62.1291 6.29477C59.7098 4.56587 57.1041 2.87528 54.6508 1.61485C52.2148 0.363247 49.8623 -0.5 47.9696 -0.5C43.9582 -0.5 41.2065 1.5271 39.0955 3.08227L39.0692 3.10166L39.0691 3.1017C38.4266 3.57518 37.855 3.99558 37.342 4.30009C36.8171 4.61171 36.4317 4.75252 36.1552 4.75305C35.8762 4.75252 35.4897 4.6114 34.9647 4.29993C34.4513 3.99539 33.8798 3.57489 33.2369 3.10105L33.2368 3.10099L33.2114 3.08227C31.1002 1.52698 28.3487 -0.5 24.3367 -0.5C22.4438 -0.5 20.0913 0.363243 17.6552 1.61485C15.2019 2.87528 12.5963 4.56588 10.1771 6.29478C5.34288 9.74955 1.20105 13.3951 0.437514 14.1588L0.437381 14.1589C-0.0198231 14.6165 -0.320956 15.1897 -0.433998 15.8056L-0.438264 15.8289L-0.440319 15.8524L-0.496093 16.4913L-0.497109 16.5029L-0.49758 16.5146C-0.532164 17.3705 -0.195816 18.1901 0.437424 18.8237L0.437534 18.8238C1.13155 19.5178 2.02441 20.6231 3.08949 21.9437L3.08954 21.9437L3.10005 21.9567C5.78755 25.2878 9.50446 29.8949 14.7739 33.7138C21.4658 38.5637 28.6228 41.0363 36.0402 41.0363C43.4585 41.0363 50.711 38.4531 57.5903 33.3927L71.8694 14.1587ZM72.5254 17.5115L72.0798 17.2846M72.5254 17.5115C72.5255 17.5111 72.5257 17.5108 72.5259 17.5104L72.0798 17.2846M72.5254 17.5115C72.4845 17.5919 72.411 17.696 72.3445 17.7873C72.2685 17.8917 72.17 18.0215 72.0561 18.1686C71.8278 18.4633 71.5297 18.8376 71.2092 19.2361C70.8288 19.7091 70.4106 20.2238 70.0371 20.6836C69.7837 20.9955 69.5509 21.2821 69.3643 21.5132L68.9753 21.1992C69.1645 20.9648 69.3982 20.6771 69.6519 20.3648C70.6496 19.1367 71.9566 17.5279 72.0798 17.2846M17.3326 30.1836C14.9433 28.4517 11.9757 25.6199 9.64767 23.1589C8.48563 21.9304 7.49189 20.8038 6.81682 19.9638C6.74589 19.8756 6.67887 19.7909 6.61585 19.7101C6.76948 19.7796 6.93214 19.8542 7.10115 19.9326C7.65896 20.1912 8.25937 20.4777 8.82092 20.7457C9.25108 20.951 9.65844 21.1454 10.0064 21.3081C10.0064 21.3081 10.0064 21.3081 10.0064 21.3081L10.0327 21.3204C16.261 24.2324 25.7746 28.6804 36.0406 28.6804C46.5831 28.6804 56.229 24.1239 62.5455 21.14L62.572 21.1275C62.9658 20.9414 63.4592 20.6996 63.9613 20.4535C64.3976 20.2397 64.8405 20.0226 65.2307 19.8359C65.2237 19.8444 65.2166 19.853 65.2095 19.8616C64.5457 20.6652 63.5996 21.7463 62.4949 22.9323C60.2809 25.3095 57.4558 28.0798 55.0074 29.8806L55.0074 29.8806C48.8591 34.4031 42.4797 36.6764 36.0406 36.6764C29.5833 36.6764 23.2911 34.5016 17.3326 30.1836ZM17.3326 30.1836L17.0391 30.5885M17.3326 30.1836L17.0391 30.5885M17.0391 30.5885C23.0712 34.9597 29.4642 37.1764 36.0406 37.1764C42.6042 37.1764 49.0851 34.8576 55.3036 30.2834C59.5128 27.1876 64.7649 21.3152 66.2388 19.3731L5.71464 19.3245C7.00527 21.2732 12.8611 27.5599 17.0391 30.5885ZM57.1089 19.0165C56.6981 18.9607 56.1956 18.9004 55.619 18.837C53.9301 18.6514 51.6319 18.4424 49.2023 18.2461C44.3351 17.8529 38.9791 17.5139 36.9515 17.5139C36.4119 17.5139 35.8727 17.5154 35.334 17.5181M57.1089 19.0165L35.3315 17.0181M57.1089 19.0165C56.7875 19.1646 56.3989 19.3329 55.9513 19.5167C54.5237 20.1029 52.5263 20.8336 50.2634 21.5473C45.7234 22.979 40.1802 24.3212 36.0406 24.3212C31.9809 24.321 26.5104 23.0338 22.0255 21.64C19.7896 20.9452 17.8153 20.229 16.4048 19.6441C15.9482 19.4547 15.5547 19.2808 15.2327 19.1272M57.1089 19.0165L15.2327 19.1272M35.334 17.5181L35.3315 17.0181M35.334 17.5181C35.3341 17.5181 35.3341 17.5181 35.3342 17.5181L35.3315 17.0181M35.334 17.5181C33.454 17.5285 28.1234 17.9081 23.2412 18.3284C20.8048 18.5381 18.4897 18.7571 16.7853 18.9438C16.1818 19.0099 15.6575 19.0716 15.2327 19.1272M35.3315 17.0181C31.93 17.0369 17.5206 18.2408 14.4841 18.7291C14.5559 18.7749 14.65 18.8299 14.7688 18.8938C14.901 18.9649 15.0561 19.043 15.2327 19.1272M15.2327 19.1272C15.0569 19.1502 14.8982 19.1721 14.7579 19.1929C14.6092 19.2149 14.485 19.235 14.3855 19.253L15.2327 19.1272ZM50.0652 14.1614L50.0652 14.1614L50.0369 14.1581C45.7431 13.6662 41.27 13.1537 36.9511 13.1537C36.4035 13.1537 35.8567 13.1554 35.3105 13.1579L35.3101 13.1579C31.2873 13.18 26.859 13.6965 22.6099 14.192L22.5965 14.1936C22.5965 14.1936 22.5965 14.1936 22.5964 14.1936C19.4122 14.5647 16.4323 14.912 13.9968 15.0043C12.3996 15.0646 11.2581 15.1234 10.3415 15.1707L10.3036 15.1726L10.3034 15.1726C10.0776 15.1844 9.86356 15.1961 9.65681 15.2074C8.69883 15.2597 7.89675 15.3035 6.79323 15.3035C6.37801 15.3035 6.04245 15.2887 5.78763 15.263C7.73208 13.606 9.6924 11.9877 12.9345 9.68806L12.9345 9.68804C15.5737 7.81571 17.9433 6.35017 19.9085 5.35502C21.8963 4.34843 23.4012 3.85974 24.3367 3.85974C26.8932 3.85974 28.7341 5.19925 30.6514 6.61166C30.6514 6.61167 30.6514 6.61167 30.6514 6.61167L30.7169 6.65997C32.3422 7.85768 34.0422 9.11041 36.1546 9.11296L36.1558 9.11296C38.2646 9.11041 39.9648 7.8575 41.59 6.65988L41.6554 6.61166L41.6554 6.61162C43.572 5.19927 45.4129 3.85974 47.9698 3.85974C48.9054 3.85974 50.4104 4.34843 52.3982 5.35503C54.3635 6.35017 56.7331 7.81571 59.3725 9.68805L59.6618 9.28024L59.3725 9.68806L59.5466 9.81156C62.5444 11.9379 64.8095 13.5445 66.5292 15.1508C66.3071 15.1543 66.0372 15.1543 65.7162 15.1543H65.6822C64.3161 15.1543 62.639 15.0896 60.714 15.0153C59.9972 14.9877 59.2461 14.9587 58.4639 14.9312C56.0411 14.846 53.1525 14.5155 50.0652 14.1614Z" transform="translate(1.86536 1.67432)" fill="white" stroke="white"/>
</svg>
