<svg width="44" height="65" viewBox="0 0 44 65" fill="none" xmlns="http://www.w3.org/2000/svg">
<path d="M7.82393 0C5.7489 0 3.75885 0.824305 2.29158 2.29158C0.824304 3.75885 0 5.7489 0 7.82394V28.6878C0 30.7628 0.824304 32.7529 2.29158 34.2201C3.75885 35.6874 5.7489 36.5117 7.82393 36.5117C9.89897 36.5117 11.889 35.6874 13.3563 34.2201C14.8236 32.7529 15.6479 30.7628 15.6479 28.6878V7.82394C15.6479 5.7489 14.8236 3.75885 13.3563 2.29158C11.889 0.824305 9.89897 0 7.82393 0V0Z" transform="translate(14.3775 3.65253)" stroke="white" stroke-width="6" stroke-linecap="round" stroke-linejoin="round"/>
<path d="M36.5117 0V5.21596C36.5117 10.0577 34.5883 14.7012 31.1647 18.1248C27.741 21.5484 23.0976 23.4718 18.2559 23.4718C13.4141 23.4718 8.77065 21.5484 5.34701 18.1248C1.92338 14.7012 7.21477e-08 10.0577 0 5.21596V0" transform="translate(3.94562 27.1243)" stroke="white" stroke-width="6" stroke-linecap="round" stroke-linejoin="round"/>
<path d="M0 0V10.4319" transform="translate(22.2015 50.5961)" stroke="white" stroke-width="6" stroke-linecap="round" stroke-linejoin="round"/>
<path d="M0 0H20.8638" transform="translate(11.7695 61.028)" stroke="white" stroke-width="6" stroke-linecap="round" stroke-linejoin="round"/>
</svg>
