<svg width="26" height="24" viewBox="0 0 26 24" fill="none" xmlns="http://www.w3.org/2000/svg">
<path d="M6.279 13.104C7.31033 13.4073 8.099 13.9837 8.645 14.833C9.25167 15.6217 9.555 16.5923 9.555 17.745C9.555 19.201 9.1 20.384 8.19 21.294C7.28 22.204 6.15767 22.659 4.823 22.659C3.367 22.659 2.184 22.204 1.274 21.294C0.424667 20.3233 0 19.1403 0 17.745C0 17.017 0.0606667 16.3193 0.182 15.652C0.364 14.924 0.697667 13.8927 1.183 12.558L5.005 0H9.373L6.279 13.104ZM21.749 13.104C22.7803 13.4073 23.569 13.9837 24.115 14.833C24.7217 15.6217 25.025 16.5923 25.025 17.745C25.025 19.201 24.57 20.384 23.66 21.294C22.75 22.204 21.6277 22.659 20.293 22.659C18.837 22.659 17.654 22.204 16.744 21.294C15.8947 20.3233 15.47 19.1403 15.47 17.745C15.47 17.017 15.5307 16.3193 15.652 15.652C15.834 14.924 16.1677 13.8927 16.653 12.558L20.475 0H24.843L21.749 13.104Z" transform="translate(0.822998 0.478027)" fill="black"/>
</svg>
